<svg id="Layer_1" data-name="Layer 1" xmlns="http://www.w3.org/2000/svg" xmlns:xlink="http://www.w3.org/1999/xlink" viewBox="0 0 5011.37 5011.37"><defs><style>.cls-1,.cls-23{fill:none;}.cls-2{clip-path:url(#clip-path);}.cls-3{fill:#ccc165;}.cls-4{fill:#fdfdf9;}.cls-5{fill:#fafefc;}.cls-6{fill:#fdfcf7;}.cls-7{fill:#fefbf5;}.cls-8{fill:#ecebce;}.cls-9{fill:#e9e8c7;}.cls-10{fill:#e5dfb0;}.cls-11{fill:#f6efd8;}.cls-12{fill:#fefce1;}.cls-13{fill:#a8deb5;}.cls-14{fill:#a99678;}.cls-15{fill:#7c8178;}.cls-16{fill:#3b8078;}.cls-17{fill:#7e8687;}.cls-18{fill:#58aa7c;}.cls-19{fill:#57a97c;}.cls-20{fill:#a2d9b2;}.cls-21{isolation:isolate;}.cls-22{fill:#fffdee;}.cls-23{stroke:#306965;stroke-miterlimit:10;stroke-width:76px;}.cls-24{fill:#3d7f78;}</style><clipPath id="clip-path" transform="translate(0 0.02)"><polygon class="cls-1" points="4473.83 3718.41 2507.21 4855.61 539.06 3721.07 537.52 1449.33 2504.14 312.12 4472.3 1446.66 4473.83 3718.41"/></clipPath></defs><g class="cls-2"><path class="cls-3" d="M0,190.34V12.52c4.15-.26,8.3-.75,12.45-.77q88.25-.5,176.48-.86,139.57-.46,279.16-.75,135.82-.27,271.66-.38,137.7-.24,275.41-.56t275.38-.83q139-.4,277.91-.73,136.46-.27,272.91-.39Q1979.69,7,2118,6.7q137.07-.35,274.14-.83,139.58-.41,279.15-.73,135.84-.28,271.66-.39,138.33-.24,276.66-.56,137.07-.35,274.14-.83,155.85-.42,311.71-.72,244.13-.25,488.25-.28c4.58,0,9.17-.22,13.75-.34,2.92.12,5.83.34,8.75.34h257.82c3.75,0,7.49-.32,11.24-.5,5,.2,10,.56,15,.56q121.92.06,243.83,0a83.46,83.46,0,0,0,10-.2c2.39-.29,4.67-1.46,7-2.24h137.72c.45,4.95,1.27,9.89,1.29,14.84q.42,105.15.65,210.3.39,189,.69,378.07.16,85.75.43,171.51.39,152.71.79,305.44.31,123.31.6,246.62.38,199.66.69,399.35.14,75.11.42,150.22.41,150.84.79,301.69.31,125.17.61,250.37l.66,280.41q.28,135.84.46,271.67.32,138.32.77,276.64.35,137.71.58,275.41t.44,275.42q.16,157.13.19,314.24V4330c0,5,.16,10,.24,15-.15,5.42-.44,10.83-.44,16.25q0,261,.1,521.95c0,5,.23,10,.24,15q.07,43.8.07,87.62c0,3.27.38,6.75-3.57,10.23-3.85.13-8.79.45-13.72.46q-70.72,0-141.45.06c-4.94,0-10.05-.87-14.7,1.8l-285.49.41-360.62.43q-94.53.15-189.07.64c-93.48.49-187-.44-280.44.82-90.56,1.22-181.15.5-271.72.61l-368.14.43q-90.77.15-181.55.64c-95.56.47-191.13-.44-286.7.84-88.06,1.17-176.14.47-264.21.6l-280.48.42q-135.86.26-271.71.67c-92.64.4-185.29-.38-277.94.78-98.07,1.24-196.17.53-294.26.63q-251.68.24-503.37.43c-4.59,0-9.18.22-13.76.34-4.58-.13-9.16-.4-13.74-.4q-136.92.29-273.85.61c-46.28.08-92.55-.3-138.82.1-46.64.41-93.27-.65-139.94,1.45-41.6,1.88-83.35.35-125,.33-.12-2.08-.32-4.17-.35-6.25-.54-48-.27-95.93-.91-143.91-1.21-91.37-.62-182.76-.77-274.14q-.21-136.45-.4-272.91-.23-143.32-.46-286.67-.3-132-.78-264.11-.43-139.57-.85-279.14-.31-136.45-.42-272.9-.21-137.7-.46-275.41t-.78-275.37l-.84-277.89q-.31-137.09-.42-274.16T7,1832.14q-.32-138.32-.78-276.63-.42-137.7-.85-275.39Q5,1137.41,4.92,994.7q-.25-257.25-.47-514.52c0-4.58-.22-9.17-.35-13.75.21-4.57.6-9.14.6-13.7q.06-123.53,0-247.06c0-3.32-.07-6.65-.3-10A5.75,5.75,0,0,0,0,190.34Zm2507.6,892c-45.93-.36-91.68,2.58-137.42,6.7q-61.77,5.58-122.73,16.45c-64.13,11.4-127.4,26.27-189.38,46.63-67.08,22-132.94,47-196.52,77.79-62.43,30.24-122.88,63.93-180.46,102.7-51.63,34.77-101.55,71.73-148.4,112.81-50,43.79-97.78,89.64-141.53,139.74-44,50.37-85.49,102.52-122.42,158.33-36,54.36-69.37,110.13-98,168.78-32.59,66.88-61.75,135.12-83.55,206.33-8.43,27.53-16.69,55.12-24.26,82.89a1066.68,1066.68,0,0,0-24.61,112.46c-5.69,35.83-10.37,71.85-14.46,107.9-3.11,27.34-5.39,54.83-6.57,82.31-1.11,25.8-2.58,51.6-1.22,77.55,1.52,29.14.4,58.41,3,87.55,2.15,24.1,3.29,48.31,6.12,72.33,5.8,49.31,13,98.42,24.49,146.83,8.18,34.51,16.41,69,26.33,103.07a1490.75,1490.75,0,0,0,91.6,236.73c24.36,49.95,52.11,97.94,82,144.8a1475.63,1475.63,0,0,0,179.94,229c22.82,23.79,46.33,46.87,70.82,69,47.76,43.13,97.24,84,150.33,120.47,57.16,39.24,115.61,76.24,177.78,107.22,60.2,30,121.36,57.49,185.09,79.25,71.16,24.3,143.2,45.09,217.31,58.3,35.73,6.37,71.48,12.59,107.61,16.24,18.68,1.89,37.34,3.92,56,5.34,22,1.68,44.11,3.43,66.19,4,27.53.67,55.09.2,82.64.08,8.76,0,17.53-.34,26.27-.85,19.58-1.13,39.16-2.19,58.7-3.78,20.78-1.7,41.57-3.52,62.26-6.1q44.07-5.47,87.7-13.89c65.22-12.57,129.71-28,192.72-49,74.5-24.82,147.2-53.94,216.74-90.85,60.17-31.93,119-65.9,174.58-105.32,53.51-37.95,105-78.3,153-123.09,46.45-43.32,91-88.4,131.51-137.35,42.65-51.47,82.91-104.62,118.27-161.45,35.75-57.47,69-116.24,96.77-178,29.31-65.16,55.31-131.51,74.69-200.38,10.74-38.17,21-76.44,29-115.29,7.11-34.75,14.16-69.51,18-104.82q3.24-29.86,6.55-59.72c3.46-30.7,5.27-61.53,6.27-92.38a1416.66,1416.66,0,0,0-4-161.32c-2.84-35-6.22-69.83-11.45-104.48-9.08-60.28-21.08-119.94-38.1-178.57-11.75-40.5-24-80.79-38.79-120.29-24.31-65-52.18-128.29-85.31-189.31-45.12-83.13-96.68-161.88-157.25-234.64-23.5-28.24-47.47-56-72.77-82.68A1496.1,1496.1,0,0,0,3434,1406.09c-48.39-38.47-98.67-74.22-151.83-105.94-58.84-35.11-119.1-67.27-182.15-94.29-75.32-32.28-152.39-59.17-232-78.79-38.09-9.39-76.39-17.75-115.08-24.19-23.45-3.91-47-7.5-70.59-10.19s-47.36-4.13-71-6C2576.84,1083.86,2542.26,1082.06,2507.6,1082.29Z" transform="translate(0 0.02)"/><path class="cls-4" d="M4.06,466.49c.13,4.58.35,9.17.35,13.75q.25,257.27.47,514.52.15,142.71.41,285.42.32,137.7.85,275.39.41,138.32.78,276.63.31,137.07.46,274.15t.42,274.16q.32,138.94.84,277.89.42,137.68.78,275.37t.46,275.41l.42,272.9q.31,139.58.85,279.14.4,132.06.78,264.11.32,143.34.46,286.67.19,136.45.4,272.91c.15,91.38-.44,182.77.77,274.14.64,48,.37,95.95.91,143.91,0,2.08.23,4.17.35,6.25a5.53,5.53,0,0,0,.21,2.14H0V465.82Z" transform="translate(0 0.02)"/><path class="cls-5" d="M706.21,5007.12c4.58-.12,9.17-.34,13.76-.34q251.68-.24,503.37-.43c98.09-.1,196.19.61,294.26-.63,92.65-1.16,185.3-.38,277.94-.78q135.86-.6,271.71-.67,140.23-.27,280.48-.42c88.07-.13,176.15.57,264.21-.6,95.57-1.28,191.14-.37,286.7-.84q90.78-.46,181.55-.64,184.07-.3,368.14-.43c90.57-.11,181.16.61,271.72-.61,93.49-1.26,187-.33,280.44-.82q94.53-.51,189.07-.64,180.3-.3,360.62-.43,142.74-.18,285.49-.41c2.9.18,5.8.51,8.7.51q83.49,0,167-.11v12.52H428.26c4.86-3.45,10.45-2.26,15.77-2.27q123.12-.1,246.25-.09C695.63,5009,701.17,5010,706.21,5007.12Z" transform="translate(0 0.02)"/><path class="cls-6" d="M5009.14,4345c-.08-5-.24-10-.24-15V4122.22q-.06-157.13-.19-314.24-.15-137.7-.44-275.42t-.58-275.41q-.34-138.32-.77-276.64-.3-135.84-.46-271.67-.28-140.21-.66-280.41-.3-125.19-.61-250.37-.37-150.86-.79-301.69-.19-75.11-.42-150.22-.37-199.68-.69-399.35-.24-123.32-.6-246.62-.39-152.72-.79-305.44-.21-85.75-.43-171.51-.36-189-.69-378.07-.22-105.15-.65-210.3c0-5-.84-9.89-1.29-14.84h12.52V4345.18A15,15,0,0,0,5009.14,4345Z" transform="translate(0 0.02)"/><path class="cls-7" d="M4307.48,2c-4.58.12-9.17.34-13.75.34l-488.25.28q-155.86.18-311.71.72-137.07.38-274.14.83-138.33.36-276.66.56-135.82.23-271.66.39-139.57.27-279.15.73-137.07.39-274.14.83-138.33.34-276.66.55-136.45.24-272.91.39-139,.29-277.91.73-137.68.39-275.38.83t-275.41.56q-135.84.22-271.66.38-139.59.29-279.16.75-88.25.29-176.48.86c-4.15,0-8.3.51-12.45.77V0H4307.61C4307.55.67,4307.51,1.34,4307.48,2Z" transform="translate(0 0.02)"/><path class="cls-8" d="M706.21,5007.12c-5,2.88-10.58,1.87-15.93,1.87q-123.12.09-246.25.09c-5.32,0-10.91-1.18-15.77,2.27H15a5.53,5.53,0,0,1-.21-2.14c41.69,0,83.44,1.55,125-.33,46.67-2.1,93.3-1,139.94-1.45,46.27-.4,92.54,0,138.82-.1q136.92-.24,273.85-.61C697.05,5006.72,701.63,5007,706.21,5007.12Z" transform="translate(0 0.02)"/><path class="cls-9" d="M5009.14,4345a14.82,14.82,0,0,1,2.21.14v653.65q-83.49.08-167,.11c-2.9,0-5.8-.33-8.7-.51,4.65-2.67,9.76-1.8,14.7-1.8q70.72-.1,141.45-.06c4.93,0,9.87-.33,13.72-.46,3.95-3.48,3.57-7,3.57-10.23q0-43.81-.07-87.62c0-5-.23-10-.24-15q-.06-261-.1-521.95C5008.7,4355.87,5009,4350.46,5009.14,4345Z" transform="translate(0 0.02)"/><path class="cls-10" d="M4.06,466.49,0,465.82V190.34a5.76,5.76,0,0,1,4.38,5.43c.23,3.31.3,6.64.3,10V452.83C4.66,457.35,4.27,461.92,4.06,466.49Z" transform="translate(0 0.02)"/><path class="cls-11" d="M4307.48,2c0-.68.07-1.35.13-2h278a11.71,11.71,0,0,0-.31,1.85c-3.75.18-7.49.5-11.24.5H4316.24C4313.31,2.36,4310.4,2.14,4307.48,2Z" transform="translate(0 0.02)"/><path class="cls-10" d="M4585.29,1.85A11.71,11.71,0,0,1,4585.6,0h275.49c-2.33.78-4.61,2-7,2.24a83.46,83.46,0,0,1-10,.2H4600.26C4595.28,2.41,4590.28,2.05,4585.29,1.85Z" transform="translate(0 0.02)"/><path class="cls-12" d="M2507.6,1082.29c34.66-.21,69.24,1.59,103.78,4.33,23.69,1.89,47.44,3.33,71,6s47.14,6.28,70.59,10.19c38.69,6.44,77,14.8,115.08,24.19,79.59,19.62,156.66,46.51,232,78.79,63.05,27,123.31,59.18,182.15,94.29,53.16,31.72,103.44,67.47,151.83,105.94a1497.4,1497.4,0,0,1,154.69,142.27c25.3,26.68,49.27,54.44,72.77,82.68,60.57,72.76,112.13,151.51,157.25,234.64,33.13,61,61,124.34,85.31,189.31,14.78,39.5,27,79.79,38.79,120.29,17,58.63,29,118.29,38.1,178.57,5.23,34.65,8.61,69.53,11.45,104.48a1416.66,1416.66,0,0,1,4,161.32c-1,30.85-2.81,61.68-6.27,92.38q-3.36,29.85-6.55,59.72c-3.84,35.31-10.89,70.07-18,104.82-8,38.85-18.27,77.12-29,115.29-19.38,68.87-45.38,135.22-74.69,200.38-27.79,61.79-61,120.56-96.77,178-35.36,56.83-75.62,110-118.27,161.45-40.56,49-85.06,94-131.51,137.35-48,44.79-99.53,85.14-153,123.09-55.6,39.42-114.41,73.39-174.58,105.32-69.54,36.91-142.24,66-216.74,90.85-63,21-127.5,36.41-192.72,49q-43.65,8.4-87.7,13.89c-20.69,2.58-41.48,4.4-62.26,6.1-19.54,1.59-39.12,2.65-58.7,3.78-8.74.51-17.51.81-26.27.85-27.55.12-55.11.59-82.64-.08-22.08-.53-44.15-2.28-66.19-4-18.71-1.42-37.37-3.45-56-5.34-36.13-3.65-71.88-9.87-107.61-16.24-74.11-13.21-146.15-34-217.31-58.3-63.73-21.76-124.89-49.26-185.09-79.25-62.17-31-120.62-68-177.78-107.22-53.09-36.45-102.57-77.34-150.33-120.47-24.49-22.12-48-45.2-70.82-69a1475.63,1475.63,0,0,1-179.94-229c-29.86-46.86-57.61-94.85-82-144.8a1490.75,1490.75,0,0,1-91.6-236.73c-9.92-34.08-18.15-68.56-26.33-103.07-11.46-48.41-18.69-97.52-24.49-146.83-2.83-24-4-48.23-6.12-72.33-2.6-29.14-1.48-58.41-3-87.55-1.36-25.95.11-51.75,1.22-77.55,1.18-27.48,3.46-55,6.57-82.31,4.09-36,8.77-72.07,14.46-107.9A1066.68,1066.68,0,0,1,1063,2201.42c7.57-27.77,15.83-55.36,24.26-82.89,21.8-71.21,51-139.45,83.55-206.33,28.58-58.65,62-114.42,98-168.78,36.93-55.81,78.45-108,122.42-158.33,43.75-50.1,91.58-96,141.53-139.74,46.85-41.08,96.77-78,148.4-112.81,57.58-38.77,118-72.46,180.46-102.7,63.58-30.81,129.44-55.74,196.52-77.79,62-20.36,125.25-35.23,189.38-46.63q61-10.85,122.73-16.45C2415.92,1084.85,2461.67,1081.91,2507.6,1082.29Zm-1280,2103.4c1.78,4.21,3.34,8.52,5.36,12.61,20.11,40.81,41.69,80.79,65.82,119.41,35,56,72.65,110,115.11,160.58,41.89,49.92,86.1,97.56,134.53,141.26,49.32,44.5,100.55,86.47,155.72,123.61,54.39,36.61,110.23,70.59,169.18,99.5,69.41,34,140.56,63.46,214.56,86.05,60.32,18.41,121.32,33.88,183.58,43.81,32.92,5.25,66.1,8.87,99.22,12.75,34.82,4.08,69.82,5.88,104.86,6.74,31.71.79,63.39-.13,95.08-1.61,40.44-1.88,80.74-5,120.88-10.31,59.59-7.88,118.47-19,176.59-34.65,95-25.54,186.77-59.2,274.66-103.41,57.46-28.91,113-61,166-97.54a1419.3,1419.3,0,0,0,158.32-126.35c52.51-48.51,101.56-100.18,146.41-155.82,36.94-45.85,71.27-93.55,101.76-144,22.89-37.87,44.81-76.25,64.42-115.92,1.83-3.7,3.17-7.65,4.74-11.49A11.06,11.06,0,0,0,3786,3189c11.63-22.67,21.27-46.22,30.8-69.81,1.06-2.63,1.34-5.57,2-8.36,3.71-2.59,4.59-6.82,6.12-10.66,21.68-54.31,40.8-109.47,54.75-166.31,6-24.31,12.36-48.54,17.25-73.07,6.35-31.89,11.64-64,16.88-96.09,2.49-15.21,4.13-30.58,5.57-45.93s2.27-30.77,3.17-46.16c1.49-25.38,3.51-50.76,4-76.17.56-27.92.45-55.85-1.29-83.81-1.63-26.2-2.6-52.42-5.56-78.55-4-35.64-8.5-71.18-14.63-106.54a1417,1417,0,0,0-48.73-196.62c-12.53-38.5-27.73-76-43.22-113.43-22.24-53.68-48.63-105.3-77.52-155.64-32-55.81-68.2-108.83-107.54-159.79-35.77-46.33-74.85-89.64-115.66-131.45-11.94-12.24-24.66-23.71-37.05-35.5-26-24.74-52.87-48.52-81.39-70.33-25.84-19.76-51.74-39.49-78.27-58.31a1035,1035,0,0,0-99.43-62.82c-14.62-8-29.06-16.43-43.77-24.3a1394.82,1394.82,0,0,0-175.91-78.47c-60.78-22.39-122.59-41.12-186.07-54.18-7.35-1.51-14.64-3.32-22-4.79q-66.27-13.25-133.45-20.7c-34-3.83-68.17-5.55-102.31-6.54-49.62-1.44-99.29-1.22-148.86,2.47-12.06.89-24.16,1.5-36.14,3-28.12,3.58-56.22,7.33-84.24,11.57-66.12,10-131,25.4-195,44.9a1365.42,1365.42,0,0,0-196.61,77.49A1453.07,1453.07,0,0,0,1716,1394.77a1376,1376,0,0,0-171.75,135.52,1468.92,1468.92,0,0,0-137.1,145.77,1419.34,1419.34,0,0,0-117,166.92c-23.67,39.31-46.24,79.28-64.83,121.36-9.61,21.75-19.87,43.22-29.13,65.12-21.16,50-39.58,101-53.48,153.55-8.21,31-16.26,62.16-23.41,93.47a1019.14,1019.14,0,0,0-19.41,113.39c-1.81,16.15-4,32.28-5.5,48.46-1.36,14.1-2.25,28.26-3.08,42.41-1.46,25-2.92,49.94-4,74.93-1.29,30,1.43,60,2.32,90,.42,14.16,1.51,28.32,2.85,42.43,1.94,20.33,4,40.66,6.68,60.91,3.36,25.62,6.63,51.29,11.24,76.71,9.69,53.39,21.34,106.35,38.55,157.92,11,32.84,22,65.67,33.37,98.37,3.13,9,7.72,17.45,11.64,26.15,1.3,4.35,2.2,8.87,4,13q10.38,24,21.26,47.83c2.59,5.66,5.59,11.13,8.34,16.68Z" transform="translate(0 0.02)"/><path class="cls-13" d="M1194,3108.15c-3.92-8.7-8.51-17.17-11.64-26.15-11.4-32.7-22.41-65.53-33.37-98.37-17.21-51.57-28.86-104.53-38.55-157.92-4.61-25.42-7.88-51.09-11.24-76.71-2.66-20.25-4.74-40.58-6.68-60.91-1.34-14.11-2.43-28.27-2.85-42.43-.89-30-3.61-60-2.32-90,1.07-25,2.53-50,4-74.93.83-14.15,1.72-28.31,3.08-42.41,1.55-16.18,3.69-32.31,5.5-48.46a1019.14,1019.14,0,0,1,19.41-113.39c7.15-31.31,15.2-62.42,23.41-93.47,13.9-52.54,32.32-103.54,53.48-153.55,9.26-21.9,19.52-43.37,29.13-65.12,18.59-42.08,41.16-82,64.83-121.36a1420.17,1420.17,0,0,1,117-166.92,1469,1469,0,0,1,137.11-145.76,1376,1376,0,0,1,171.8-135.46,1453.07,1453.07,0,0,1,175.85-100.65,1365.42,1365.42,0,0,1,196.61-77.49c63.94-19.5,128.83-34.91,195-44.9,28-4.24,56.12-8,84.24-11.57,12-1.53,24.08-2.14,36.14-3,49.57-3.69,99.24-3.91,148.86-2.47,34.14,1,68.27,2.71,102.31,6.54q67.2,7.56,133.45,20.7c7.37,1.47,14.66,3.28,22,4.79,63.48,13.06,125.29,31.79,186.07,54.18a1394.82,1394.82,0,0,1,175.91,78.47c14.71,7.87,29.15,16.25,43.77,24.3a1035,1035,0,0,1,99.43,62.82c26.53,18.82,52.43,38.55,78.27,58.31,28.52,21.81,55.38,45.59,81.39,70.33,12.39,11.79,25.11,23.26,37,35.5,40.81,41.81,79.89,85.12,115.66,131.45,39.34,51,75.51,104,107.54,159.79,28.89,50.34,55.28,102,77.52,155.64,15.49,37.4,30.69,74.93,43.22,113.43a1417,1417,0,0,1,48.73,196.62c6.13,35.36,10.59,70.9,14.63,106.54,3,26.13,3.93,52.35,5.56,78.55,1.74,28,1.85,55.89,1.29,83.81-.51,25.41-2.53,50.79-4,76.17-.9,15.39-1.73,30.81-3.17,46.16s-3.08,30.72-5.57,45.93c-5.24,32.09-10.53,64.2-16.88,96.09-4.89,24.53-11.28,48.76-17.25,73.07-13.95,56.84-33.07,112-54.75,166.31-1.53,3.84-2.41,8.07-6.12,10.65-3.18-1-6.31-2.31-9.56-2.84a188,188,0,0,0-46.14-1.47c-8.45.69-16.54,2.68-22.63,9.25-3.45,3.72-7.81,4.75-12.54,4.24-7.45-.82-15-1.44-22.28-3a47.49,47.49,0,0,0-21.05-.3c-3.85.88-7.28.22-11-.65-13.38-3.12-26.75-6.48-40.32-8.56-20.4-3.12-40.61-3.79-59.52,7.46-7.39,4.39-16,4.3-24.32,1.46-12.77-4.38-25.93-6-39.4-5.93-4.11,0-8.71.09-12.26-1.6-12.29-5.88-25.27-7.94-38.62-9.53-12.34-1.46-24.13-1.09-35.45,4.29a15.55,15.55,0,0,1-12.1,1.06c-6.48-2.16-13.13-1.71-19.83-1.51a101.1,101.1,0,0,1-16.12-1,123.2,123.2,0,0,1-13.43-2.95,106.47,106.47,0,0,0-61.6,2.53c-7.49,2.57-15.15,4.65-22.71,7a46.85,46.85,0,0,1-28.14.75,74.07,74.07,0,0,0-40.8.55c-14.94,4.32-29.41,4.73-44.09-.23-13.52-4.57-26.89-4.91-40.27.88a27.16,27.16,0,0,1-10.85,2.23c-17.49-.28-35-1-52.48-1.47-3.75-.1-7.5,0-11.25.14-2.49.07-5,.7-7.46.38-12-1.58-23.91-3.44-35.87-5.11q-6.18-.85-12.4-1.3c-8.72-.68-17.48-1-26.15-2-10.76-1.23-20.72.37-30,6.12a40.73,40.73,0,0,1-9,4.09c-15.86,5.06-31.61,10.76-48.68,9.92a22.16,22.16,0,0,0-3.72.49c-25.56,3.06-50.79,3-75-7.58-.38-.17-.78-.29-1.17-.45a43.47,43.47,0,0,0-20.8-3.3,53.83,53.83,0,0,1-17.33-1.63,135.26,135.26,0,0,0-31-3.23c-11.31,0-22.42,1.56-33.63,2.35q-27.45,1.92-55,2.46c-7.42.16-14.11,1.47-19.77,6.22-4.52,3.79-9.57,4.47-15.18,4.4-8.87-.11-17.37-2-25.87-4.16-7.28-1.85-14.53-3.62-22.21-2-2.75.59-5.79,0-8.69-.26-5.8-.41-11.59-.91-17.39-1.38-.37-4.57-1-9.13-1.07-13.71q-.69-26.91-1.11-53.82c-.28-19.2-.32-38.4-.61-57.59-.17-11.68-1.24-23.37-.8-35,2-53,4.42-105.88,6.59-158.82,1-24.61,2.64-49,7.55-73.33,9.82-48.61,25.23-95.1,48.84-138.78a188.7,188.7,0,0,1,24.21-34.91c1.6-1.82,3.51-3.36,5.46-5.2a32,32,0,0,1,4.47,3c6.25,6.14,12.57,12.22,18.58,18.59,17.77,18.83,35.85,37.28,55.89,53.78,27.48,22.62,57.62,26.23,90.39,14.11,18.11-6.7,34.91-15.9,51-26.49,23-15.16,44.72-32.14,66.14-49.48,2.8-2.26,5.09-5.72,9.61-5.23a22.39,22.39,0,0,1,2.73,2.42c11.5,14,25.34,25.36,40,35.84,21.76,15.58,44.46,29.67,68.81,40.81,21.62,9.9,43.63,18.93,65.35,28.59,44.31,19.7,87.59,41.27,126.34,70.9a19.65,19.65,0,0,0,4.25,2.59c4.39,1.86,9.87-.4,11.27-4.95a30.61,30.61,0,0,0,1-8.63c.09-8.76,0-17.53-.09-26.29-.24-17.94-.07-35.91-1-53.82-1.67-33.84-7.57-67.12-14.91-100.14-9.57-43.14-24.6-84.06-49.83-120.75a24.46,24.46,0,0,1-2.63-4.25c-.89-2.16-1.42-4.46-2.26-7.21,4.28-1.32,7.78-2.61,11.39-3.47,11.37-2.7,22.77-5.27,34.16-7.83,11-2.47,22-4.76,33-7.34,4.32-1,9.92-.79,11.58-6,1.92-6-3.7-8.73-7-12.22a125.66,125.66,0,0,0-10.13-9.31c-33.13-28.24-71.43-47.79-111.22-64.26-23.45-9.71-48.08-16.62-72.31-24.41-38.78-12.46-78.86-18-119.28-21.12-33.82-2.65-67.56-.18-101.23,3.07-29.93,2.9-59.62,7.36-88.68,15.38-2.22.61-4.68.39-7.79.61a55.1,55.1,0,0,1,0-6.8c2.3-15.68,4.5-31.38,7.11-47,4.34-26,10.38-51.54,20-76.14,5.83-14.92,13.47-28.67,25.58-39.58a33.61,33.61,0,0,0,5.41-6.76c1.35-2.09-.49-5.77-2.92-5.71a35.67,35.67,0,0,0-9.74,1.35c-11.14,3.51-22.25,7.13-33.23,11.08a782,782,0,0,0-144.28,69c-1.53.94-3.47,1.21-6.28,2.15a83.77,83.77,0,0,1,1-8.52q19.45-91.28,47.87-180.16,26.37-82.27,59.58-162.11c6.88-16.57,13.71-33.16,20.72-49.67,1-2.49,1.6-5.84,6.21-6,1.4,1.35,3.19,3,4.93,4.74,6.8,6.77,13.35,13.82,20.44,20.28,8,7.28,16.13,14.39,25.49,20.11,18.41,11.25,38.44,18,59.18,23.21,33.15,8.27,66.17,7.5,99-1.47,20.4-5.56,39.24-14.33,54.66-29.17a277,277,0,0,0,33-37.61c17.84-24.78,32.77-51.34,47.92-77.77,9.54-16.66,19.39-33.16,28.19-50.21,9.37-18.16,18-36.71,26.27-55.42,4.86-11,8.6-22.6,12.18-34.13a31.94,31.94,0,0,0,.77-13.51c-.79-5.65-5.77-8.19-11.32-6.67a22.13,22.13,0,0,0-4.64,1.85c-9.35,5-19.44,7.41-29.85,8.81-21.49,2.88-42.9,6.84-64.48,8.45-26.19,2-52.53,1.78-78.8,2.84-20.83.84-41.73,1.32-62.45,3.46a251.23,251.23,0,0,0-82.66,23.67c-2.88,1.37-6.09,2.06-9.9,3.31-2.26-4.17-4.27-7.72-6.12-11.36a261.41,261.41,0,0,0-68.59-85.17c-30.94-25.25-65.15-45.14-101.28-61.75-21.66-10-44.27-17.47-67.91-21.23-17.43-2.77-34.93-2.12-52.35.36a38.22,38.22,0,0,0-9.43,3.05,3.69,3.69,0,0,0-1.87,4.86,3.73,3.73,0,0,0,1.06,1.37,77.08,77.08,0,0,0,9.26,6.36,59.13,59.13,0,0,1,24.28,26.25,147,147,0,0,1,9,22c5.54,18.37,10.57,36.9,15.58,55.42,4.58,16.92,8.32,34.08,13.38,50.84,17.75,58.84,50.61,106.66,103.27,139.83a314.9,314.9,0,0,0,44.23,23.45c2.53,1.08,4.78,2.81,7.6,4.5-1.33,2.87-2.2,5.19-3.41,7.31q-12.2,21.2-24.46,42.19a1532.6,1532.6,0,0,0-89.23,177.76c-21.08,50.11-37.59,101.76-51.56,154.21-9,33.86-16.84,68-25,102.11-1.71,7.16-4.77,13-10.44,17.94a133.27,133.27,0,0,0-31.35,40.24c-9.7,18.91-16,38.58-13.16,60.19,2,15.87,6,31.47,14.35,45,7.1,11.62,8.54,23,5.4,35.6-.3,1.21-.38,2.48-.56,3.72-6.88,47.49-11.9,95.2-16.63,143-1.73,17.43-3.43,34.87-5.32,52.29-.18,1.72-1.55,3.32-2.43,5.1-4-2.62-3.91-6.15-4.56-9.36-4.33-21.26-8.26-42.6-13-63.77-16.08-71.78-36.26-142.28-65-210.2-19.27-45.61-42.79-88.64-73.72-127.45a49.35,49.35,0,0,1-3.18-5.14c3.92-2.81,6.87-.38,9.82.55a118.11,118.11,0,0,0,71.44.71c29.92-9,53.76-26.1,71.1-52.24,15.16-22.86,22.06-48.33,24.91-75.28,2.46-23.3,2.58-46.65,2.18-70q-.89-50.68-2.3-101.36a304.87,304.87,0,0,1,2.62-48.69c2.94-22,10.09-42.15,26.38-58.15,2.68-2.62,5.14-5.47,7.63-8.28,1.94-2.19,4.18-4.49,2.69-7.73-1.39-3-4.48-3.47-7.38-3.88-1.65-.24-3.33-.22-5-.3a157.11,157.11,0,0,0-42.25,3.83c-39.68,8.92-73.89,27.82-103.38,55.73-22.63,21.41-41.18,46-57.21,72.52-16.48,27.22-29.2,56.27-39.23,86.47-10.27,30.92-19.62,62.08-24.66,94.36-.19,1.24-.33,2.49-.62,3.7-.56,2.4-.92,5.5-4,5.37-1.57-.07-3.41-2-4.47-3.58a62.62,62.62,0,0,1-4-7.77c-21.3-42.87-49.63-80.06-88.17-109a437.14,437.14,0,0,0-69.14-42.64c-65.24-32.18-133.54-40.11-204.77-27.61-27.19,4.77-53.75,12-80.15,19.76-28.82,8.45-57.3,18.06-85.92,27.18-23.08,7.35-46.28,14.3-70.22,18.17-16.16,2.61-32.38,3.18-48.44-1.21a57.86,57.86,0,0,0-11-2c-4.32-.33-7.41,2.24-7.67,6.47a63.32,63.32,0,0,0,.49,12.46,273.64,273.64,0,0,0,9.27,41.47c8.22,27,19.68,52.28,35.64,75.56a416.49,416.49,0,0,0,48,57.68c39.59,39.93,85,70.84,138.61,89.51,42.11,14.66,85.13,24.08,129.59,26.1a444.47,444.47,0,0,0,121.7-11.49c57.68-13.45,110.38-37.54,159.56-70.07,9-5.93,18.16-11.68,28.88-15.15,2.23,2.21,4.59,4,6.26,6.29,8.36,11.45,17.18,22.63,24.66,34.64,14.36,23.08,25.57,47.84,35.78,73,13.49,33.27,25.86,67,35.42,101.61,6.22,22.52,12.5,45,18.56,67.59,1.15,4.3,2.76,8.68,2.06,14.47-2.42-1.15-4.32-1.66-5.74-2.79-5.88-4.65-11.35-9.87-17.47-14.18-22.09-15.55-47.19-22.84-73.75-25.24-6.88-.62-11.49-2.87-15.54-8.52-9.54-13.27-21.14-24.71-33.8-35.06-23-18.82-48.92-29.31-79.15-29.91a205.37,205.37,0,0,0-83,15.63c-36.27,14.86-68.63,36-98.3,61.44-35.32,30.28-66.5,64.48-94.78,101.3-25.44,33.13-47.78,68.42-69.79,103.88-9.89,15.93-18.82,32.49-27.81,49a86.44,86.44,0,0,0-6.91,17.4c-.84,2.94-.16,6.55.62,9.66a5.12,5.12,0,0,0,5.89,3.63,29.36,29.36,0,0,0,7.18-2c7-2.81,13.78-6,20.78-8.67,35.09-13.59,70.91-24.57,108-31.38a505,505,0,0,1,87-8.64c24.61-.19,49.24-.92,73.81-2.33,40.6-2.34,78.82-13.86,114.66-32.83,43.06-22.78,69.67-58.63,81.58-105.64,4.23-16.66,6-33.66,6.65-50.79.15-3.64-.79-7.62,2.61-10.45a13.83,13.83,0,0,1,2.46-.53,19.53,19.53,0,0,1,3.74.22c24.65,4.4,45.62,15.47,62.58,34.08,18.18,20,32.6,42.23,42.4,67.43,7.73,19.86,14.65,40,18,61.13,3.39,21.4,6.71,42.84,9.23,64.37,4,34.38,7.55,68.83,11,103.28,3.16,32,6.55,63.91,8.62,95.95,2.57,39.54,4.16,79.15,5.63,118.76,1,27.51,1.13,55.05,1.65,82.58-6.16-1-12.38-1.76-18.46-3.15a34.86,34.86,0,0,0-20.86,1.52c-3.08,1.18-6.38,2.67-9.55,2.61-15.84-.29-31.75-.3-47.5-1.84-14.74-1.45-29.08-1-43.44,2.54-12.14,3-24.38,5.62-36.57,8.42-5.68,1.3-11.45,2.28-17,4-17.59,5.54-35.08,7.13-52.59-.23-1.92-.81-4-1.25-5.93-2-18.33-6.86-37.34-8.27-56.65-6.82-4.35.33-8.31-.14-12-2.3-15.78-9.15-32.82-8.19-50-6.24-9.66,1.09-18.88,3.71-26.9,9.42-5.15,3.67-10.43,4.08-16.58,3.14-18.94-2.9-38-5.22-57-7.77-8.56-1.16-16.76,0-24.09,4.65-8.46,5.34-17.68,6.77-27.45,7.07-13.75.42-27.48,1.34-41.2,2.33-8.07.58-15.75-.19-23.25-3.48a79.55,79.55,0,0,0-11.87-3.69c-4.81-1.28-9.74-2.16-14.53-3.53-5.61-1.6-11-3.93-16.7-5.25-15.11-3.53-29.75-3.33-43.21,6-4.38,3-9,6-14.09,6.67-3.66-1.4-6.68-3-9.88-3.67s-6.64-.52-10-.73c-4.16-.27-8.34-.42-12.48-.85q-19.29-2-38.55-4.22c-10.31-1.17-20.76-1.64-29.83-7.91-2.64-1.82-6.17-2.7-9.42-3.2a252.41,252.41,0,0,0-26-3.18c-11.66-.59-23.37-.12-35-.45-9.28-.27-18.24,1.27-27.26,3.18-22,4.68-44.1,9.09-66.18,13.54a30.65,30.65,0,0,1-7.46.71c-12.62-.63-24.88,1.92-37.28,3.58-14.89,2-29.88,2.8-44.79-.69a183.38,183.38,0,0,0-23.36-4.37,71,71,0,0,1-19.34-4.53,74.28,74.28,0,0,0-36.8-4.9,93.15,93.15,0,0,1-23.71-.08c-22.63-3.16-45-.58-67.32,2.3C1212.22,3107.93,1203.18,3109,1194,3108.15Z" transform="translate(0 0.02)"/><path class="cls-14" d="M3784.41,3190.89c-1.57,3.84-2.91,7.79-4.74,11.49-19.61,39.67-41.53,78-64.42,115.92-30.49,50.45-64.82,98.15-101.76,144-44.85,55.64-93.9,107.31-146.41,155.82a1419.3,1419.3,0,0,1-158.32,126.35c-53,36.52-108.56,68.63-166,97.54-87.89,44.21-179.69,77.87-274.66,103.41-58.12,15.64-117,26.77-176.59,34.65-40.14,5.3-80.44,8.43-120.88,10.31-31.69,1.48-63.37,2.4-95.08,1.61-35-.86-70-2.66-104.86-6.74-33.12-3.88-66.3-7.5-99.22-12.75-62.26-9.93-123.26-25.4-183.58-43.81-74-22.59-145.15-52-214.56-86.05-59-28.91-114.79-62.89-169.18-99.5C1649,3706,1597.75,3664,1548.43,3619.53c-48.43-43.7-92.64-91.34-134.53-141.26-42.46-50.61-80.14-104.6-115.11-160.58-24.13-38.62-45.71-78.6-65.82-119.41-2-4.09-3.58-8.4-5.36-12.61,6,1.73,12,3.2,17.87,5.27,4,1.43,8,2.38,12.21,1.78,14.42-2,28.83-4.24,43.27-6.07,11.15-1.42,22.34-2.41,33.52-3.52,7.49-.75,14,1,19,7.11,3.48,4.23,8.16,5.56,13.44,5.23a69.12,69.12,0,0,0,7.47-.55,137.8,137.8,0,0,1,54.61,1.69c4.06.92,8.23,1.39,12.25,2.48a37.54,37.54,0,0,0,22.18-.62c16.2-5.43,32.67-10.24,48.42-16.77,19.72-8.16,40.26-10.22,61.1-10.94a54.21,54.21,0,0,1,16,2.38c11.24,3.1,22.29,6.93,33.5,10.17,8.39,2.42,16.82,4.81,25.75,4q11.8-1,23.64-1.72c15.77-.9,31.54-.53,47.33-.15,24.59.59,49.21.21,73.82,0a50.41,50.41,0,0,1,20.69,3.75c9.58,4.08,19.51,7.33,29.3,10.92a52.39,52.39,0,0,0,18.4,3c26.28-.06,52.56.19,78.83,0a74,74,0,0,0,17.18-2.67c12.93-3.25,25.79-6.84,38.61-10.5a42.71,42.71,0,0,1,22.19-.19c10.53,2.5,21.18,4.64,31.88,6.21,15.32,2.25,30.35,5.21,44.47,11.91a57.93,57.93,0,0,0,11.9,3.82,28.77,28.77,0,0,0,9.86.9c8.67-1.08,17.34-2.36,25.87-4.21,14.71-3.19,29.42-5.82,44.56-5.39a118,118,0,0,0,12.47-.7c6.63-.51,13.26-1.6,19.88-1.58,13.41.05,26.56-2.17,39.76-3.88a172.38,172.38,0,0,1,46.11-.18,45.48,45.48,0,0,0,18.47-.9c13.76-3.65,27.71-5.88,42-5.25a36.46,36.46,0,0,0,10-.55c8.65-2,17.39-1.81,26.14-1.81,11.68,0,23.36.06,35,.1a25.94,25.94,0,0,1-4,16.65c-5.43,8.89-10.22,18.16-15.33,27.25-8.53,15.22-20.72,27.48-34.5,37.5-15.15,11-32.33,19.18-49.84,26-19,7.38-38.54,13.62-57.85,20.31a86.26,86.26,0,0,1-30.7,5.05c-8.33-.21-16.71-.23-25,.34-18.27,1.26-36.5,3-54.75,4.47-12,1-24.12,1.49-36.08,3-10.71,1.38-21.32,3.7-31.9,6-7.72,1.65-15.22,4.4-23,5.77-27.53,4.88-55,9.76-81.62,18.69q-10.08,3.39-20.42,6c-13,3.18-25.93,6.37-39.46,5.88a75.06,75.06,0,0,0-8.73.64c-6.63.56-13.25,1.57-19.89,1.63-13.74.12-27.54.88-41.16-2a37.53,37.53,0,0,0-7.49-.31c-13.35,0-26.71-.1-40.06,0a75.23,75.23,0,0,0-11.22.7,539.11,539.11,0,0,0-69.4,16.08c-10.13,3-18.64,8.49-27.31,17.29,3.52.07,5.5.56,7.18.07q17.4-5.16,34.68-10.67c22-7.07,44.65-9.91,67.63-11.11,22.71-1.18,44.77,3.69,67.09,6.28,14.46,1.68,28.87,4.52,43.52,3.73,7.89-.43,15.76-1.27,23.61-2.23,16.94-2.08,33.93-3.92,50.77-6.63,26.77-4.31,53.22-10.29,79.42-17.25,20.65-5.49,41.53-8.91,62.93-8.94a30.65,30.65,0,0,0,7.46-.65c9-2.28,18.25-1.63,27.41-1.7,1.5,0,3.45-.46,4.27,2.47-6.22,5.81-14,10-21.77,13.48-23.25,10.3-46.81,19.91-70.27,29.75-16.14,6.77-32.63,12.63-47.93,21.43-24.47,14.08-45.74,31.94-65,52.36-17,18-30.72,38.36-42.68,59.94a43.43,43.43,0,0,0-3.68,9.25,3.49,3.49,0,0,0,2,4.5,3.75,3.75,0,0,0,1,.22c4.21-1.55,5.49-5.89,8-9.06,12-15,23.25-30.54,35.93-44.86,18.4-20.77,41-36.65,64.49-51.14a153.49,153.49,0,0,1,38.66-17.55c17.65-5,35.54-9.18,53.46-13.14,20.45-4.51,40.51-9.77,59-20.12,19.74-11.08,40.89-18.89,62.52-25.36,22.77-6.81,45.71-13.08,68.46-20,18-5.45,36-10.59,52.92-19,9.69-4.84,19.72-9,29.62-13.44,1.94-.87,4-1.42,6.07,1.15-.39,1.56-.56,3.68-1.43,5.45-7,14.21-13.58,28.71-21.43,42.46-15.1,26.42-30.91,52.45-46.51,78.59-11.14,18.68-23.68,36.24-39.61,51.31-12.72,12-25,24.56-37.21,37.14a352.41,352.41,0,0,1-41.36,36.21c-18.63,14-37.18,28.13-57.87,39.31-14.62,7.91-28.52,17.32-42.06,27-12.18,8.71-23.69,18.29-32.66,30.71-5.83,8.07-12.85,15.33-19.75,22.56q-14.24,15-29.16,29.27a141.62,141.62,0,0,1-16.39,13.44c-9.88,7-20.26,13.25-30.11,20.28-5,3.6-9.48,8.09-14,12.39-1.84,1.76-3.06,4.31-1.14,6.7s4.54,2,6.93,1a69.45,69.45,0,0,0,9-4.31c9-5.27,18-10.6,26.82-16.1a137.57,137.57,0,0,0,27.44-21.62c12.39-13,25.27-25.48,37.86-38.27,2.92-3,5.55-6.21,8.2-9.43,15.91-19.37,35.62-33.75,58.18-44.38,23.4-11,47-21.52,68.84-35.65,8.74-5.66,18-10.49,27.1-15.6,1.29-.72,2.91-.82,5-1.38,0,3.24.45,5.76-.07,8.05a192.42,192.42,0,0,0-4.28,44.71c.08,7.45-1,14.93-1.7,22.38-.94,9.53-2.63,19-3,28.56-.7,17.5-1.13,35.08,2.76,52.33,2.75,12.17,4.45,24.66,9.87,36.11.7,1.47,1.48,3,4.27,1.61a33.49,33.49,0,0,0,0-4.48c-2.2-17.34-4.51-34.67-6.66-52a31.91,31.91,0,0,1,0-8.73c1.68-10.7,2.92-21.54,5.66-32a440.93,440.93,0,0,0,8.89-45.36c3.08-20.09,9.17-38.93,22.33-54.92a37.54,37.54,0,0,0,3.44-5.21c9.27-16.42,21.33-30.83,32.56-45.86,11.5-15.4,25-29.09,37.16-43.85,1.21-1.46,3.27-2.21,5.29-3.51a63.15,63.15,0,0,1,4.63,4.77c4.09,5.25,8.53,10.33,12,16a152.32,152.32,0,0,1,10,20c1.76,4.17,2.18,8.89,3.41,13.31,8.22,29.8,17.36,59.3,31.63,86.85,11.75,22.67,25.69,43.89,44.43,61.63,9.09,8.6,17.82,17.59,26.66,26.46a86.51,86.51,0,0,1,7.63,8.27c14.44,18.85,29.24,37.45,41.31,58,13.83,23.53,25.45,47.8,28.66,75.44,1.15,9.89,3.77,19.64,6.09,29.36.93,3.91,4,6.09,5.91,5.18,2.86-1.37,2.63-4.18,2.44-6.52-1-12.44-1.7-24.94-3.48-37.28a221.77,221.77,0,0,0-15.71-56.43c-9.91-23-19.61-46-33.17-67.17-9.22-14.39-17-29.69-27.65-43.18-2.26-2.85-3.45-6.55-5.14-9.86l.14-.14c10.84,6.16,21.82,12.08,32.49,18.53,17.14,10.36,33.14,22.38,49.36,34.11,18.58,13.44,37.73,26,59.3,34.57a186.57,186.57,0,0,1,41.46,23.12c22.62,16.61,41.89,36.85,60.49,57.77,6.08,6.84,12.53,13.38,19.08,19.78,2.24,2.19,5,4.44,8.86,2.77,1.07-4.48-2-7-4.28-9.82-7-8.76-14.79-17-21.11-26.29-12.33-18-27.72-33.38-42.66-49a254.64,254.64,0,0,0-47.57-38.43c-19.12-12.14-36.14-26.72-52.33-42.47a347.22,347.22,0,0,0-29.37-25.21c-12.18-9.44-25-18-37.45-27.16a139.54,139.54,0,0,1-14.55-11.79c-27.37-26.47-52.35-54.84-71.28-88.19-5.59-9.84-10.81-19.51-12.87-30.85-2.66-14.57-8.54-27.83-18.41-39.16a41.86,41.86,0,0,1-9.19-18.94c-1.24-5.7-2.74-11.35-4.13-17a37.25,37.25,0,0,1,3-26.79,144.61,144.61,0,0,1,27.12-35.56c.22-.21.78-.08,1.93-.16,3.87,2.26,5,6.86,6.58,11,7.33,20,14.32,40.05,21.76,60,6.08,16.29,14.45,31,30.23,40.07a27.1,27.1,0,0,1,11.38,12.89c5.14,11.41,10.82,22.58,15.57,34.14,4.22,10.27,11.35,16.3,22.19,17.79,6,.82,11,3.57,16.21,6.29,8.1,4.26,16.27,8.42,24.58,12.26,11.37,5.27,22.95,10.1,31.26,20.11a28.68,28.68,0,0,0,3.82,3.22,293.63,293.63,0,0,1,39.7,39.76c7.93,9.66,15.79,19.37,23.77,29,3.08,3.72,6.56,4.68,8.46,2.59,2.42-2.67,1.39-5.44-.09-8.07a34.14,34.14,0,0,0-3.43-5.23c-7.22-8.61-14.14-17.52-21.93-25.61a144.1,144.1,0,0,1-20-25.48c-8.27-13.72-18.38-25.73-34-32-5.35-2.14-10.06-5.88-15-9-10.57-6.69-20.79-14-31.72-20a40.65,40.65,0,0,1-18.4-19.83c-10.66-23.56-22.06-46.78-32.37-70.48a356.44,356.44,0,0,1-20.2-61.78c-2.34-10.1-1.49-19.83,1.3-29.62,1.1-3.86,3.26-6.93,6.82-8.51,6.07-2.71,12.17-5.62,18.57-7.23a33.41,33.41,0,0,1,19.74.83c7.84,2.85,15.78,5.46,23.53,8.54a60.16,60.16,0,0,1,10.9,5.92c9,6,17.47,13,27,18.07,14.65,7.8,23.22,20.06,28.49,35,9.56,27.13,18.92,54.34,25.4,82.44,3.12,13.52,8.09,26.44,17.23,37.16s19.67,20.42,32.07,27.64c10.09,5.87,20,11.92,28.87,19.67,7.83,6.87,15.7,13.68,23.52,20.56a15.76,15.76,0,0,1,2.4,2.88c5,7.2,10.13,14.28,14.82,21.67,15,23.58,29.76,47.29,44.64,70.94.66,1.05,1.65,1.9,2.28,3,2.74,4.65,5.88,9.13,8,14.06,7,16.17,10.72,33.25,13.87,50.52a160.15,160.15,0,0,0,5.66,21.75c1.13,3.4,3.64,6.48,6,9.29,1.69,2,4.22,2.72,6.45,0-2.27-10.47-4.65-21-6.82-31.54-3-14.7-6.51-29.34-8.58-44.18-1.23-8.8-3-17.28-6.44-25.34-5.85-13.8-11.11-27.94-20.48-40-1.52-2-2.4-4.38-3.58-6.58h0c2.49.2,5.12,0,7.44.68,12.93,4.12,26.21,5.08,39.6,4.26,10.52-.64,19.53,2.44,28.12,8.36,16.12,11.1,32.54,21.79,48.87,32.59,15.46,10.23,32.53,16.88,50.13,22.3,1.47.45,3.23,1.1,4.17-1.94-1.44-1-3-2.24-4.67-3.27-15.66-9.55-31.52-18.79-47-28.68-17.2-11-34.23-22.33-50.93-34.09a53.1,53.1,0,0,0-31.6-10.09c-15.68.09-30.46-4.41-45.43-8a18.66,18.66,0,0,1-5.63-2.62,79.09,79.09,0,0,1-23.2-22.46q-8-12-15.54-24.21c-5.12-8.3-11.93-15.07-19.46-21-9.48-7.5-19.28-14.57-30.42-19.61a43.33,43.33,0,0,1-22.32-22.69c-5.86-13.31-11.62-26.42-13.3-41.4-2-17.73-6.6-35.18-10.11-52.74-.65-3.23-2.16-6.49,1.55-9.71a40.42,40.42,0,0,1,5.59.57c15.84,3.65,31.75,7.08,47.47,11.23a237.47,237.47,0,0,1,28.44,9.56c20.09,8.15,39.93,16.91,59.93,25.27a73,73,0,0,1,19.16,11.51c19.06,16,41.5,21.06,65.64,17.22,15.71-2.49,31.31-4.38,47.23-4,12.09.32,24.2.25,36.3.09a63.55,63.55,0,0,1,21,2.83c10.68,3.54,21.25,7.43,31.83,11.26a18.86,18.86,0,0,1,4.38,2.4c7.13,5.08,14.31,10.1,21.3,15.37,13.63,10.28,27.25,20.6,40.71,31.12,14.62,11.43,31.68,16.37,49.6,19.1,4.52.69,7.88-1.61,8.62-5.32s-1-7.06-5.4-8.68a62.35,62.35,0,0,0-10.85-2.86,68.57,68.57,0,0,1-27.54-11.44c-7.15-5-13.63-11-20.15-16.79-10.57-9.43-20.75-19.31-31.46-28.57a136.06,136.06,0,0,0-19.16-14c-14-8.32-28.31-16.22-44.94-18-12.41-1.35-24.82-3.06-37.27-3.58-15.41-.64-30.87-.41-46.31-.17a93.84,93.84,0,0,1-25.91-3.59,310.74,310.74,0,0,1-43.53-15.59,195.22,195.22,0,0,1-19-9.58c-2.65-1.51-5.92-3.35-5.2-8,1.61-.16,3.33-.77,4.81-.41,11.51,2.81,23.23,1.72,34.88,2.22,19,.81,37.21-2.7,55.17-9s35.62-14.15,54.22-19.22c16.19-4.42,32.18-7.53,49.15-7.33,27.89.33,55.88,1.94,83.69-2.08,9.07-1.31,18.21-2.17,27.2-3.84,17.21-3.19,34.32-6.91,51.51-10.21,6.54-1.26,13.19-2.75,19.77-2.7a127.36,127.36,0,0,1,23.52,2.68c20.2,3.93,40.56,4.55,61,3.82,1.34,0,3.6.57,3.48-2.84-2.13-.62-4.4-1.45-6.74-1.91-20.44-4-41-7.57-61.3-12.13-17.81-4-35.59-4.1-53.41-1.51-13.63,2-27.17,3.91-41,3.61-17.52-.39-35-.25-52.57-.06-5.81.06-11.6,1-17.39,1.5-17.89,1.55-35.88,2.79-53.56-1-13.56-2.91-27.38-2.4-40.95-4.6a11.64,11.64,0,0,0-3.72.27c-13.14,2.25-26.26,4.29-39.06,8.43-21.51,7-43.51,11.48-66.36,10.55-24.55-1-49.16,1.1-73.72-2.24-9.83-1.34-19.94-.92-29.75-3.2-18.27-4.24-36.69-7.92-54.78-12.83-15.66-4.25-30.82-10.33-47-12.65a22.17,22.17,0,0,1-7-2.52c-6.63-3.5-13.31-7-19.69-10.89-23.48-14.5-44.42-32.45-66-49.48a56.1,56.1,0,0,1-14.68-16.89c-5.63-10.21-11.94-20.05-17.78-30.14-2.07-3.57-4.45-7.27-5.23-11.2-1.54-7.72-2.07-15.65-3-23.49,10.56-.14,20.56,3.07,30.77,5.08,3.67.73,7.57,2.5,11,1.84,7.6-1.48,14.9.15,22.33.49,6.24.28,12.75,1,18.72-.36,18.16-4.07,37.58-2.67,54.51-12.22a17.38,17.38,0,0,1,4.77-1.48c18.11-3.84,36.42-3.92,54.78-2.77,8.72.54,17.42,1.35,26.13,2,2.49.19,5.1-.19,7.48.38,11.54,2.74,23.24,1.91,34.9,2,17.1,0,34.21.26,51.31,0a90.65,90.65,0,0,1,32,4.86,49.85,49.85,0,0,0,18.44,2.82c15.8-.52,31.55.22,47.41-2,13.57-1.87,27.26-3.16,40.85-5.2s27.27-3.85,41.08-2.76c6.64.52,13.23,1.87,19.86,2.07,19.6.61,39.14.74,58.49-3.64,14.69-3.32,29.67-4.91,44.72-3.07,11.57,1.41,23.15,3,34.57,5.36a98.63,98.63,0,0,0,33.62,1.06c16.66-2.41,33.28-1.85,49.93-1.85a80.77,80.77,0,0,1,14.88,1.53c11.05,2.08,22.12,4.18,33,6.92,14.16,3.57,26.38.3,37.3-9,1.9-1.61,3.59-3.48,5.46-5.15a45.13,45.13,0,0,1,27.13-11.6,101.67,101.67,0,0,1,23.64,1,237.7,237.7,0,0,0,42.27,3.67c24.19-.28,48.39.26,72.59-.08,15.15-.22,29.85,2.18,44.56,5.3,13,2.75,26,6,39.47,2.48,2-.51,4.16-.2,6.24-.31,16.33-.87,32.4,2.21,48.55,3.69,7.21.66,13.72.87,20.76-1.49,14.49-4.84,29.42-6,44.09-.45C3750.63,3185.87,3767.48,3188.49,3784.41,3190.89Z" transform="translate(0 0.02)"/><path class="cls-15" d="M3784.41,3190.89c-16.93-2.4-33.78-5-49.92-11.12-14.67-5.54-29.6-4.39-44.09.45-7,2.36-13.55,2.15-20.76,1.49-16.15-1.48-32.22-4.56-48.55-3.69-2.08.11-4.26-.2-6.24.31-13.44,3.47-26.48.27-39.47-2.48-14.71-3.12-29.41-5.52-44.56-5.3-24.2.34-48.4-.2-72.59.08A238.63,238.63,0,0,1,3416,3167a101.67,101.67,0,0,0-23.64-1,45.13,45.13,0,0,0-27.13,11.6c-1.87,1.67-3.56,3.54-5.46,5.15-10.92,9.25-23.14,12.52-37.3,9-10.89-2.74-22-4.84-33-6.92a80.77,80.77,0,0,0-14.88-1.53c-16.65,0-33.27-.56-49.93,1.85a98.63,98.63,0,0,1-33.62-1.06c-11.42-2.31-23-4-34.57-5.36-15-1.84-30-.25-44.72,3.07-19.35,4.38-38.89,4.25-58.49,3.64-6.63-.2-13.22-1.55-19.86-2.07-13.81-1.09-27.48.71-41.08,2.76s-27.28,3.33-40.85,5.2c-15.86,2.18-31.61,1.44-47.41,2a49.85,49.85,0,0,1-18.44-2.82,90.65,90.65,0,0,0-32-4.86c-17.1.28-34.21.07-51.31,0-11.66,0-23.36.79-34.9-2-2.38-.57-5-.19-7.48-.38-8.71-.64-17.41-1.45-26.13-2-18.36-1.15-36.67-1.07-54.78,2.77a17.38,17.38,0,0,0-4.77,1.48c-16.93,9.55-36.35,8.15-54.51,12.22-6,1.34-12.48.64-18.72.36-7.43-.34-14.73-2-22.33-.49-3.42.66-7.32-1.11-11-1.84-10.21-2-20.21-5.22-30.77-5.08-2.8-.67-5.83-2.37-8.36-1.82-14.44,3.19-29,1.39-43.52,1.8-5.4.16-11,.66-16.17-.49-10.74-2.37-21.49-1.92-32.29-1.83-11.68,0-23.36-.1-35-.1-8.75,0-17.49-.23-26.14,1.81a36.46,36.46,0,0,1-10,.55c-14.32-.63-28.27,1.6-42,5.25a45.48,45.48,0,0,1-18.47.9,172.38,172.38,0,0,0-46.11.18c-13.2,1.71-26.35,3.93-39.76,3.88-6.62,0-13.25,1.07-19.88,1.58a118,118,0,0,1-12.47.7c-15.14-.43-29.85,2.2-44.56,5.39-8.53,1.85-17.2,3.13-25.87,4.21a28.77,28.77,0,0,1-9.86-.9,57.93,57.93,0,0,1-11.9-3.82c-14.12-6.7-29.15-9.66-44.47-11.91-10.7-1.57-21.35-3.71-31.88-6.21a42.71,42.71,0,0,0-22.19.19c-12.82,3.66-25.68,7.25-38.61,10.5a74,74,0,0,1-17.18,2.67c-26.27.24-52.55,0-78.83.05a52.39,52.39,0,0,1-18.4-3c-9.79-3.59-19.72-6.84-29.3-10.92a50.41,50.41,0,0,0-20.69-3.75c-24.61.16-49.23.54-73.82-.05-15.79-.38-31.56-.75-47.33.15q-11.82.67-23.64,1.72c-8.93.8-17.36-1.59-25.75-4-11.21-3.24-22.26-7.07-33.5-10.17a54.21,54.21,0,0,0-16-2.38c-20.84.72-41.38,2.78-61.1,10.94-15.75,6.53-32.22,11.34-48.42,16.77a37.54,37.54,0,0,1-22.18.62c-4-1.09-8.19-1.56-12.25-2.48a137.8,137.8,0,0,0-54.61-1.69,69.12,69.12,0,0,1-7.47.55c-5.28.33-10-1-13.44-5.23-5-6.06-11.55-7.86-19-7.11-11.18,1.11-22.37,2.1-33.52,3.52-14.44,1.83-28.85,4-43.27,6.07-4.24.6-8.18-.35-12.21-1.78-5.85-2.07-11.9-3.54-17.87-5.27-2.8-5.55-5.79-11-8.36-16.68-7.21-15.89-14.34-31.81-21.26-47.83-1.79-4.14-2.69-8.66-4-13,9.2.82,18.24-.22,27.39-1.4,22.33-2.88,44.69-5.46,67.32-2.3a93.15,93.15,0,0,0,23.71.08,74.28,74.28,0,0,1,36.8,4.9,71,71,0,0,0,19.34,4.53,183.38,183.38,0,0,1,23.36,4.37c14.91,3.49,29.9,2.68,44.79.69,12.4-1.66,24.66-4.21,37.28-3.58a30.65,30.65,0,0,0,7.46-.71c22.08-4.45,44.16-8.86,66.18-13.54,9-1.91,18-3.45,27.26-3.18,11.67.33,23.38-.14,35,.45a252.41,252.41,0,0,1,26,3.18c3.25.5,6.78,1.38,9.42,3.2,9.07,6.27,19.52,6.74,29.83,7.91q19.28,2.19,38.55,4.22c4.14.43,8.32.58,12.48.85,3.32.21,6.74,0,10,.73s6.22,2.27,9.88,3.67c5.07-.66,9.71-3.63,14.09-6.67,13.46-9.34,28.1-9.54,43.21-6,5.67,1.32,11.09,3.65,16.7,5.25,4.79,1.37,9.72,2.25,14.53,3.53a79.55,79.55,0,0,1,11.87,3.69c7.5,3.29,15.18,4.06,23.25,3.48,13.72-1,27.45-1.91,41.2-2.33,9.77-.3,19-1.73,27.45-7.07,7.33-4.63,15.53-5.81,24.09-4.65,19,2.55,38,4.87,57,7.77,6.15.94,11.43.53,16.58-3.14,8-5.71,17.24-8.33,26.9-9.42,17.15-2,34.19-2.91,50,6.24,3.73,2.16,7.69,2.63,12,2.3,19.31-1.45,38.32,0,56.65,6.82,2,.73,4,1.17,5.93,2,17.51,7.36,35,5.77,52.59.23,5.54-1.75,11.31-2.73,17-4,12.19-2.8,24.43-5.41,36.57-8.42,14.36-3.55,28.7-4,43.44-2.54,15.75,1.54,31.66,1.55,47.5,1.84,3.17.06,6.47-1.43,9.55-2.61a34.86,34.86,0,0,1,20.86-1.52c6.08,1.39,12.3,2.13,18.46,3.15,4.93,4.71,10.75,5.75,17.28,4.44,4.86-1,9.78-1.7,14.69-2.43,19.09-2.85,38-2.28,56.3,4.31,4.2,1.51,8.06,1.56,11.92-.7,5.8.47,11.59,1,17.39,1.38,2.9.21,5.94.85,8.69.26,7.68-1.65,14.93.12,22.21,2,8.5,2.16,17,4,25.87,4.16,5.61.07,10.66-.61,15.18-4.4,5.66-4.75,12.35-6.06,19.77-6.22q27.51-.57,55-2.46c11.21-.79,22.32-2.36,33.63-2.35a135.2,135.2,0,0,1,31,3.23,53.83,53.83,0,0,0,17.33,1.63,43.47,43.47,0,0,1,20.8,3.3c.39.16.79.28,1.17.45,24.18,10.53,49.41,10.64,75,7.58a22.16,22.16,0,0,1,3.72-.49c17.07.84,32.82-4.86,48.68-9.92a40.73,40.73,0,0,0,9-4.09c9.3-5.75,19.26-7.35,30-6.12,8.67,1,17.43,1.28,26.15,2,4.14.33,8.28.73,12.4,1.3,12,1.67,23.9,3.53,35.87,5.11,2.43.32,5-.31,7.46-.38,3.75-.11,7.5-.24,11.25-.14,17.49.49,35,1.19,52.48,1.47a27.16,27.16,0,0,0,10.85-2.23c13.38-5.79,26.75-5.45,40.27-.88,14.68,5,29.15,4.55,44.09.23a74.07,74.07,0,0,1,40.8-.55c9.8,2.76,18.82,2.21,28.14-.75,7.56-2.39,15.22-4.47,22.71-7a106.47,106.47,0,0,1,61.6-2.53,123.2,123.2,0,0,0,13.43,3,101.1,101.1,0,0,0,16.12,1c6.7-.2,13.35-.65,19.83,1.51a15.55,15.55,0,0,0,12.1-1.06c11.32-5.38,23.11-5.75,35.45-4.29,13.35,1.59,26.33,3.65,38.62,9.53,3.55,1.69,8.15,1.62,12.26,1.6,13.47-.06,26.63,1.55,39.4,5.93,8.3,2.84,16.93,2.93,24.32-1.46,18.91-11.25,39.12-10.58,59.52-7.46,13.57,2.08,26.94,5.44,40.32,8.56,3.73.87,7.16,1.53,11,.65a47.49,47.49,0,0,1,21.05.3c7.3,1.59,14.83,2.21,22.28,3,4.73.51,9.09-.52,12.54-4.24,6.09-6.57,14.18-8.56,22.63-9.25a188,188,0,0,1,46.14,1.47c3.25.53,6.38,1.87,9.56,2.84-.64,2.8-.92,5.74-2,8.37-9.53,23.59-19.17,47.14-30.8,69.81A10.94,10.94,0,0,1,3784.41,3190.89Z" transform="translate(0 0.02)"/><path class="cls-16" d="M2533.65,3115.71c-3.86,2.26-7.72,2.21-11.92.7-18.35-6.59-37.21-7.16-56.3-4.31-4.91.73-9.83,1.45-14.69,2.43-6.53,1.31-12.35.27-17.28-4.44-.52-27.53-.63-55.07-1.65-82.58-1.47-39.61-3.06-79.22-5.63-118.76-2.07-32-5.46-64-8.62-95.95-3.41-34.45-6.93-68.9-11-103.28-2.52-21.53-5.84-43-9.23-64.37-3.35-21.13-10.27-41.27-18-61.13-9.8-25.2-24.22-47.47-42.4-67.43-17-18.61-37.93-29.68-62.58-34.08a19.53,19.53,0,0,0-3.74-.22,13.83,13.83,0,0,0-2.46.53c-3.4,2.83-2.46,6.81-2.61,10.45-.68,17.13-2.42,34.13-6.65,50.79-11.91,47-38.52,82.86-81.58,105.64-35.84,19-74.06,30.49-114.66,32.83-24.57,1.41-49.2,2.14-73.81,2.33a505,505,0,0,0-87,8.64c-37.1,6.81-72.92,17.79-108,31.38-7,2.71-13.82,5.86-20.78,8.67a29.36,29.36,0,0,1-7.18,2,5.13,5.13,0,0,1-5.89-3.63c-.78-3.11-1.46-6.72-.62-9.66a86.44,86.44,0,0,1,6.91-17.4c9-16.47,17.92-33,27.81-49,22-35.46,44.35-70.75,69.79-103.88,28.28-36.82,59.46-71,94.78-101.3,29.67-25.43,62-46.58,98.3-61.44a205.2,205.2,0,0,1,83-15.63c30.23.6,56.12,11.09,79.15,29.91,12.66,10.35,24.26,21.79,33.8,35.06,4,5.65,8.66,7.9,15.54,8.52,26.56,2.4,51.66,9.69,73.75,25.24,6.12,4.31,11.59,9.53,17.47,14.18,1.42,1.13,3.32,1.64,5.74,2.79.7-5.79-.91-10.17-2.06-14.47-6.06-22.57-12.34-45.07-18.56-67.59-9.56-34.65-21.93-68.34-35.42-101.61-10.21-25.14-21.42-49.9-35.78-73-7.48-12-16.3-23.19-24.66-34.64-1.67-2.29-4-4.08-6.26-6.29-10.72,3.47-19.91,9.22-28.88,15.15-49.18,32.53-101.88,56.62-159.56,70.07a444.47,444.47,0,0,1-121.7,11.49c-44.46-2-87.48-11.44-129.59-26.1-53.6-18.67-99-49.58-138.61-89.51a416.49,416.49,0,0,1-48-57.68c-16-23.28-27.42-48.61-35.64-75.56a273.64,273.64,0,0,1-9.27-41.47,63.32,63.32,0,0,1-.49-12.46c.26-4.23,3.35-6.8,7.67-6.47a57.86,57.86,0,0,1,11,2c16.06,4.39,32.28,3.82,48.44,1.21,23.94-3.87,47.14-10.82,70.22-18.17,28.62-9.12,57.1-18.73,85.92-27.18,26.4-7.75,53-15,80.15-19.76,71.23-12.5,139.53-4.57,204.77,27.61a437.14,437.14,0,0,1,69.14,42.64c38.54,28.92,66.87,66.11,88.17,109a62.62,62.62,0,0,0,4,7.77c1.06,1.55,2.9,3.51,4.47,3.58,3.09.13,3.45-3,4-5.37.29-1.21.43-2.46.62-3.7,5-32.28,14.39-63.44,24.66-94.36,10-30.2,22.75-59.25,39.23-86.47,16-26.48,34.58-51.11,57.21-72.52,29.49-27.91,63.7-46.81,103.38-55.73a157.11,157.11,0,0,1,42.25-3.83c1.67.08,3.35.06,5,.3,2.9.41,6,.87,7.38,3.88,1.49,3.24-.75,5.54-2.69,7.73-2.49,2.81-5,5.66-7.63,8.28-16.29,16-23.44,36.1-26.38,58.15a304.87,304.87,0,0,0-2.62,48.69q1.39,50.67,2.3,101.36c.4,23.37.28,46.72-2.18,70-2.85,27-9.75,52.42-24.91,75.28-17.34,26.14-41.18,43.26-71.1,52.24a118.11,118.11,0,0,1-71.44-.71c-3-.93-5.9-3.36-9.82-.55a49.35,49.35,0,0,0,3.18,5.14c30.93,38.81,54.45,81.84,73.72,127.45,28.7,67.92,48.88,138.42,65,210.2,4.74,21.17,8.67,42.51,13,63.77.65,3.21.61,6.74,4.56,9.36.88-1.78,2.25-3.38,2.43-5.1,1.89-17.42,3.59-34.86,5.32-52.29,4.73-47.75,9.75-95.46,16.63-143,.18-1.24.26-2.51.56-3.72,3.14-12.62,1.7-24-5.4-35.6-8.3-13.57-12.3-29.17-14.35-45-2.79-21.61,3.46-41.28,13.16-60.19a133.27,133.27,0,0,1,31.35-40.24c5.67-4.9,8.73-10.78,10.44-17.94,8.14-34.08,16-68.25,25-102.11,14-52.45,30.48-104.1,51.56-154.21a1530.63,1530.63,0,0,1,89.27-177.77q12.3-21.07,24.41-42.27c1.21-2.12,2.08-4.44,3.41-7.31-2.82-1.69-5.07-3.42-7.6-4.5a315.39,315.39,0,0,1-44.19-23.43c-52.66-33.17-85.52-81-103.27-139.83-5.06-16.76-8.8-33.92-13.38-50.84-5-18.52-10-37-15.58-55.42a147,147,0,0,0-9-22,59.13,59.13,0,0,0-24.28-26.25,77.08,77.08,0,0,1-9.26-6.36,3.69,3.69,0,0,1,.81-6.23,38.22,38.22,0,0,1,9.43-3c17.42-2.48,34.92-3.13,52.35-.36,23.64,3.76,46.25,11.28,67.91,21.23,36.13,16.61,70.34,36.5,101.28,61.75a261.41,261.41,0,0,1,68.59,85.17c1.85,3.64,3.86,7.19,6.12,11.36,3.81-1.25,7-1.94,9.9-3.31a251.23,251.23,0,0,1,82.66-23.67c20.72-2.14,41.62-2.62,62.45-3.46,26.27-1.06,52.61-.88,78.8-2.84,21.58-1.61,43-5.57,64.48-8.45,10.41-1.4,20.5-3.83,29.85-8.81a22.13,22.13,0,0,1,4.64-1.85c5.55-1.52,10.53,1,11.32,6.67a31.94,31.94,0,0,1-.77,13.51c-3.58,11.53-7.32,23.1-12.18,34.13-8.23,18.71-16.9,37.26-26.27,55.42-8.8,17-18.65,33.55-28.19,50.21-15.15,26.43-30.08,53-47.92,77.77a277,277,0,0,1-33,37.61c-15.42,14.84-34.26,23.61-54.66,29.17-32.85,9-65.87,9.74-99,1.47-20.74-5.18-40.77-12-59.18-23.21-9.36-5.72-17.49-12.83-25.49-20.11-7.09-6.46-13.64-13.51-20.44-20.28-1.74-1.72-3.53-3.39-4.93-4.74-4.61.18-5.16,3.53-6.21,6-7,16.51-13.84,33.1-20.72,49.67q-33.15,79.82-59.58,162.11A1852.5,1852.5,0,0,0,2603,2164.12c-.51,2.38-.57,4.85-1,8.52,2.81-.94,4.75-1.21,6.28-2.15a782,782,0,0,1,144.28-69c11-4,22.09-7.57,33.23-11.08a35.67,35.67,0,0,1,9.74-1.35c2.43-.06,4.27,3.62,2.92,5.71a33.61,33.61,0,0,1-5.41,6.76c-12.11,10.91-19.75,24.66-25.58,39.58-9.62,24.6-15.66,50.16-20,76.14-2.61,15.63-4.81,31.33-7.11,47a55.1,55.1,0,0,0,0,6.8c3.11-.22,5.57,0,7.79-.61,29.06-8,58.75-12.48,88.68-15.38,33.67-3.25,67.41-5.72,101.23-3.07,40.42,3.17,80.5,8.66,119.28,21.12,24.23,7.79,48.86,14.7,72.31,24.41,39.79,16.47,78.09,36,111.22,64.26a125.66,125.66,0,0,1,10.13,9.31c3.28,3.49,8.9,6.26,7,12.22-1.66,5.16-7.26,4.94-11.58,6-11,2.58-22,4.87-33,7.34-11.39,2.56-22.79,5.13-34.16,7.83-3.61.86-7.11,2.15-11.39,3.47.84,2.75,1.37,5,2.26,7.21a24.46,24.46,0,0,0,2.63,4.25c25.23,36.69,40.26,77.61,49.83,120.75,7.34,33,13.24,66.3,14.91,100.14.89,17.91.72,35.88,1,53.82.12,8.76.18,17.53.09,26.29a30.25,30.25,0,0,1-1,8.63c-1.4,4.55-6.88,6.81-11.27,5a19.65,19.65,0,0,1-4.25-2.59c-38.75-29.63-82-51.2-126.34-70.9-21.72-9.66-43.73-18.69-65.35-28.59-24.35-11.14-47-25.23-68.81-40.81-14.63-10.48-28.47-21.86-40-35.84a22.39,22.39,0,0,0-2.73-2.42c-4.52-.49-6.81,3-9.61,5.23-21.42,17.34-43.1,34.32-66.14,49.48-16.08,10.59-32.88,19.79-51,26.49-32.77,12.12-62.91,8.51-90.39-14.11-20-16.5-38.12-35-55.89-53.78-6-6.37-12.33-12.45-18.58-18.59a31.16,31.16,0,0,0-4.47-3c-2,1.84-3.86,3.38-5.46,5.2a188.7,188.7,0,0,0-24.21,34.91c-23.61,43.68-39,90.17-48.84,138.78-4.91,24.29-6.54,48.72-7.55,73.33-2.17,52.94-4.6,105.87-6.59,158.82-.44,11.64.63,23.33.8,35,.29,19.19.33,38.39.61,57.59q.39,26.91,1.11,53.82C2532.7,3106.58,2533.28,3111.14,2533.65,3115.71Zm-748.15-421h-2.42c-.8,1.69-1.6,3.37-2.41,5.06-.2.64-.41,1.28-.62,1.92.19-.66.38-1.31.56-2Zm-197.66-701.19c3.73,6.21,9.08,10.87,14.91,14.93,25,17.39,52.79,28.32,82.24,35.28,20.75,4.9,41.88,6.74,63.13,7.55,2.09.08,4.16.29,6.24.44,8.71.67,17.41,1.39,26.12,2,3.74.25,7.6-.35,11.24.35,16.54,3.18,33.25,1.75,49.89,2.26,5,.15,10,.46,15,.81,6.22.43,12.43,1.35,18.65,1.39,38.36.21,76.73.22,115.1.33,3.75,0,7.51.06,11.25.36,18.24,1.43,36.45,3.39,54.72,4.31a427.84,427.84,0,0,1,53.28,6.33c33.24,5.91,66.35,12.72,97.6,26.23a15.56,15.56,0,0,0,4.75,1.49c1.8.13,3.63-.41,6-.73-.66-2.51-.79-4.22-1.51-5.62-4.21-8.13-8.19-16.4-12.93-24.21-8.46-13.94-19.45-25.93-29.88-38.41-13.5-16.16-30.1-28.71-45.31-42.86-.3-.28-.69-.46-1-.72-23.13-18.42-49.48-30.76-77.1-40.62a284.31,284.31,0,0,0-65.59-15.35c-14.45-1.53-28.89-3.82-43.57-3.22-14.14.58-28.23.71-42.39,2.06-16.64,1.59-33.2,3.59-49.36,7.41-23.9,5.65-47.61,12.28-71.09,19.49-25.51,7.83-50.64,16.85-76,25.25-27.87,9.24-56.79,13-85.84,15.72-5.3.5-10.76-.66-16.14-1.09Zm1318.26,267.2c-12.7,1-25.55,2.9-38.41,2.94-21.35.07-42.5,2.44-63.38,6-36.21,6.14-71.92,14.61-106,28.85-19.29,8.06-38.29,16.76-56.12,27.56-30.43,18.43-58.29,40.28-82.44,66.62a135.28,135.28,0,0,0-22.77,34.24,20.24,20.24,0,0,0-1.72,6,4.82,4.82,0,0,0,4.31,5.3,4.71,4.71,0,0,0,2.37-.35,78,78,0,0,0,8.63-5c13.43-8.41,26.49-17.48,40.31-25.17,41.46-23,85.8-39,131.58-50.79a815.64,815.64,0,0,1,114.26-20.71,748.47,748.47,0,0,1,91.05-4.6c12.93.15,25.88-.26,38.8.2,17.06.61,34.12,1.5,51.13,2.87,13.68,1.1,27.31,3,40.93,4.72,14.46,1.85,29,3.46,43.3,6a1057.69,1057.69,0,0,1,104.69,24.51,34.47,34.47,0,0,0,8.55,1.44,5.26,5.26,0,0,0,4-2.22c.65-1.17.58-3.63-.25-4.54a48.05,48.05,0,0,0-9.15-8.35c-15.77-10.16-31.43-20.56-47.72-29.83a351.94,351.94,0,0,0-42.61-21.06c-31.36-12.61-63.41-23.34-96.65-30-18-3.61-35.92-7.17-54.19-9.32-10.39-1.22-20.76-1.58-31.13-2.4s-20.75-1.94-31.4-2.91Zm230.77-715c-2.7-3.25-5-1.94-7.35-1.09-7.41,2.74-14.68,6-22.24,8.16-18.51,5.39-37.51,7.47-56.76,7.53-5,0-10,.29-15,.63-7,.47-14.07,1.38-21.12,1.62-9.16.29-18.34.21-27.51.11a763.89,763.89,0,0,0-96,4.65,219.62,219.62,0,0,0-53.31,12.54,105.17,105.17,0,0,0-45,32.59,314.47,314.47,0,0,0-25.47,37c-16.74,28-24.82,58.08-22.22,90.75.59,7.48,1.85,14.93,6,21.44,1.4,2.19,3.66,3.9,6.29,2.9a8.53,8.53,0,0,0,4.27-4c2.09-4.51,3.38-9.39,5.48-13.89,8.74-18.68,23.94-32,39.2-44.83a226.75,226.75,0,0,1,52.75-33.25c18.61-8.38,37.11-17,55.93-24.91,31.54-13.19,63.72-24.67,96.09-35.68,16.55-5.63,33.08-11.61,49-18.85,21.24-9.66,41.89-20.62,62.7-31.2a73.23,73.23,0,0,0,11.4-7.53c1.41-1.12,2-3.28,2.84-4.7Zm-895,901.92c0-1.67.33-2.69,0-3.23-14.74-21.27-32.44-39.06-57.25-48.45-16.58-6.27-33.88-9.57-51.4-8.71a201.22,201.22,0,0,0-52.62,10c-27.56,9-52.94,22.37-77.1,38.09-27.31,17.78-51.81,39.17-75.65,61.25a392.34,392.34,0,0,0-36.94,39c-10.57,12.87-22,25.06-32,38.37-21.22,28.37-41.37,57.52-59.06,88.28-4.15,7.22-8.25,14.47-12.24,21.78-.79,1.43-1,3.18,1.64,4.1,4-1.43,5.57-5.68,8-8.83,16.78-21.83,34.53-42.78,54.37-61.92,8.4-8.1,16.45-16.57,24.81-24.72,10.43-10.18,20.72-20.45,32.09-29.69,37.31-30.35,76.61-57.42,119.91-78.71a442.84,442.84,0,0,1,91.46-33.23c18.66-4.53,37.7-6.83,56.73-8.84,15.84-1.67,31.56,1.25,47.22,3.44,6,.84,11.93,2,18,2Zm982.9,263.51c1.09-11.25,2.21-22.21,3.17-33.2a42.51,42.51,0,0,0-.33-7.48c-.15-1.65-.66-3.26-.9-4.91a53.85,53.85,0,0,1-.69-6.21c-.43-16.64.25-33.31-2.61-49.86-2-11.46-2.23-23.25-4.63-34.61-4.48-21.18-9.66-42.22-15.09-63.18a273,273,0,0,0-26.3-66,204.48,204.48,0,0,0-17.78-25.61c-5.62-7.12-12.86-9.86-22.2-6.1-9.65,3.88-19.76,6.6-29.61,10a261.07,261.07,0,0,0-52.68,25.77c-7.41,4.64-7.75,7.52-2,13.65,2.86,3,5.83,6,8.88,8.81a270.12,270.12,0,0,1,32.53,36.23c17.88,24.08,35.23,48.56,52.28,73.25,12.07,17.49,23.41,35.48,34.81,53.42,15.21,23.93,30.1,48,40.63,74.54.21.57,1.24.8,2.48,1.53Zm-724.93-913.86c-4-2.41-7.8-1.81-11.44-1.22a173,173,0,0,0-41.91,12.29c-40.25,17.65-72.9,44.94-99.53,79.59a369.41,369.41,0,0,0-47.12,80.84c-20.52,48.24-35.33,98-41.54,150.13-.34,2.8-2,5.73.7,8.21,1.7,1.58,5.06.22,8.52-3.4,1.14-1.21,2.18-2.52,3.22-3.82a282.83,282.83,0,0,0,27.87-43c11.61-21.69,22.83-43.59,34-65.5a820,820,0,0,1,54.68-92.55,524.7,524.7,0,0,1,107.55-114.3C2497,1802.9,2500.23,1801.93,2499.84,1797.29ZM2524,1412.94c.72,4.54,4.8,5.43,8,7,9.37,4.56,19.1,8.43,28.25,13.37,10.26,5.55,19.92,12.18,30,18,24.43,14,45.11,32.82,65.62,51.74,9.46,8.72,17.63,18.85,26.38,28.34a348.8,348.8,0,0,1,32.44,41.24c12.63,18.66,24.86,37.56,35,57.71a32,32,0,0,0,3.36,5.24,4.75,4.75,0,0,0,6.71.27h0a16.87,16.87,0,0,0,2.45-2.82c8.28-12.52,16.53-25.07,27-36a6.35,6.35,0,0,0,1.5-7c-4.62-12-8.18-24.56-15.39-35.5-9.19-14-18.85-27.52-31.11-39-5.78-5.42-11.28-11.14-16.86-16.78a286,286,0,0,0-46.57-37.69c-29.42-19.32-60.68-34.94-94.83-44.33-17.81-4.89-35.83-7.76-54.35-6.74-2.7.17-5.92-.46-7.56,3Zm64.59,854c5.19.35,6.72-2.93,8.5-5.58,14-20.8,30.52-39.55,47.32-58,17.11-18.81,36.23-35.59,56.46-51,13.23-10.11,26.56-20,41.41-27.86,12.51-6.59,24.47-14.24,36.64-21.48,1.22-.72,3.18-1.3,1.78-4a20.85,20.85,0,0,0-4.58.67q-24.54,9.24-49,18.65c-43.56,16.65-82.78,41-120.35,68.18-6.07,4.4-10,9.85-11.55,17.13-.94,4.49-2.5,8.94-2.68,13.46-.49,11.71-2.8,23.12-4.73,34.61-.85,4.92-1.53,9.92.78,15.25Zm-86.32,113.35c3.12-5,3.72-9.88,4.5-14.71,3.12-19.32,6.12-38.67,9.4-58,2.3-13.55,5-27,7.47-40.57.46-2.48.82-5-3-6.48a42.39,42.39,0,0,0-5.5,4.12,102.55,102.55,0,0,0-25.86,45c-4,14.37-3.1,29-1.62,43.5.89,8.73,5,16.77,10.48,23.79C2499,2378.17,2500.48,2378.91,2502.25,2380.29Zm51.59,179.7c8.86-8.1,35-38,38.85-44.32-7.6-9.32-17.24-16.53-26.93-23.66-.8-.59-2.22-.33-3.28-.46C2559.6,2500.35,2554.89,2537.43,2553.84,2560Z" transform="translate(0 0.02)"/><path class="cls-17" d="M2436.57,3188.29c10.8-.09,21.55-.54,32.29,1.83,5.17,1.15,10.77.65,16.17.49,14.5-.41,29.08,1.39,43.52-1.8,2.53-.55,5.56,1.15,8.36,1.82.94,7.84,1.47,15.77,3,23.49.78,3.93,3.16,7.63,5.23,11.2,5.84,10.09,12.15,19.93,17.78,30.14a56.1,56.1,0,0,0,14.68,16.89c21.59,17,42.53,35,66,49.48,6.38,3.93,13.06,7.39,19.69,10.89a22.17,22.17,0,0,0,7,2.52c16.21,2.32,31.37,8.4,47,12.65,18.09,4.91,36.51,8.59,54.78,12.83,9.81,2.28,19.92,1.86,29.75,3.2,24.56,3.34,49.17,1.25,73.72,2.24,22.85.93,44.85-3.6,66.36-10.55,12.8-4.14,25.92-6.18,39.06-8.43a11.64,11.64,0,0,1,3.72-.27c13.57,2.2,27.39,1.69,41,4.6,17.68,3.79,35.67,2.55,53.56,1,5.79-.5,11.58-1.44,17.39-1.5,17.52-.19,35-.33,52.57.06,13.85.3,27.39-1.64,41-3.61,17.82-2.59,35.6-2.48,53.41,1.51,20.31,4.56,40.86,8.1,61.3,12.13,2.34.46,4.61,1.29,6.74,1.91.12,3.41-2.14,2.8-3.48,2.84-20.46.73-40.82.11-61-3.82a127.36,127.36,0,0,0-23.52-2.68c-6.58,0-13.23,1.44-19.77,2.7-17.19,3.3-34.3,7-51.51,10.21-9,1.67-18.13,2.53-27.2,3.84-27.81,4-55.8,2.41-83.69,2.08-17-.2-33,2.91-49.15,7.33-18.6,5.07-36.12,12.9-54.22,19.22s-36.13,9.79-55.17,9c-11.65-.5-23.37.59-34.88-2.22-1.48-.36-3.2.25-4.81.41-.72,4.66,2.55,6.5,5.2,8a195.22,195.22,0,0,0,19,9.58,310.74,310.74,0,0,0,43.53,15.59,93.84,93.84,0,0,0,25.91,3.59c15.44-.24,30.9-.47,46.31.17,12.45.52,24.86,2.23,37.27,3.58,16.63,1.82,30.94,9.72,44.94,18a136.06,136.06,0,0,1,19.16,14c10.71,9.26,20.89,19.14,31.46,28.57,6.52,5.83,13,11.82,20.15,16.79a68.57,68.57,0,0,0,27.54,11.44,62.35,62.35,0,0,1,10.85,2.86c4.35,1.62,6.15,4.91,5.4,8.68s-4.1,6-8.62,5.32c-17.92-2.73-35-7.67-49.6-19.1-13.46-10.52-27.08-20.84-40.71-31.12-7-5.27-14.17-10.29-21.3-15.37a18.86,18.86,0,0,0-4.38-2.4c-10.58-3.83-21.15-7.72-31.83-11.26a63.55,63.55,0,0,0-21-2.83c-12.1.16-24.21.23-36.3-.09-15.92-.41-31.52,1.48-47.23,4-24.14,3.84-46.58-1.24-65.64-17.22a73,73,0,0,0-19.16-11.51c-20-8.36-39.84-17.12-59.93-25.27a237.47,237.47,0,0,0-28.44-9.56c-15.72-4.15-31.63-7.58-47.47-11.23a40.42,40.42,0,0,0-5.59-.57c-3.71,3.22-2.2,6.48-1.55,9.71,3.51,17.56,8.12,35,10.11,52.74,1.68,15,7.44,28.09,13.3,41.4a43.33,43.33,0,0,0,22.32,22.69c11.14,5,20.94,12.11,30.42,19.61,7.53,6,14.34,12.73,19.46,21s10.21,16.24,15.54,24.21a79.09,79.09,0,0,0,23.2,22.46,18.66,18.66,0,0,0,5.63,2.62c15,3.63,29.75,8.13,45.43,8a53.1,53.1,0,0,1,31.6,10.09c16.7,11.76,33.73,23.07,50.93,34.09,15.44,9.89,31.3,19.13,47,28.68,1.68,1,3.23,2.26,4.67,3.27-.94,3-2.7,2.39-4.17,1.94-17.6-5.42-34.67-12.07-50.13-22.3-16.33-10.8-32.75-21.49-48.87-32.59-8.59-5.92-17.6-9-28.12-8.36-13.39.82-26.67-.14-39.6-4.26-2.32-.73-5-.48-7.44-.68l-.4-.45.43.42c1.18,2.2,2.06,4.63,3.58,6.58,9.37,12,14.63,26.17,20.48,40,3.41,8.06,5.21,16.54,6.44,25.34,2.07,14.84,5.56,29.48,8.58,44.18,2.17,10.56,4.55,21.07,6.82,31.54-2.23,2.73-4.76,2-6.45,0-2.38-2.81-4.89-5.89-6-9.29a160.15,160.15,0,0,1-5.66-21.75c-3.15-17.27-6.91-34.35-13.87-50.52-2.12-4.93-5.26-9.41-8-14.06-.63-1.07-1.62-1.92-2.28-3-14.88-23.65-29.67-47.36-44.64-70.94-4.69-7.39-9.85-14.47-14.82-21.67a15.76,15.76,0,0,0-2.4-2.88c-7.82-6.88-15.69-13.69-23.52-20.56-8.82-7.75-18.78-13.8-28.87-19.67-12.4-7.22-22.83-16.82-32.07-27.64s-14.11-23.64-17.23-37.16c-6.48-28.1-15.84-55.31-25.4-82.44-5.27-14.94-13.84-27.2-28.49-35-9.5-5.06-17.93-12.11-27-18.07a60.16,60.16,0,0,0-10.9-5.92c-7.75-3.08-15.69-5.69-23.53-8.54a33.41,33.41,0,0,0-19.74-.83c-6.4,1.61-12.5,4.52-18.57,7.23-3.56,1.58-5.72,4.65-6.82,8.51-2.79,9.79-3.64,19.52-1.3,29.62a356.44,356.44,0,0,0,20.2,61.78c10.31,23.7,21.71,46.92,32.37,70.48a40.59,40.59,0,0,0,18.32,19.65c10.93,6,21.15,13.34,31.72,20,4.93,3.13,9.64,6.87,15,9,15.63,6.27,25.74,18.28,34,32a144.1,144.1,0,0,0,20,25.48c7.79,8.09,14.71,17,21.93,25.61a33.87,33.87,0,0,1,3.48,5.38c1.48,2.63,2.51,5.4.09,8.07-1.9,2.09-5.38,1.13-8.46-2.59-8-9.61-15.84-19.32-23.77-29A293.63,293.63,0,0,0,2636,3588a28.68,28.68,0,0,1-3.82-3.22c-8.31-10-19.89-14.84-31.26-20.11-8.31-3.84-16.48-8-24.58-12.26-5.19-2.72-10.24-5.47-16.21-6.29-10.84-1.49-18-7.52-22.19-17.79-4.75-11.56-10.43-22.73-15.57-34.14a27.1,27.1,0,0,0-11.38-12.89c-15.78-9-24.15-23.78-30.23-40.07-7.44-19.93-14.43-40-21.76-60-1.53-4.17-2.71-8.77-6.58-11-1.15.08-1.71,0-1.93.16a144.61,144.61,0,0,0-27.12,35.56,37.25,37.25,0,0,0-3,26.79c1.39,5.68,2.89,11.33,4.13,17a41.86,41.86,0,0,0,9.19,18.94c9.87,11.33,15.75,24.59,18.41,39.16,2.06,11.34,7.28,21,12.87,30.85,18.93,33.35,43.91,61.72,71.28,88.19a139.54,139.54,0,0,0,14.55,11.79c12.44,9.13,25.27,17.72,37.45,27.16a347.22,347.22,0,0,1,29.37,25.21c16.19,15.75,33.21,30.33,52.33,42.47a255,255,0,0,1,47.57,38.43c14.94,15.6,30.33,31,42.66,49,6.32,9.25,14.06,17.53,21.11,26.29,2.27,2.81,5.35,5.34,4.28,9.82-3.82,1.67-6.62-.58-8.86-2.77-6.55-6.4-13-12.94-19.08-19.78-18.6-20.92-37.87-41.16-60.49-57.77a186.57,186.57,0,0,0-41.46-23.12c-21.57-8.56-40.72-21.13-59.3-34.57-16.22-11.73-32.22-23.75-49.36-34.11-10.67-6.45-21.65-12.37-32.49-18.52l-.62-.47.48.6c1.69,3.31,2.88,7,5.14,9.86,10.67,13.49,18.43,28.79,27.65,43.18,13.56,21.16,23.26,44.16,33.17,67.17a221.77,221.77,0,0,1,15.71,56.43c1.78,12.34,2.49,24.84,3.48,37.28.19,2.34.42,5.15-2.44,6.52-1.9.91-5-1.27-5.91-5.18-2.32-9.72-4.94-19.47-6.09-29.36-3.21-27.64-14.83-51.91-28.66-75.44-12.07-20.55-26.87-39.15-41.31-58a86.51,86.51,0,0,0-7.63-8.27c-8.84-8.87-17.57-17.86-26.66-26.46-18.74-17.74-32.68-39-44.43-61.63-14.27-27.55-23.41-57-31.63-86.85-1.23-4.42-1.65-9.14-3.41-13.31a152.32,152.32,0,0,0-10-20c-3.45-5.66-7.89-10.74-12-16a63.15,63.15,0,0,0-4.63-4.77c-2,1.3-4.08,2-5.29,3.51-12.21,14.76-25.66,28.45-37.16,43.85-11.23,15-23.29,29.44-32.56,45.86a37.54,37.54,0,0,1-3.44,5.21c-13.16,16-19.25,34.83-22.33,54.92a452.5,452.5,0,0,1-8.89,45.36c-2.74,10.43-4,21.27-5.66,32a31.91,31.91,0,0,0,0,8.73c2.15,17.35,4.46,34.68,6.66,52a33.49,33.49,0,0,1,0,4.48c-2.79,1.36-3.57-.14-4.27-1.61-5.42-11.45-7.12-23.94-9.87-36.11-3.89-17.25-3.46-34.83-2.76-52.33.38-9.54,2.07-19,3-28.56.73-7.45,1.78-14.93,1.7-22.38a192.42,192.42,0,0,1,4.28-44.71c.52-2.29.07-4.81.07-8.05-2.09.56-3.71.66-5,1.38-9.09,5.11-18.36,9.94-27.1,15.6-21.81,14.13-45.44,24.64-68.84,35.65-22.56,10.63-42.27,25-58.18,44.38-2.65,3.22-5.28,6.47-8.2,9.43-12.59,12.79-25.47,25.29-37.86,38.27a137.57,137.57,0,0,1-27.44,21.62c-8.85,5.5-17.82,10.83-26.82,16.1a69.45,69.45,0,0,1-9,4.31c-2.39,1-5.12,1.25-6.93-1s-.7-4.94,1.14-6.7c4.51-4.3,9-8.79,14-12.39,9.85-7,20.23-13.3,30.11-20.28a141.62,141.62,0,0,0,16.39-13.44q14.92-14.3,29.16-29.27c6.9-7.23,13.92-14.49,19.75-22.56,9-12.42,20.48-22,32.66-30.71,13.54-9.68,27.44-19.09,42.06-27,20.69-11.18,39.24-25.26,57.87-39.31a352.41,352.41,0,0,0,41.36-36.21c12.21-12.58,24.49-25.1,37.21-37.14,15.93-15.07,28.47-32.63,39.61-51.31,15.6-26.14,31.41-52.17,46.51-78.59,7.85-13.75,14.4-28.25,21.43-42.46.87-1.77,1-3.89,1.43-5.45-2.12-2.57-4.13-2-6.07-1.15-9.9,4.43-19.93,8.6-29.62,13.44-16.91,8.46-35,13.6-52.92,19-22.75,6.91-45.69,13.18-68.46,20-21.63,6.47-42.78,14.28-62.52,25.36-18.47,10.35-38.53,15.61-59,20.12-17.92,4-35.81,8.15-53.46,13.14a153.48,153.48,0,0,0-38.65,17.57c-23.48,14.49-46.09,30.37-64.49,51.14-12.68,14.32-24,29.89-35.93,44.86-2.54,3.17-3.82,7.51-8,9.06a3.49,3.49,0,0,1-3.22-3.74,3.58,3.58,0,0,1,.22-1,43.43,43.43,0,0,1,3.68-9.25c12-21.58,25.65-41.93,42.68-59.94,19.31-20.42,40.58-38.28,65-52.36,15.3-8.8,31.79-14.66,47.93-21.43,23.46-9.84,47-19.45,70.27-29.75,7.82-3.46,15.55-7.67,21.77-13.48-.82-2.93-2.77-2.48-4.27-2.47-9.16.07-18.36-.58-27.41,1.7a30.65,30.65,0,0,1-7.46.65c-21.4,0-42.28,3.45-62.93,8.94a801.22,801.22,0,0,1-79.42,17.25c-16.84,2.71-33.83,4.55-50.77,6.63-7.85,1-15.72,1.8-23.61,2.23-14.65.79-29.06-2-43.52-3.73-22.32-2.59-44.38-7.46-67.09-6.28-23,1.2-45.63,4-67.63,11.11-11.51,3.7-23.08,7.23-34.68,10.67-1.68.49-3.66,0-7.18-.07,8.67-8.8,17.18-14.28,27.31-17.29a539.11,539.11,0,0,1,69.4-16.08,75.23,75.23,0,0,1,11.22-.7c13.35-.06,26.71,0,40.06,0a37.53,37.53,0,0,1,7.49.31c13.62,2.9,27.42,2.14,41.16,2,6.64-.06,13.26-1.07,19.89-1.63a75.06,75.06,0,0,1,8.73-.64c13.53.49,26.5-2.7,39.46-5.88q10.32-2.54,20.42-6c26.6-8.93,54.09-13.81,81.62-18.69,7.75-1.37,15.25-4.12,23-5.77,10.58-2.26,21.19-4.58,31.9-6,12-1.54,24-2,36.08-3,18.25-1.5,36.48-3.21,54.75-4.47,8.31-.57,16.69-.55,25-.34a86.26,86.26,0,0,0,30.7-5c19.31-6.69,38.8-12.93,57.85-20.31,17.51-6.79,34.69-14.94,49.84-26,13.78-10,26-22.28,34.5-37.5,5.11-9.09,9.9-18.36,15.33-27.25A26,26,0,0,0,2436.57,3188.29Z" transform="translate(0 0.02)"/><path class="cls-18" d="M1587.84,1993.53c4.13.37,8.27.77,12.41,1.11,5.38.43,10.84,1.59,16.14,1.09,29-2.73,58-6.48,85.84-15.72,25.34-8.4,50.47-17.42,76-25.25,23.48-7.21,47.19-13.84,71.09-19.49,16.16-3.82,32.72-5.82,49.36-7.41,14.16-1.35,28.25-1.48,42.39-2.06,14.68-.6,29.12,1.69,43.57,3.22a284.31,284.31,0,0,1,65.59,15.35c27.62,9.86,54,22.2,77.1,40.62a11.14,11.14,0,0,1,1,.72c15.21,14.15,31.81,26.7,45.31,42.86,10.43,12.48,21.42,24.47,29.88,38.41,4.74,7.81,8.72,16.08,12.93,24.21.72,1.4.85,3.11,1.51,5.62-2.39.32-4.22.86-6,.73a15.56,15.56,0,0,1-4.75-1.49c-31.25-13.51-64.36-20.32-97.6-26.23a427.84,427.84,0,0,0-53.28-6.33c-18.27-.92-36.48-2.88-54.72-4.31-3.74-.3-7.5-.35-11.25-.36-38.37-.11-76.74-.12-115.1-.33-6.22,0-12.43-1-18.65-1.39-5-.35-10-.66-15-.81-16.64-.51-33.35.92-49.89-2.26-3.64-.7-7.5-.1-11.24-.35-8.71-.57-17.41-1.29-26.12-2-2.08-.15-4.15-.36-6.24-.44-21.25-.81-42.38-2.65-63.13-7.55-29.45-7-57.26-17.89-82.24-35.28-5.83-4.06-11.18-8.72-14.91-14.93Z" transform="translate(0 0.02)"/><path class="cls-19" d="M2906.07,2260.72c10.65,1,21,2,31.36,2.82s20.74,1.18,31.13,2.4c18.27,2.15,36.22,5.71,54.19,9.32,33.24,6.68,65.29,17.41,96.65,30a351.94,351.94,0,0,1,42.61,21.06c16.29,9.27,31.95,19.67,47.72,29.83a48.05,48.05,0,0,1,9.15,8.35c.83.91.9,3.37.25,4.54a5.26,5.26,0,0,1-4,2.22,34.47,34.47,0,0,1-8.55-1.44,1055.27,1055.27,0,0,0-104.74-24.53c-14.34-2.54-28.84-4.15-43.3-6-13.62-1.74-27.25-3.62-40.93-4.72-17-1.37-34.07-2.26-51.13-2.87-12.92-.46-25.87,0-38.8-.2a748.47,748.47,0,0,0-91,4.6,815.64,815.64,0,0,0-114.26,20.71c-45.78,11.8-90.12,27.74-131.58,50.79-13.82,7.69-26.88,16.76-40.31,25.17a78,78,0,0,1-8.63,5,4.84,4.84,0,0,1-6.33-2.57,5,5,0,0,1-.35-2.38,20.24,20.24,0,0,1,1.72-6,135.28,135.28,0,0,1,22.77-34.24c24.15-26.34,52-48.19,82.44-66.62,17.83-10.8,36.83-19.5,56.12-27.56,34.1-14.24,69.81-22.71,106-28.85,20.88-3.54,42-5.91,63.38-6C2880.52,2263.62,2893.37,2261.75,2906.07,2260.72Z" transform="translate(0 0.02)"/><path class="cls-19" d="M3136.84,1545.71c-.83,1.42-1.43,3.58-2.85,4.68a73.23,73.23,0,0,1-11.4,7.53c-20.81,10.58-41.46,21.54-62.7,31.2-15.89,7.24-32.42,13.22-49,18.85-32.37,11-64.55,22.49-96.09,35.68-18.82,7.87-37.32,16.53-55.93,24.91a226.75,226.75,0,0,0-52.75,33.25c-15.26,12.81-30.46,26.15-39.2,44.83-2.1,4.5-3.39,9.38-5.48,13.89a8.49,8.49,0,0,1-4.27,4c-2.63,1-4.89-.71-6.29-2.9-4.16-6.51-5.42-14-6-21.44-2.6-32.67,5.48-62.76,22.22-90.75a314.47,314.47,0,0,1,25.47-37,105.17,105.17,0,0,1,45-32.59,219.62,219.62,0,0,1,53.31-12.54,763.89,763.89,0,0,1,96-4.65c9.17.1,18.35.18,27.51-.11,7-.24,14.08-1.15,21.12-1.62,5-.34,10-.61,15-.63,19.25-.06,38.25-2.14,56.76-7.53,7.56-2.2,14.83-5.42,22.24-8.16C3131.84,1543.77,3134.14,1542.46,3136.84,1545.71Z" transform="translate(0 0.02)"/><path class="cls-19" d="M2241.84,2447.63c-6.06,0-12-1.17-18-2-15.66-2.19-31.38-5.11-47.22-3.44-19,2-38.07,4.31-56.73,8.84a442.84,442.84,0,0,0-91.46,33.23c-43.3,21.29-82.6,48.36-119.91,78.71-11.37,9.24-21.66,19.51-32.09,29.69-8.36,8.15-16.41,16.62-24.81,24.72-19.84,19.14-37.59,40.09-54.37,61.92-2.42,3.15-4,7.4-8,8.83-2.59-.92-2.43-2.67-1.64-4.1q6-11,12.24-21.78c17.69-30.76,37.84-59.91,59.06-88.28,10-13.31,21.4-25.5,32-38.37a392.34,392.34,0,0,1,36.94-39c23.84-22.08,48.34-43.47,75.65-61.25,24.16-15.72,49.54-29.08,77.1-38.09a200.81,200.81,0,0,1,52.62-10c17.52-.86,34.82,2.44,51.4,8.71,24.81,9.39,42.51,27.18,57.25,48.45C2242.16,2444.94,2241.84,2446,2241.84,2447.63Z" transform="translate(0 0.02)"/><path class="cls-19" d="M3224.73,2711.14c-1.24-.73-2.27-1-2.5-1.52-10.53-26.49-25.42-50.61-40.63-74.54-11.4-17.94-22.74-35.93-34.81-53.42q-25.5-37-52.28-73.25a270.12,270.12,0,0,0-32.53-36.23c-3-2.84-6-5.78-8.88-8.81-5.77-6.13-5.43-9,2-13.65a261.07,261.07,0,0,1,52.68-25.77c9.85-3.42,20-6.14,29.61-10,9.34-3.76,16.58-1,22.2,6.1a204.48,204.48,0,0,1,17.78,25.61,273,273,0,0,1,26.3,66.05c5.43,21,10.61,42,15.09,63.18,2.4,11.36,2.65,23.15,4.63,34.61,2.86,16.55,2.18,33.22,2.61,49.86a53.85,53.85,0,0,0,.69,6.21c.24,1.65.75,3.26.9,4.91a42.51,42.51,0,0,1,.33,7.48C3226.94,2688.93,3225.84,2699.89,3224.73,2711.14Z" transform="translate(0 0.02)"/><path class="cls-19" d="M2499.84,1797.29c.39,4.61-2.84,5.58-5,7.28a524.7,524.7,0,0,0-107.55,114.3,820,820,0,0,0-54.68,92.55c-11.2,21.91-22.42,43.81-34,65.5a282.83,282.83,0,0,1-27.87,43c-1,1.3-2.08,2.61-3.22,3.82-3.46,3.62-6.82,5-8.52,3.4-2.67-2.48-1-5.41-.7-8.21,6.21-52.16,21-101.89,41.54-150.13A369.32,369.32,0,0,1,2347,1888c26.63-34.65,59.28-61.94,99.53-79.59a173,173,0,0,1,41.91-12.29C2492,1795.51,2495.84,1794.91,2499.84,1797.29Z" transform="translate(0 0.02)"/><path class="cls-19" d="M2524,1413c1.64-3.45,4.85-2.82,7.64-3,18.52-1,36.54,1.85,54.35,6.74,34.15,9.39,65.41,25,94.83,44.33a286,286,0,0,1,46.57,37.69c5.58,5.64,11.08,11.36,16.86,16.78,12.26,11.52,21.92,25.08,31.11,39,7.21,10.94,10.77,23.45,15.39,35.5a6.35,6.35,0,0,1-1.5,7c-10.42,10.93-18.67,23.48-26.95,36a16.87,16.87,0,0,1-2.45,2.82,4.75,4.75,0,0,1-6.71-.25h0a32,32,0,0,1-3.36-5.24c-10.17-20.15-22.4-39-35-57.71a348.8,348.8,0,0,0-32.44-41.24c-8.75-9.49-16.92-19.62-26.38-28.34-20.51-18.92-41.19-37.72-65.62-51.74-10.12-5.81-19.78-12.44-30-18-9.15-4.94-18.88-8.81-28.25-13.37C2528.78,1418.4,2524.7,1417.51,2524,1413Z" transform="translate(0 0.02)"/><path class="cls-19" d="M2588.57,2267c-2.31-5.33-1.63-10.33-.81-15.22,1.93-11.49,4.24-22.9,4.73-34.61.18-4.52,1.74-9,2.68-13.46,1.52-7.28,5.48-12.73,11.55-17.13,37.57-27.23,76.79-51.53,120.35-68.18q24.49-9.37,49-18.65a20.85,20.85,0,0,1,4.58-.67c1.4,2.68-.56,3.26-1.78,4-12.17,7.24-24.13,14.89-36.64,21.48-14.85,7.82-28.18,17.75-41.41,27.86-20.23,15.43-39.35,32.21-56.46,51-16.8,18.45-33.34,37.2-47.32,58C2595.29,2264,2593.76,2267.29,2588.57,2267Z" transform="translate(0 0.02)"/><path class="cls-19" d="M2502.25,2380.29c-1.77-1.37-3.22-2.11-4.14-3.28-5.53-7-9.59-15.06-10.48-23.79-1.48-14.48-2.4-29.13,1.62-43.5a102.49,102.49,0,0,1,25.86-45,42.39,42.39,0,0,1,5.5-4.12c3.83,1.43,3.47,4,3,6.48-2.47,13.53-5.17,27-7.47,40.57-3.28,19.3-6.28,38.65-9.4,58C2506,2370.4,2505.37,2375.29,2502.25,2380.29Z" transform="translate(0 0.02)"/><path class="cls-20" d="M2553.84,2560c1-22.56,5.73-59.64,8.64-68.44,1.06.13,2.48-.13,3.28.46,9.69,7.13,19.33,14.34,26.93,23.66C2588.84,2522,2562.73,2551.89,2553.84,2560Z" transform="translate(0 0.02)"/><path class="cls-19" d="M1780.67,2699.79c.81-1.69,1.61-3.37,2.41-5.06h2.42l-4.89,5Z" transform="translate(0 0.02)"/><path class="cls-19" d="M1780.61,2699.74c-.18.66-.37,1.31-.56,2,.21-.64.42-1.28.62-1.92Z" transform="translate(0 0.02)"/><path class="cls-19" d="M1785.5,2694.75h0Z" transform="translate(0 0.02)"/><polygon class="cls-14" points="2832.52 3638.93 2832.09 3638.52 2832.49 3638.97 2832.52 3638.93"/><polygon class="cls-14" points="2514.36 3666.56 2513.88 3665.96 2514.5 3666.42 2514.36 3666.56"/><g class="cls-21"><path class="cls-22" d="M2038.09,3269.56H1975v-21.25a65.74,65.74,0,0,0-22.41,4.15,69.47,69.47,0,0,0-21.42,12.62,79.69,79.69,0,0,0-17.43,21.58q-7.47,13.13-10.79,31.05v166h58.44v57.11H1790.72v-57.11h47.48l.34-229.76h-47.82v-57.11h109.91v47.48a137.28,137.28,0,0,1,13.44-19.76,93.92,93.92,0,0,1,16.6-15.94,72.92,72.92,0,0,1,44.33-14.44h32.54q15.27,0,30.55.66Z" transform="translate(0 0.02)"/><path class="cls-22" d="M2167.91,3376.81a152.79,152.79,0,0,0,2.16,26.73,138.91,138.91,0,0,0,6.14,23.07q12.28,33.21,39.35,50t61.26,16.77a184.33,184.33,0,0,0,52.29-7.47q25.41-7.47,53.29-23.41l24.91,42.17q-33.87,23.24-68.07,34.53a225.42,225.42,0,0,1-71.06,11.29q-34.86,0-64.58-11.62a137.79,137.79,0,0,1-51.13-34.53q-21.42-22.92-33.53-57.11t-12.12-79.69a230.45,230.45,0,0,1,10.29-69.56q10.29-32.7,30.71-57.11a146.83,146.83,0,0,1,50.64-38.68q30.21-14.28,70.39-14.28,38.85,0,64.91,11.79t42.5,31.21a135.2,135.2,0,0,1,24.9,44.33A260.21,260.21,0,0,1,2413,3326q1.65,12.61,2.16,25.56t.5,25.24Zm96.62-137.13q-21.59,0-37.68,6.14a75.86,75.86,0,0,0-27.4,17.6,85.7,85.7,0,0,0-18.09,28,168.65,168.65,0,0,0-10.13,37.19h178.3a165.52,165.52,0,0,0-6.14-35.53,78.19,78.19,0,0,0-14.78-28.22,66.53,66.53,0,0,0-25.56-18.59Q2287.43,3239.68,2264.53,3239.68Z" transform="translate(0 0.02)"/><path class="cls-22" d="M2726.05,3483.72h48.48v-157q0-39.51-20.09-59.93t-57.6-20.42q-21.59,0-43.5,10.29a218,218,0,0,0-41.5,25.57v201.54h48.47v57.11h-160.7v-57.11h47.81V3254h-47.81v-57.11h109.57v40.5h.66a262.19,262.19,0,0,1,23.41-18.26,174.89,174.89,0,0,1,26.07-14.94,157.32,157.32,0,0,1,28.39-10,129.07,129.07,0,0,1,31-3.65q27.55,0,49.8,7.63a97.48,97.48,0,0,1,37.86,23.25q15.6,15.6,24.07,40T2839,3319v164.69h47.81v57.11H2726.05Z" transform="translate(0 0.02)"/><path class="cls-22" d="M2926.6,3196.85h118.87V3254h-32.21l85,237.07,83-237.07h-20.92v-57.11h108.91V3254h-29.55l-112.56,292.18h-61.1L2953.83,3254H2926.6Z" transform="translate(0 0.02)"/></g></g><polygon class="cls-23" points="4473.83 3718.43 2507.21 4855.63 539.05 3721.09 537.52 1449.35 2504.14 312.14 4472.3 1446.68 4473.83 3718.43"/><g class="cls-21"><g class="cls-21"><path class="cls-24" d="M2486.17,4714.54l10.16-5.92,28.51,28.93c4.57,4.79,8.76,9.48,13,14.29l.49-.28c-1.84-6.22-3.8-12.37-5.52-18.66l-10.72-39.28,9.68-5.64,29,28.65c4.69,4.72,9.12,9.27,13.62,13.93l.49-.28c-1.84-6.22-3.85-12.17-5.88-18.44l-11.21-39,9.44-5.5,18.51,68-12.1,7-26.86-26.64c-4.69-4.72-9-9.53-13.85-14.62l-.49.29c2.13,6.7,4.16,13,5.82,19.45l10.09,36.25-11.61,6.76Z" transform="translate(0 0.02)"/><path class="cls-24" d="M2573,4664l10.17-5.92,28.5,28.93c4.57,4.79,8.76,9.48,13,14.29l.49-.28c-1.84-6.22-3.8-12.37-5.52-18.66L2609,4643l9.68-5.64,29,28.65c4.69,4.72,9.12,9.27,13.62,13.94l.48-.28c-1.84-6.22-3.85-12.18-5.88-18.45l-11.2-39,9.43-5.5,18.51,68-12.1,7.05-26.85-26.65c-4.69-4.72-9-9.53-13.86-14.61l-.48.28c2.12,6.7,4.15,13,5.82,19.45l10.09,36.25-11.62,6.76Z" transform="translate(0 0.02)"/></g><g class="cls-21"><path class="cls-24" d="M2659.9,4613.38l10.17-5.92,28.5,28.93c4.57,4.79,8.76,9.48,13,14.29l.49-.28c-1.84-6.22-3.8-12.37-5.52-18.66l-10.72-39.28,9.68-5.63,29,28.64c4.7,4.72,9.13,9.27,13.63,13.94l.48-.29c-1.84-6.21-3.85-12.17-5.88-18.44l-11.2-39,9.43-5.5,18.51,68-12.1,7-26.85-26.65c-4.69-4.72-8.95-9.53-13.86-14.61l-.48.28c2.12,6.7,4.15,13,5.82,19.45l10.09,36.25-11.62,6.76Z" transform="translate(0 0.02)"/></g><g class="cls-21"><path class="cls-24" d="M2777.49,4615.55c-2.68-4.59-1.25-9.64,2.75-12s9-1,11.64,3.59a8.33,8.33,0,1,1-14.39,8.38Z" transform="translate(0 0.02)"/></g><g class="cls-21"><path class="cls-24" d="M2779,4544.07l8.23-4.79,7.05,10.15.36-.21c-.3-9.71,3-17.95,9.65-21.82a16.75,16.75,0,0,1,7-2.45l3.13,9.83a19.29,19.29,0,0,0-6.25,2.35c-5,2.88-8.77,10-7,22.21l22,37.75-9.92,5.78Z" transform="translate(0 0.02)"/></g><g class="cls-21"><path class="cls-24" d="M2844.28,4575.85l1.09-9.54c7.47,1.15,14.37,1,21.38-3.06,7.75-4.5,9.22-10.87,6.26-15.95-3.52-6.05-12.09-4.63-19.91-3.32-10.1,1.84-21.62,3.2-27.4-6.72-5.5-9.43-2.22-21.06,10.48-28.46a33.92,33.92,0,0,1,22.15-4l-1.06,9c-5.75-.7-11.26-.41-16.46,2.61-7.38,4.3-8.44,10.27-5.83,14.74,3.24,5.57,10.85,3.89,19,2.56,10.3-1.79,21.78-3.77,28.26,7.36,5.57,9.55,2.59,22-11.32,30.08A41,41,0,0,1,2844.28,4575.85Z" transform="translate(0 0.02)"/></g><g class="cls-21"><path class="cls-24" d="M2894.09,4531.46l-19-32.54-8.71,5.07-4.37-7.5,8.84-6-8.37-17.16,8.35-4.86,9.58,16.45,15.85-9.23,4.72,8.11-15.85,9.23,19,32.67c4.23,7.26,8.92,10,15.7,6.09a25.13,25.13,0,0,0,5.74-5.45l6.3,6.37a41.89,41.89,0,0,1-9.62,8.52C2909.74,4548.59,2900.85,4543.08,2894.09,4531.46Z" transform="translate(0 0.02)"/><path class="cls-24" d="M2930.47,4505.74l-21.7-37.26,10-5.85,20.93,35.94c6.41,11,12.42,13.82,20.16,9.31,6-3.52,8.53-9,10.08-19.15L2945.67,4447l9.92-5.77,34.24,58.8-8.23,4.79-6.2-8.7-.36.21c-1.71,9.58-5.05,17.19-13.16,21.91C2949.42,4525.49,2939.2,4520.75,2930.47,4505.74Z" transform="translate(0 0.02)"/><path class="cls-24" d="M2988.39,4461.65c-11.13-19.11-5.94-38,7.49-45.83,6.78-3.95,12.73-4,20.4-2.81l-6.33-9.76-13.17-22.62,10-5.85,50.16,86.14-8.23,4.79-4.86-6.4-.37.21c-2,7.15-6,14.69-12.92,18.7C3015.84,4486.82,2999.8,4481.25,2988.39,4461.65Zm49.81-9.88L3020.31,4421c-7.57-1.59-13-.68-17.87,2.14-9.44,5.49-11.66,18.93-3.84,32.36,8.17,14,19,19.05,29.32,13.07C3033.36,4465.44,3036.53,4460,3038.2,4451.77Z" transform="translate(0 0.02)"/><path class="cls-24" d="M3030,4373.12c-2.26-3.88-.71-8.18,3.16-10.43s8.38-1.48,10.63,2.39.71,8.18-3.16,10.43S3032.17,4376.87,3030,4373.12Zm12.59,17.45,9.92-5.78,34.24,58.8-9.92,5.78Z" transform="translate(0 0.02)"/></g><g class="cls-21"><path class="cls-24" d="M3085.17,4405.3c-11.48-19.72-5.21-38.44,9.19-46.82s33.77-4.6,45.25,15.12c11.35,19.48,5.07,38.2-9.33,46.58S3096.51,4424.78,3085.17,4405.3Zm44.16-25.71c-7.89-13.55-20-18.8-30.18-12.88s-11.59,19.05-3.7,32.6,20,18.49,30.05,12.64S3137.15,4393,3129.33,4379.59Z" transform="translate(0 0.02)"/></g><g class="cls-21"><path class="cls-24" d="M3165.36,4389.71c-2.68-4.59-1.24-9.64,2.75-12s9-1,11.65,3.58a8.34,8.34,0,1,1-14.4,8.38Z" transform="translate(0 0.02)"/></g><g class="cls-21"><path class="cls-24" d="M3178.33,4351.06c-11.48-19.72-4.85-38.65,10.28-47.46,7.74-4.51,14.89-4.46,21.19-3.1l-1.28,9.49c-5.14-1.05-10-1.12-14.76,1.63-10.65,6.2-13,19.9-5.15,33.45s20.49,18.21,31.25,11.94c5.45-3.17,8.62-8.58,10.34-14l8.23,4.12a33.19,33.19,0,0,1-14.62,18.56C3208.2,4374.81,3189.67,4370.54,3178.33,4351.06Z" transform="translate(0 0.02)"/></g><g class="cls-21"><path class="cls-24" d="M3231,4320.42c-11.48-19.72-5.21-38.44,9.19-46.83s33.77-4.59,45.25,15.13c11.34,19.48,5.07,38.19-9.33,46.58S3242.3,4339.89,3231,4320.42Zm44.16-25.72c-7.89-13.55-20-18.8-30.18-12.88s-11.59,19.06-3.7,32.61,20,18.49,30,12.64S3282.94,4308.13,3275.12,4294.7Z" transform="translate(0 0.02)"/><path class="cls-24" d="M3283.7,4250.18l8.23-4.79,5.77,8,.37-.21c1.84-8.52,5.47-16.47,12.49-20.55,9-5.22,16.26-3.8,22.76,1.81,2.3-10.25,5.67-18.37,12.81-22.52,12.1-7.05,22.55-2.44,31.29,12.56l21.7,37.26-9.92,5.78-20.93-35.94c-6.41-11-12.66-13.68-20-9.38-4.6,2.67-7.56,8.45-9.48,17.66l24.8,42.59-9.93,5.78-20.92-35.94c-6.41-11-12.66-13.68-20.16-9.31-4.36,2.53-7.56,8.45-9.48,17.67l24.8,42.58-9.93,5.78Z" transform="translate(0 0.02)"/></g></g></svg>