<?xml version="1.0" encoding="utf-8"?>
<svg viewBox="0 0 124.44 144.00" id="svg2" version="1.1" xmlns="http://www.w3.org/2000/svg">
  <defs id="defs4">
    <style type="text/css" id="style6">
    line, polyline, path, rect, circle {
      fill: none;
      stroke: #000000;
      stroke-linecap: round;
      stroke-linejoin: round;
      stroke-miterlimit: 10.00;
    }
  </style>
  </defs>
  <polyline points="2.285 37.429 2.285 106.799 62.105 141.486 121.926 106.799 121.926 37.429 62.105 2.743 2.285 37.429" style="stroke-width: 4; fill-opacity: 0.5; fill: rgb(240, 240, 240); stroke: rgb(0, 102, 153);" clip-path="url(#cpMHwxMjQuNDQxfDE0My45OTd8MC4xNDMxMzc=)" id="polyline29"/>
  <text x="0" y="50" transform="matrix(0.866025, -0.5, 0.5, 0.866026, 46.601307, 88.062561)" style="fill: rgb(0, 102, 153); font-family: sans-serif; font-size: 7px; white-space: pre;">www.ardata.fr</text>
  <text transform="matrix(0.866025, -0.5, 0.5, 0.866026, -48.563812, -33.882568)" style="fill: rgb(0, 102, 153); font-size: 17px; font-weight: bold; letter-spacing: 0.3px; white-space: pre;" x="8.134" y="104.286">flextable</text>
  <g transform="matrix(0.344828, 0, 0, 0.344828, 17.433048, 47.172382)">
    <rect x="82.382" y="-13" width="45" height="20" style="fill: rgb(235, 85, 85); stroke: none;"/>
    <rect x="132.382" y="-13" width="70" height="20" style="fill: rgb(235, 85, 85); stroke: none;"/>
    <rect x="82.382" y="12" width="20" height="20" style="fill: rgb(235, 85, 85); stroke: none;"/>
    <rect x="107.382" y="12" width="20" height="20" style="fill: rgb(235, 85, 85); stroke: none;"/>
    <rect x="132.382" y="12" width="20" height="20" style="fill: rgb(235, 85, 85); stroke: none;"/>
    <rect x="157.382" y="12" width="20" height="20" style="fill: rgb(235, 85, 85); stroke: none;"/>
    <rect x="182.382" y="12" width="20" height="20" style="fill: rgb(235, 85, 85); stroke: none;"/>
    <rect x="82.382" y="37" width="20" height="20" style="fill: rgb(71, 95, 119); stroke: none;"/>
    <rect x="107.382" y="37" width="20" height="20" style="fill: rgb(71, 95, 119); stroke: none;"/>
    <rect x="132.382" y="37" width="20" height="20" style="fill: rgb(71, 95, 119); stroke: none;"/>
    <rect x="157.382" y="37" width="20" height="20" style="fill: rgb(71, 95, 119); stroke: none;"/>
    <rect x="182.382" y="37" width="20" height="20" style="fill: rgb(71, 95, 119); stroke: none;"/>
    <rect x="82.382" y="62" width="20" height="20" style="fill: rgb(71, 95, 119); stroke: none;"/>
    <rect x="107.382" y="62" width="20" height="20" style="fill: rgb(71, 95, 119); stroke: none;"/>
    <rect x="132.382" y="62" width="20" height="20" style="fill: rgb(71, 95, 119); stroke: none;"/>
    <rect x="157.382" y="62" width="20" height="20" style="fill: rgb(71, 95, 119); stroke: none;"/>
    <rect x="182.382" y="62" width="20" height="20" style="fill: rgb(71, 95, 119); stroke: none;"/>
    <rect x="82.382" y="87" width="20" height="20" style="fill: rgb(71, 95, 119); stroke: none;"/>
    <rect x="107.382" y="87" width="20" height="20" style="fill: rgb(71, 95, 119); stroke: none;"/>
    <rect x="132.382" y="87" width="20" height="20" style="fill: rgb(71, 95, 119); stroke: none;"/>
    <rect x="157.382" y="87" width="20" height="20" style="fill: rgb(71, 95, 119); stroke: none;"/>
    <rect x="182.382" y="87" width="20" height="20" style="fill: rgb(71, 95, 119); stroke: none;"/>
    <rect x="82.382" y="112" width="20" height="20" style="fill: rgb(71, 95, 119); stroke: none;"/>
    <rect x="107.382" y="112" width="20" height="20" style="fill: rgb(71, 95, 119); stroke: none;"/>
    <rect x="132.382" y="112" width="20" height="20" style="fill: rgb(71, 95, 119); stroke: none;"/>
    <rect x="157.382" y="112" width="20" height="20" style="fill: rgb(71, 95, 119); stroke: none;"/>
    <rect x="182.382" y="112" width="20" height="20" style="fill: rgb(71, 95, 119); stroke: none;"/>
    <rect x="57.382" y="37" width="20" height="20" style="fill: rgb(71, 95, 119); stroke: none;"/>
    <rect x="57.382" y="62" width="20" height="20" style="fill: rgb(71, 95, 119); stroke: none;"/>
    <rect x="57.382" y="87" width="20" height="20" style="fill: rgb(71, 95, 119); stroke: none;"/>
    <rect x="57.382" y="112" width="20" height="20" style="fill: rgb(71, 95, 119); stroke: none;"/>
    <rect x="57.382" y="-13" width="20" height="20" style="fill: rgb(235, 85, 85); stroke: none;"/>
    <rect x="57.382" y="12" width="20" height="20" style="fill: rgb(235, 85, 85); stroke: none;"/>
    <rect x="57.382" y="137" width="145" height="20" style="stroke: none; fill: rgb(235, 85, 85);"/>
  </g>
</svg>