<svg id="Layer_1" data-name="Layer 1" xmlns="http://www.w3.org/2000/svg" viewBox="0 0 735 852"><defs><style>.cls-1{fill:#c69;}.cls-2{fill:#dadbdf;}.cls-3{isolation:isolate;}.cls-4{fill:#484c55;}.cls-5{fill:none;}.cls-6{fill:#fff;}</style></defs><polygon class="cls-1" points="369.5 7.4 728.2 214.47 728.2 636.62 369.5 845.03 2.79 636.62 2.79 214.47 369.5 7.4"/><path id="Layer" class="cls-2" d="M734.91,213.13V637.38l-29.3,16.92L424.34,816.69l-56.85,32.82-56.85-32.82L29.36,654.29.08,637.38V213.13l29.28-16.91L307.18,35.82,367.49,1l60.32,34.82,277.8,160.39ZM705.61,231,367.49,35.82,29.36,231V621.47L367.49,816.68,705.61,621.47Z"/><g id="Layer-2" data-name="Layer"><g id="ww" class="cls-3"><g class="cls-3"><path class="cls-4" d="M368.71,803.85l.21-1.83a5.94,5.94,0,0,0,4.12-.58c1.49-.86,1.78-2.08,1.21-3.06-.67-1.17-2.32-.9-3.82-.65-1.95.34-4.16.6-5.27-1.32s-.41-4,2-5.46a6.54,6.54,0,0,1,4.26-.75l-.21,1.74a4.85,4.85,0,0,0-3.17.49c-1.42.82-1.63,2-1.13,2.83.62,1.07,2.08.75,3.65.5,2-.33,4.19-.71,5.43,1.44,1.06,1.84.48,4.23-2.2,5.78A7.91,7.91,0,0,1,368.71,803.85Z"/><path class="cls-4" d="M378.08,796.23c-1.42-2.47,0-4.93,4.5-8.26-.83-1.44-2.11-2.57-4-1.49a7,7,0,0,0-2.68,3.16l-1.52-.9a9.74,9.74,0,0,1,3.61-4c2.77-1.6,5-.43,6.63,2.39l4,6.95-1.58.91-.95-1.25-.07,0a7,7,0,0,1-2.81,3.8A3.56,3.56,0,0,1,378.08,796.23Zm7.05-3.85-1.82-3.15c-3.51,2.65-4.28,4.34-3.44,5.78a2,2,0,0,0,3.05.66A5.28,5.28,0,0,0,385.13,792.38Z"/><path class="cls-4" d="M390.23,791.42l.22-1.83a5.86,5.86,0,0,0,4.11-.58c1.5-.86,1.79-2.08,1.22-3.06-.67-1.17-2.32-.9-3.83-.65-1.94.35-4.16.6-5.26-1.31s-.41-4.06,2-5.47a6.56,6.56,0,0,1,4.26-.75l-.2,1.74a4.85,4.85,0,0,0-3.17.49c-1.42.82-1.63,2-1.13,2.83.62,1.07,2.08.76,3.65.51,2-.34,4.19-.72,5.42,1.43,1.07,1.84.49,4.23-2.19,5.78A7.86,7.86,0,0,1,390.23,791.42Z"/><path class="cls-4" d="M400,785.78l.21-1.83a6,6,0,0,0,4.12-.58c1.49-.86,1.78-2.08,1.21-3.06-.67-1.17-2.32-.9-3.83-.65-1.94.34-4.16.6-5.26-1.32s-.41-4.05,2-5.46a6.58,6.58,0,0,1,4.27-.75l-.21,1.74a4.85,4.85,0,0,0-3.17.49c-1.42.82-1.63,2-1.13,2.83.62,1.07,2.08.75,3.65.5,2-.33,4.19-.71,5.43,1.44,1.06,1.84.48,4.23-2.2,5.78A7.91,7.91,0,0,1,400,785.78Z"/><path class="cls-4" d="M407.26,774.54l5.36-3.1.85,1.47L408.11,776Z"/><path class="cls-4" d="M417.94,774.09l-8.26-14.32,1.91-1.1,8.35,14.45c.35.61.74.69,1,.53a1.64,1.64,0,0,0,.39-.29l1.09,1.3a2.9,2.9,0,0,1-1,.82C420,776.32,418.9,775.74,417.94,774.09Z"/><path class="cls-4" d="M422.81,770.4c-1.42-2.47,0-4.93,4.5-8.25-.83-1.45-2.11-2.58-4-1.5a7.06,7.06,0,0,0-2.68,3.16l-1.51-.89a9.58,9.58,0,0,1,3.6-4c2.78-1.61,5-.44,6.63,2.38l4,7-1.59.92-.94-1.26-.07,0a6.93,6.93,0,0,1-2.82,3.8A3.56,3.56,0,0,1,422.81,770.4Zm7.05-3.84L428,763.41c-3.51,2.64-4.27,4.33-3.44,5.78a2,2,0,0,0,3.06.66A5.31,5.31,0,0,0,429.86,766.56Z"/><path class="cls-4" d="M430.42,754.82l1.59-.92,1.1,1.54.07,0a6.19,6.19,0,0,1,2.7-4.1c2.38-1.38,4.34-.46,6,2.43l4.15,7.19-1.92,1.1-4-6.93c-1.23-2.12-2.41-2.65-3.9-1.79-1.17.67-1.61,1.74-2.09,3.54l4.74,8.21-1.91,1.1Z"/><path class="cls-4" d="M450.11,761.45a3.79,3.79,0,0,1,.18-3.52l-.06-.09a2.42,2.42,0,0,1-2.06-1.26,3.07,3.07,0,0,1,0-2.82l-.05-.09a4.62,4.62,0,0,1-1.3-8.7,5.14,5.14,0,0,1,1.77-.65l3.94-2.28.85,1.47-2.33,1.35a3.8,3.8,0,0,1,2.28,1.79,4.49,4.49,0,0,1-1.88,6.34,4.61,4.61,0,0,1-1.93.58,2,2,0,0,0,.06,1.77c.42.73,1.18,1,2.72.08l2.19-1.26c2.64-1.52,4.44-1.48,5.53.41,1.21,2.1,0,5.2-3.48,7.23C453.79,763.4,451.24,763.41,450.11,761.45Zm1.46-13.84a2.78,2.78,0,1,0-4.8,2.78,2.79,2.79,0,1,0,4.8-2.78Zm6.76,8.32c-.6-1-1.62-.93-3.09-.08l-2,1.13a6,6,0,0,1-1.58.66,2.81,2.81,0,0,0-.06,2.59c.7,1.21,2.38,1.26,4.43.08S459,757.12,458.33,755.93Z"/><path class="cls-4" d="M460.41,751.06a1.6,1.6,0,1,1,2.77-1.6,1.6,1.6,0,1,1-2.77,1.6Z"/><path class="cls-4" d="M462.93,743.64c-2.19-3.8-.9-7.44,2-9.12a5.42,5.42,0,0,1,4.08-.58l-.25,1.82a3.84,3.84,0,0,0-2.84.3c-2.05,1.19-2.52,3.82-1,6.43s3.93,3.52,6,2.32a4.65,4.65,0,0,0,2-2.68l1.58.8a6.38,6.38,0,0,1-2.82,3.56C468.66,748.23,465.1,747.39,462.93,743.64Z"/><path class="cls-4" d="M473.08,737.78c-2.2-3.8-1-7.4,1.8-9s6.49-.86,8.69,2.94.95,7.35-1.83,8.95S475.24,741.53,473.08,737.78Zm8.51-4.91c-1.51-2.62-3.84-3.63-5.8-2.5s-2.24,3.65-.73,6.26,3.83,3.58,5.77,2.46S483.08,735.45,481.59,732.87Z"/><path class="cls-4" d="M483.27,724.31l1.59-.92,1.1,1.54.07,0a5.77,5.77,0,0,1,2.42-3.95,3.45,3.45,0,0,1,4.38.37c.44-2,1.1-3.53,2.47-4.32,2.34-1.35,4.34-.46,6,2.43l4.15,7.19-1.91,1.1-4-6.92c-1.22-2.13-2.43-2.65-3.85-1.83-.88.52-1.46,1.62-1.83,3.4l4.74,8.2-1.92,1.11-4-6.93c-1.23-2.12-2.43-2.64-3.88-1.8-.84.48-1.46,1.62-1.83,3.39l4.74,8.21-1.92,1.1Z"/></g></g></g><path id="Layer-3" data-name="Layer" class="cls-5" d="M300.38,503.07v.15h.07Z"/><g id="sass_name" data-name="sass name"><path class="cls-6" d="M593.47,447.07a118.21,118.21,0,0,0-52,12.1c-5.37-10.64-10.75-19.94-11.64-26.88-1-8.06-2.24-13-1-22.62s6.83-23.3,6.83-24.42-1.23-5.94-12.77-6.05-21.5,2.24-22.62,5.26a129.41,129.41,0,0,0-4.82,17.14c-2,10.53-23.07,47.82-35.05,67.42-3.92-7.61-7.28-14.33-8-19.71-1-8.06-2.24-13-1-22.62s6.83-23.3,6.83-24.42-1.23-5.93-12.77-6-21.5,2.24-22.62,5.27-2.35,10.19-4.82,17.13-30.35,69.22-37.63,85.46c-3.7,8.29-6.94,14.9-9.3,19.38s-.11.33-.33.78c-2,3.81-3.14,5.94-3.14,5.94v.11c-1.57,2.8-3.25,5.49-4,5.49-.56,0-1.68-7.51.22-17.81,4.14-21.62,14.22-55.33,14.11-56.56,0-.56,1.91-6.5-6.49-9.52-8.18-3-11.09,2-11.76,2s-1.24,1.79-1.24,1.79,9.08-38-17.36-38c-16.57,0-39.42,18-50.73,34.5-7.17,3.92-22.4,12.2-38.53,21-6.16,3.36-12.54,7-18.59,10.19l-1.23-1.34c-32-34.16-91.28-58.35-88.82-104.27.9-16.69,6.72-60.71,113.8-114,87.69-43.68,157.92-31.7,170.12-5,17.36,38.08-37.52,108.86-128.68,119.06-34.72,3.92-53-9.52-57.57-14.56-4.82-5.27-5.49-5.49-7.28-4.48-2.91,1.56-1.12,6.27,0,9.07,2.69,7.05,13.89,19.6,32.93,25.87,16.68,5.49,57.45,8.51,106.73-10.53,55.22-21.39,98.34-80.75,85.68-130.37-12.88-50.51-96.65-67.08-175.84-39-47.15,16.8-98.22,43-135,77.39-43.68,40.77-50.62,76.38-47.71,91.17,10.19,52.75,82.88,87.13,112,112.56-1.46.78-2.8,1.56-4,2.24-14.56,7.16-70,36.17-83.89,66.86-15.68,34.72,2.46,59.7,14.56,63.06,37.41,10.41,75.71-8.29,96.43-39.09s18.14-70.78,8.62-89l-.33-.67,11.42-6.72c7.39-4.37,14.67-8.4,21.06-11.88-3.59,9.75-6.16,21.28-7.51,38.08-1.56,19.72,6.5,45.25,17.14,55.33,4.7,4.37,10.3,4.48,13.78,4.48,12.32,0,17.92-10.19,24.08-22.4,7.61-14.89,14.33-32.14,14.33-32.14s-8.4,46.7,14.56,46.7c8.4,0,16.8-10.86,20.61-16.46v.11s.22-.34.67-1.12.92-1.4,1.35-2.13V550c3.36-5.82,10.86-19.15,22.06-41.22,14.45-28.44,28.34-64.06,28.34-64.06a203.8,203.8,0,0,0,5.48,23.07c2.47,8.52,7.84,17.81,12,26.88-3.36,4.71-5.38,7.4-5.38,7.4l.11.11c-2.68,3.58-5.71,7.39-8.84,11.2C417.63,527,404,542.61,402.18,547.09c-2.13,5.26-1.68,9.18,2.46,12.32,3,2.24,8.4,2.69,14.11,2.24a62.78,62.78,0,0,0,21.06-4.82A72.7,72.7,0,0,0,458,547.31c11.2-8.28,18-20,17.36-35.72-.33-8.63-3.13-17.14-6.61-25.2,1-1.46,2-2.92,3-4.48,17.69-25.88,31.36-54.32,31.36-54.32a203.38,203.38,0,0,0,5.49,23.07c2.12,7.28,6.38,15.23,10.19,23.07-16.58,13.55-27,29.23-30.58,39.54-6.61,19-1.45,27.66,8.29,29.68,4.37.89,10.64-1.12,15.34-3.14a69.27,69.27,0,0,0,19.38-10c11.2-8.28,21.95-19.82,21.39-35.39a67.8,67.8,0,0,0-4.81-20.94c14.11-5.83,32.36-9.19,55.55-6.39,49.84,5.83,59.69,37,57.79,50s-12.32,20.16-15.79,22.4-4.59,2.91-4.26,4.48c.45,2.35,2,2.24,5,1.79,4.15-.67,26.21-10.64,27.11-34.61,1.34-30.8-27.89-64.4-79.75-64.07ZM209.09,576.66c-16.47,18-39.65,24.86-49.51,19-10.64-6.16-6.49-32.71,13.78-51.86,12.32-11.65,28.34-22.4,38.86-29,2.36-1.45,5.94-3.58,10.2-6.16.67-.44,1.12-.67,1.12-.67.78-.45,1.68-1,2.57-1.57,7.51,27.33.34,51.3-17,70.23Zm120.4-81.88c-5.71,14-17.81,50-25.09,47.94-6.27-1.68-10.08-28.9-1.23-55.78,4.48-13.55,14-29.68,19.6-35.95,9.07-10.08,18.92-13.44,21.39-9.3C347.07,447.07,333.07,486.05,329.49,494.78Zm99.34,47.49c-2.46,1.24-4.7,2.13-5.71,1.46-.78-.45,1-2.13,1-2.13s12.43-13.33,17.36-19.49c2.8-3.58,6.16-7.72,9.74-12.43V511c0,16.12-15.45,26.87-22.4,31.24Zm76.61-17.47c-1.79-1.34-1.57-5.49,4.48-18.48a69.22,69.22,0,0,1,17-21.95,27.52,27.52,0,0,1,1.68,9.63C528.51,514.16,514.18,521.66,505.44,524.8Z"/></g></svg>