<?xml version="1.0" encoding="UTF-8" standalone="no"?>
<!-- Created with Inkscape (http://www.inkscape.org/) -->

<svg
   xmlns:dc="http://purl.org/dc/elements/1.1/"
   xmlns:cc="http://creativecommons.org/ns#"
   xmlns:rdf="http://www.w3.org/1999/02/22-rdf-syntax-ns#"
   xmlns:svg="http://www.w3.org/2000/svg"
   xmlns="http://www.w3.org/2000/svg"
   xmlns:sodipodi="http://sodipodi.sourceforge.net/DTD/sodipodi-0.dtd"
   xmlns:inkscape="http://www.inkscape.org/namespaces/inkscape"
   width="1.73in"
   height="2in"
   id="svg3105"
   version="1.1"
   inkscape:version="0.91 r13725"
   sodipodi:docname="magrittr.svg"
   inkscape:export-filename="C:\Users\shb\Documents\RDocs\magrittr\magrittr.png"
   inkscape:export-xdpi="104.7"
   inkscape:export-ydpi="104.7">
  <defs
     id="defs3107" />
  <sodipodi:namedview
     id="base"
     pagecolor="#ffffff"
     bordercolor="#666666"
     borderopacity="1.0"
     inkscape:pageopacity="0.0"
     inkscape:pageshadow="2"
     inkscape:zoom="2.86"
     inkscape:cx="25.414168"
     inkscape:cy="123.0429"
     inkscape:document-units="px"
     inkscape:current-layer="layer1"
     showgrid="false"
     inkscape:window-width="1366"
     inkscape:window-height="706"
     inkscape:window-x="-8"
     inkscape:window-y="-8"
     inkscape:window-maximized="1"
     units="in" />
  <metadata
     id="metadata3110">
    <rdf:RDF>
      <cc:Work
         rdf:about="">
        <dc:format>image/svg+xml</dc:format>
        <dc:type
           rdf:resource="http://purl.org/dc/dcmitype/StillImage" />
        <dc:title></dc:title>
      </cc:Work>
    </rdf:RDF>
  </metadata>
  <g
     inkscape:label="Layer 1"
     inkscape:groupmode="layer"
     id="layer1"
     transform="translate(0,-872.36215)">
    <path
       inkscape:connector-curvature="0"
       d="M 77.85,1052.3622 0,1007.362 0,917.36217 77.85,872.3622 l 77.84999,44.99996 10e-6,89.99984 z"
       id="path4662-3-7-5-5"
       style="fill:#3e3221;fill-opacity:1;stroke:none" />
    <path
       inkscape:connector-curvature="0"
       d="m 77.85,1041.1999 -68.8449408,-39.2401 0,-78.47981 L 77.85,884.24006 l 68.84489,39.23992 4e-5,78.47982 z"
       id="path4662-3-7-5-5-9"
       style="fill:#f9ecc6;fill-opacity:1;stroke:none" />
    <flowRoot
       xml:space="preserve"
       id="flowRoot3906"
       style="font-style:normal;font-weight:normal;font-size:40px;line-height:125%;font-family:Sans;letter-spacing:0px;word-spacing:0px;fill:#000000;fill-opacity:1;stroke:none"
       transform="matrix(0.88506753,0,0,0.89589979,-5.3967371,109.46595)"><flowRegion
         id="flowRegion3908"><rect
           id="rect3910"
           width="129"
           height="117"
           x="96"
           y="151.36218" /></flowRegion><flowPara
         id="flowPara3912" /></flowRoot>    <path
       inkscape:connector-curvature="0"
       id="path4083"
       d="m 115.99759,1003.4127 c 0,-0.2084 0.0943,-0.5034 0.20962,-0.6557 0.18239,-0.2406 0.8919,-2.3395 2.63388,-7.79093 l 0.44553,-1.39437 -0.48989,0.32512 c -0.71321,0.47348 -0.87409,0.059 -0.20042,-0.51649 0.31533,-0.26932 0.83757,-0.83461 1.16061,-1.25633 0.512,-0.66806 0.76747,-0.76347 1.98771,-0.74216 1.24554,0.0215 1.43746,0.10636 1.7366,0.76637 0.30683,0.67693 0.2699,0.96532 -0.42182,3.29458 -0.87346,2.94086 -0.84196,3.56111 0.15329,3.02054 1.50365,-0.81691 1.89789,-1.39842 2.91626,-4.30185 0.74024,-2.11031 1.13129,-2.90094 1.43467,-2.90094 0.57258,0 0.54765,0.16522 -0.53476,3.53452 -0.99803,3.10723 -0.9827,3.69262 0.0832,3.18985 0.76145,-0.35909 3.49202,-3.8047 4.34888,-5.48766 0.40884,-0.80316 0.75104,-1.18394 0.97058,-1.08029 0.18653,0.0876 0.83886,8.7e-4 1.44947,-0.19289 2.18157,-0.69349 2.95818,1.03899 1.7391,3.87943 -0.72703,1.69371 -0.85284,3.09848 -0.3162,3.53075 0.66285,0.53405 2.25279,-1.04695 2.54573,-2.53156 0.59308,-3.00527 1.94736,-4.84215 3.57013,-4.84215 1.37525,0 1.99567,1.69936 1.26242,3.45783 -0.39751,0.95351 -1.77818,2.16968 -3.01207,2.65329 -1.00467,0.39366 -1.0661,0.58501 -0.42059,1.30955 0.59064,0.66296 1.696,0.43263 3.57802,-0.74577 1.4097,-0.88255 1.76103,-0.7452 0.83696,0.32709 -1.51652,1.75987 -3.66954,2.50627 -4.73408,1.64122 -0.31671,-0.25741 -0.64434,-0.7359 -0.72814,-1.06334 l -0.15234,-0.59535 -0.67417,0.59544 c -0.3709,0.32744 -1.04259,0.78631 -1.49288,1.0196 -0.80118,0.4152 -0.8315,0.4052 -1.42338,-0.4673 -0.80719,-1.18975 -0.77949,-2.47437 0.0999,-4.63519 1.14764,-2.81977 0.91288,-3.32898 -1.01351,-2.1987 -1.20647,0.70783 -1.29022,0.83209 -1.9222,2.85359 -0.36345,1.16245 -1.17339,3.45772 -1.79977,5.1005 -0.88521,2.3213 -1.24375,2.9871 -1.60882,2.9871 -0.26958,0 -0.46969,-0.1944 -0.46969,-0.4562 0,-0.4841 0.43014,-1.6309 0.70318,-1.8751 0.24501,-0.2192 1.85292,-4.95527 1.67933,-4.94666 -0.0826,0 -0.65923,0.65122 -1.28114,1.438 -1.29227,1.63467 -2.24072,2.04695 -3.10113,1.34779 -0.53007,-0.43084 -0.62577,-0.42243 -1.34149,0.11879 -1.42378,1.07668 -3.23776,0.5723 -3.23776,-0.9002 0,-0.31311 0.37004,-1.48075 0.8223,-2.5947 0.85235,-2.09908 1.03513,-3.33427 0.52872,-3.57319 -0.43717,-0.20635 -1.17044,0.21537 -1.7241,0.99149 -0.45042,0.63115 -1.92011,4.64362 -2.33334,6.3702 -0.44385,1.85438 -1.61289,4.37118 -2.03038,4.37118 -0.23788,0 -0.43244,-0.1704 -0.43244,-0.3788 z m 23.75516,-7.24352 c 0.4393,-0.18525 1.20089,-0.72639 1.6926,-1.20257 0.74442,-0.7211 0.8819,-1.01773 0.82227,-1.77584 -0.0594,-0.75543 -0.18382,-0.92629 -0.73268,-1.00421 -0.91094,-0.12954 -1.66126,0.55939 -2.2489,2.06514 -0.44003,1.12711 -0.64713,2.25443 -0.4144,2.25443 0.0452,0 0.44182,-0.1516 0.88111,-0.33695 z m -68.86868,6.37582 c 0,-0.2048 0.145059,-0.631 0.322363,-0.9471 0.177288,-0.3162 0.699038,-1.82065 1.159427,-3.34333 0.460388,-1.52259 1.002601,-3.25597 1.204917,-3.85192 0.463318,-1.36464 0.462859,-1.36983 -0.102087,-1.18662 -0.705303,0.22882 -0.570621,-0.0465 0.420336,-0.86016 0.713377,-0.58555 1.147688,-0.71959 2.185688,-0.67442 0.712455,0.0313 1.422058,0.15336 1.576861,0.27208 0.461909,0.35407 0.323708,1.47527 -0.423235,3.43363 -0.850605,2.22999 -0.912849,3.15884 -0.211638,3.15884 0.646287,0 2.091164,-1.80523 2.091164,-2.6128 0,-1.70004 2.320861,-4.67266 3.648455,-4.67266 0.210139,0 0.712987,0.41051 1.117453,0.91212 0.404505,0.50161 0.770322,0.7825 0.812902,0.62418 0.04261,-0.15841 0.224931,-0.53602 0.405524,-0.83929 0.250038,-0.42007 0.394196,-0.47061 0.605481,-0.21234 0.212778,0.26002 0.142134,0.70556 -0.30393,1.9135 -0.833677,2.25863 -1.270873,4.52123 -0.950197,4.91883 0.705415,0.87495 2.887716,-1.61683 4.812908,-5.49562 0.65634,-1.32228 1.284808,-2.40415 1.396457,-2.40415 0.268956,0 0.25638,0.20669 -0.0572,0.93299 -0.208827,0.48387 -0.15878,0.82718 0.25275,1.73544 1.150158,2.53808 1.0443,3.72836 -0.472055,5.3108 -0.834302,0.87074 -1.516742,0.98298 -1.732717,0.28507 -0.369181,-1.19278 0.524158,-2.12166 1.011353,-1.05176 0.200569,0.44022 0.282393,0.36184 0.599127,-0.57347 0.201739,-0.59586 0.366918,-1.33033 0.366918,-1.63216 0,-0.72953 -0.472769,-2.38417 -0.681028,-2.38417 -0.09097,0 -0.390437,0.55735 -0.665596,1.23851 -1.682782,4.16484 -4.38843,6.35868 -5.390976,4.37125 -0.222221,-0.44077 -0.437267,-0.85737 -0.477744,-0.92581 -0.04027,-0.0679 -0.373175,0.2315 -0.739314,0.66664 -0.366195,0.43503 -1.025879,0.86247 -1.466098,0.94973 -0.673552,0.13359 -0.908106,0.0188 -1.48014,-0.72622 l -0.679874,-0.88497 -0.842244,0.86106 c -0.988484,1.01048 -1.50087,1.07697 -2.144937,0.2782 -0.655152,-0.81261 -0.588589,-1.81997 0.273608,-4.13987 0.839157,-2.25795 0.734183,-2.76396 -0.457613,-2.20599 -0.815251,0.38165 -1.029452,0.83839 -2.497355,5.32585 -1.374714,4.20251 -1.633564,4.80151 -2.076695,4.80511 -0.226155,8e-4 -0.4112,-0.1643 -0.4112,-0.369 z m 11.84842,-5.21851 c 0.914996,-1.32573 1.343627,-2.75774 1.137731,-3.8004 -0.454693,-2.3021 -2.289699,-1.69235 -3.443287,1.14415 -0.452779,1.11379 -0.50769,3.47154 -0.08547,3.68278 0.896961,0.44885 1.573128,0.15857 2.391038,-1.02653 z m -68.559227,3.84851 c -0.827788,-0.3255 -1.503172,-1.0627 -1.945581,-2.1238 l -0.336692,-0.80749 -0.935814,0.93273 c -1.3705687,1.36596 -1.6304965,0.72891 -0.434784,-1.06566 1.018278,-1.52832 1.620716,-2.7935 1.624466,-3.41161 0.0046,-0.74241 1.128762,-3.3105 1.90774,-4.35764 0.968503,-1.30193 2.250575,-2.28399 2.983579,-2.28546 0.689243,-8.6e-4 1.920402,1.49664 1.920402,2.33661 0,0.61316 -1.234727,2.32494 -1.67699,2.32494 -0.484821,0 -0.470274,-0.93934 0.02468,-1.5928 0.346465,-0.45735 0.471893,-0.88407 0.373238,-1.26959 -0.326359,-1.2753 -1.491489,-1.00744 -2.633242,0.60537 -2.033251,2.87209 -2.675565,7.61577 -1.219319,9.00504 1.144317,1.09166 4.391447,0.2461 4.875009,-1.26947 0.117577,-0.3686 0.341103,-1.09364 0.49672,-1.61139 0.354153,-1.1781 1.547787,-2.76833 2.570161,-3.42404 0.625722,-0.40125 0.894595,-0.43467 1.363825,-0.16957 0.529538,0.2993 0.573028,0.456 0.462898,1.66788 -0.139365,1.53342 -0.757797,2.33419 -2.581028,3.34189 -1.136252,0.62804 -1.337959,1.02759 -0.834124,1.65249 0.468377,0.58087 1.446764,0.39657 2.550373,-0.48048 1.308085,-1.03961 1.734338,-1.65526 2.085509,-3.01245 0.340463,-1.3159 1.548848,-3.00207 2.45894,-3.43121 1.324459,-0.62454 2.397061,1.22989 1.415499,2.44733 -0.446294,0.55349 -0.887323,0.30174 -0.73522,-0.41964 0.05998,-0.28473 0.0239,-0.68869 -0.08014,-0.89769 -0.365195,-0.73286 -1.37768,0.20425 -1.993691,1.84518 -0.648865,1.72864 -0.693987,2.20956 -0.306278,3.26494 0.351604,0.95708 1.038794,0.95986 2.620202,0.01 1.723831,-1.03483 2.103778,-1.5103 3.00568,-3.76098 0.74951,-1.87038 1.219933,-2.51209 1.545519,-2.10832 0.07689,0.0954 -0.297705,1.27406 -0.832518,2.61917 -0.534811,1.34509 -0.972375,2.87073 -0.972375,3.39018 0,0.92014 0.0228,0.94114 0.881119,0.81525 0.484615,-0.0706 1.066165,-0.22995 1.292314,-0.35314 0.595718,-0.32459 0.517684,0.32994 -0.0872,0.73143 -0.903482,0.5997 -2.134419,0.4075 -2.710617,-0.42334 l -0.523067,-0.75425 -1.163905,0.72504 c -1.570672,0.97855 -2.837374,0.96245 -3.65054,-0.0465 -0.595009,-0.73796 -0.641199,-0.74926 -1.073832,-0.26368 -1.155042,1.29643 -3.541569,1.69723 -4.368598,0.73353 l -0.508677,-0.59269 -1.237113,0.77069 c -1.385775,0.8633 -2.616226,1.1056 -3.616469,0.7124 z m 6.875828,-4.27709 c 0.464509,-0.42565 1.027241,-1.04857 1.250521,-1.38425 0.416311,-0.62589 0.560315,-1.63028 0.233732,-1.63028 -0.382386,0 -1.286729,0.98139 -1.948611,2.1146 -1.075834,1.84187 -0.911423,2.16056 0.464358,0.89993 z m 33.446103,3.10839 c -0.420007,-0.31757 -0.76365,-0.71677 -0.76365,-0.8871 0,-0.17021 -0.271577,-0.62174 -0.603506,-1.00333 -0.580641,-0.66736 -0.586282,-0.70506 -0.148523,-0.99569 0.250237,-0.16609 0.517716,-0.66727 0.59439,-1.1137 0.222007,-1.29279 1.002031,-2.61932 2.042144,-3.47305 0.791104,-0.64925 1.075822,-0.74144 1.595191,-0.5164 0.487994,0.21153 0.649361,0.49482 0.707397,1.24181 0.06364,0.81851 -0.07547,1.14033 -0.901893,2.08655 -0.537391,0.61533 -1.333324,1.32837 -1.768717,1.58466 -0.987834,0.58139 -1.134134,0.86852 -0.817068,1.60324 0.981779,2.27521 3.227002,0.6204 5.926088,-4.3677 1.309977,-2.42101 1.733593,-2.84447 1.5311,-1.53064 -0.07972,0.51731 0.0307,1.03225 0.318885,1.48665 0.242473,0.3823 0.508281,1.14084 0.590674,1.68555 0.08238,0.5447 0.217355,0.98128 0.299901,0.97017 0.23488,-0.0313 2.382246,-3.41804 2.382246,-3.75687 0,-0.16654 0.10705,-0.30283 0.237922,-0.30283 0.130863,0 0.495109,-0.72119 0.809452,-1.60275 0.362406,-1.0163 0.714536,-1.60277 0.962369,-1.60277 0.388812,0 0.376703,0.53101 -0.04307,1.88767 -0.129062,0.41712 -0.03097,0.45701 0.703903,0.28606 1.20575,-0.28059 1.068082,0.22498 -0.273506,1.00431 -1.054269,0.61234 -1.168615,0.79046 -1.7633,2.74538 -0.893678,2.93795 -1.033966,3.9848 -0.534033,3.9848 0.216416,0 0.70544,-0.20015 1.086718,-0.44465 0.842385,-0.54031 0.899878,-0.18919 0.118153,0.72166 -0.638828,0.74437 -1.717112,0.88717 -2.032677,0.26939 -0.341366,-0.66843 -0.237654,-2.19218 0.254677,-3.74129 0.256561,-0.8073 0.388734,-1.45985 0.293699,-1.45017 -0.192868,0.0197 -1.368839,1.81572 -2.414489,3.68745 -1.264864,2.26399 -2.252919,2.57559 -2.940224,0.92713 -0.321453,-0.77092 -0.310729,-0.87986 0.141893,-1.44122 0.405985,-0.5035 0.55128,-0.5438 0.85048,-0.2358 0.32011,0.32941 0.305068,0.42745 -0.133201,0.86758 -0.575965,0.57839 -0.626541,0.83992 -0.162491,0.83992 0.182347,0 0.605295,-0.40353 0.939866,-0.89662 0.750853,-1.10681 0.84771,-3.11568 0.186006,-3.85837 -0.397478,-0.44608 -0.494029,-0.35505 -1.642985,1.54919 -1.456418,2.41374 -3.356679,4.37188 -4.241171,4.37038 -0.343778,-6e-4 -0.968697,-0.261 -1.388686,-0.5786 z m 2.114683,-5.48217 c 0.355385,-0.41238 0.646156,-0.9132 0.646156,-1.1128 0,-0.47869 -0.83622,-0.79456 -1.282853,-0.4846 -0.540569,0.37521 -1.536737,2.17034 -1.536737,2.76924 0,0.50583 0.03981,0.50878 0.763634,0.0555 0.420006,-0.26287 1.054417,-0.81526 1.4098,-1.22765 z m -14.391662,5.28536 c 0,-0.26678 0.376031,-1.46766 0.835626,-2.66853 0.833001,-2.17658 1.243128,-3.84045 0.946621,-3.84045 -0.18531,0 -1.729801,1.02269 -2.299654,1.52267 -0.726363,0.63735 -0.789522,-0.10328 -0.06999,-0.82091 1.071898,-1.06909 2.550765,-1.69701 3.114827,-1.32264 0.329332,0.21861 0.66629,0.21369 1.15918,-0.017 1.871225,-0.87589 2.599566,0.70204 1.714855,3.71531 -0.279537,0.9521 -0.560389,1.9425 -0.62412,2.20087 -0.138781,0.56272 0.596005,0.99642 0.948144,0.55966 0.133473,-0.16546 0.406562,-0.29679 0.606875,-0.29169 0.250514,0.009 0.15373,0.23874 -0.310068,0.74448 -0.874808,0.95404 -1.816332,0.86064 -2.118101,-0.21017 -0.167371,-0.59388 -0.07523,-1.20506 0.406861,-2.69864 0.991354,-3.07132 0.784252,-4.18519 -0.592283,-3.18544 -0.569118,0.41337 -0.929754,1.11763 -1.615531,3.1549 -0.485556,1.44248 -0.942636,2.85226 -1.015731,3.13278 -0.171584,0.65841 -1.087487,0.67941 -1.087487,0.0251 z m 66.694885,-0.7246 c -0.59523,-0.73823 -0.54567,-1.89439 0.19844,-4.62841 0.50117,-1.8415 0.57267,-2.40009 0.34359,-2.68418 -0.22908,-0.2842 -0.47089,-0.23832 -1.16165,0.22037 -0.81006,0.53808 -0.93068,0.80159 -1.69457,3.70187 -0.84361,3.20294 -1.23603,4.06236 -1.6285,3.56541 -0.13525,-0.17139 0.0427,-1.27531 0.46706,-2.89957 0.8024,-3.06973 0.76933,-3.89197 -0.0645,-1.60277 -0.32105,0.88147 -1.02499,2.29126 -1.56405,3.1327 -0.8856,1.38202 -1.07015,1.53001 -1.90811,1.53001 -0.843,0 -0.94524,-0.0832 -1.11902,-0.91589 -0.16689,-0.79914 -0.23525,-0.86266 -0.53543,-0.49812 -1.278766,1.55298 -2.357475,1.8075 -2.945272,0.69504 -0.408244,-0.77289 -0.296974,-2.65572 0.221842,-3.75213 0.19927,-0.42098 0.195382,-0.59046 -0.0166,-0.68571 -0.178642,-0.0806 0.0148,-0.60472 0.528597,-1.44132 0.445044,-0.72316 0.809305,-1.43595 0.809305,-1.58395 0,-0.14801 0.170014,-0.26913 0.377877,-0.26913 0.465801,0 0.347685,0.6997 -0.630378,3.7376 -0.772005,2.39744 -0.860023,3.40344 -0.320063,3.66037 0.527488,0.25103 1.630954,-0.54049 2.289182,-1.64208 0.31138,-0.52115 0.86074,-1.96775 1.22121,-3.21486 0.69827,-2.4183 0.80735,-2.62058 1.23572,-2.29233 0.19694,0.15086 0.0133,1.14221 -0.65258,3.51541 -0.50958,1.81796 -0.86962,3.41956 -0.8001,3.55906 0.24876,0.49912 0.9614,0.23983 1.59476,-0.58009 0.35426,-0.45862 1.19354,-2.1299 1.86495,-3.71403 1.19661,-2.82289 1.85041,-3.59597 2.29188,-2.71002 0.14879,0.29843 0.31514,0.30434 0.80297,0.0286 0.78694,-0.44473 1.59633,-0.44392 1.95593,0 0.42248,0.52411 0.34044,2.37243 -0.18798,4.23733 -0.61886,2.18331 -0.61452,2.98979 0.0163,2.98979 0.55275,0 1.42827,-0.51487 1.68439,-0.99068 0.1013,-0.18785 0.17416,-0.0679 0.17624,0.28992 0.008,1.37394 -2.02911,2.2596 -2.85146,1.23965 z m 37.86497,0.10231 c 0,-0.68625 0.44241,-1.21879 0.85099,-1.02428 0.44242,0.21055 0.40943,1.15427 -0.0477,1.37198 -0.60921,0.2899 -0.80317,0.20597 -0.80317,-0.3477 z m -95.191445,-4.82674 c 0.286884,-0.37879 0.490351,-0.86275 0.452148,-1.07553 -0.03824,-0.21278 0.115567,-0.43709 0.341715,-0.49841 0.638849,-0.17324 0.499923,0.73653 -0.234962,1.53881 -0.832071,0.90826 -1.239709,0.9339 -0.558901,0.0348 z m -18.532093,-3.83752 c 0,-0.51736 0.5642,-0.86166 0.940031,-0.57354 0.184767,0.14163 0.179804,0.31374 -0.01758,0.60866 -0.365269,0.54589 -0.922504,0.52466 -0.922504,-0.0348 z m 94.763258,-1.49005 c -0.13929,-0.45 0.44999,-1.26927 0.91276,-1.26927 0.35385,0 0.19288,1.39346 -0.18156,1.57165 -0.52528,0.25003 -0.56553,0.23335 -0.7312,-0.30238 z"
       style="fill:#3e3221;fill-opacity:1" />
    <g
       transform="matrix(1.144004,0,0,1.2617702,-36.394171,841.94598)"
       style="font-style:normal;font-weight:bold;font-size:40px;line-height:125%;font-family:Sans;-inkscape-font-specification:'Courier New Bold';letter-spacing:0px;word-spacing:0px;fill:#3e3221;fill-opacity:1;stroke:none"
       id="flowRoot3914">
      <path
         d="m 62.140625,74.536773 c -2.7e-5,2.812532 -0.99612,5.214873 -2.988281,7.207031 -1.968772,1.968776 -4.359395,2.95315 -7.171875,2.953125 -2.812514,2.5e-5 -5.214856,-0.984349 -7.207032,-2.953125 -1.992195,-1.992158 -2.988288,-4.394499 -2.988281,-7.207031 -7e-6,-2.812463 0.996086,-5.214804 2.988281,-7.207032 1.992176,-1.992143 4.394518,-2.988236 7.207032,-2.988281 2.81248,4.5e-5 5.203103,0.996138 7.171875,2.988281 1.992161,1.968791 2.988254,4.371132 2.988281,7.207032 m -4.429688,0 c -2.2e-5,-1.593714 -0.562522,-2.941369 -1.6875,-4.042969 -1.125019,-1.12496 -2.472674,-1.687459 -4.042968,-1.6875 -1.593766,4.1e-5 -2.953139,0.56254 -4.078125,1.6875 -1.101575,1.1016 -1.652355,2.449255 -1.652344,4.042969 -1.1e-5,1.570346 0.562488,2.918 1.6875,4.042968 1.124986,1.12503 2.472641,1.68753 4.042969,1.6875 1.570294,3e-5 2.917949,-0.56247 4.042968,-1.6875 1.124978,-1.124968 1.687478,-2.472622 1.6875,-4.042968 m 12.9375,10.722656 -26.578125,8.613281 c -0.656258,0.210953 -1.136726,0.316422 -1.441406,0.316406 -0.539069,1.6e-5 -1.019538,-0.22264 -1.441406,-0.667968 -0.421881,-0.445296 -0.632818,-1.007796 -0.632813,-1.6875 -5e-6,-0.49217 0.164057,-0.937482 0.492188,-1.335938 0.234369,-0.304668 0.785149,-0.597637 1.652344,-0.878906 l 26.578125,-8.613281 c 0.656215,-0.210909 1.136683,-0.316378 1.441406,-0.316407 0.562464,2.9e-5 1.042932,0.234404 1.441406,0.703125 0.421838,0.445341 0.632775,0.984403 0.632813,1.617188 -3.8e-5,0.515651 -0.1641,0.972682 -0.492188,1.371094 -0.234412,0.304712 -0.785193,0.59768 -1.652344,0.878906 m 0.632813,15.152341 c -3.6e-5,2.81251 -0.996129,5.21485 -2.988281,7.20703 -1.992219,1.96875 -4.39456,2.95313 -7.207032,2.95313 -2.812523,0 -5.214864,-0.99609 -7.207031,-2.98828 -1.992204,-1.99219 -2.988297,-4.38281 -2.988281,-7.17188 -1.6e-5,-2.812485 0.996077,-5.214827 2.988281,-7.207029 1.992167,-1.992169 4.394508,-2.988262 7.207031,-2.988281 2.812472,1.9e-5 5.214813,0.996112 7.207032,2.988281 1.992152,1.968765 2.988245,4.371106 2.988281,7.207029 m -4.464844,0 c -3.2e-5,-1.593737 -0.562531,-2.941392 -1.6875,-4.042966 -1.125029,-1.124986 -2.472684,-1.687485 -4.042969,-1.6875 -1.570337,1.5e-5 -2.917991,0.562514 -4.042968,1.6875 -1.125021,1.101574 -1.687521,2.449229 -1.6875,4.042966 -2.1e-5,1.57032 0.562479,2.91798 1.6875,4.04297 1.124977,1.10157 2.472631,1.65235 4.042968,1.65235 1.570285,0 2.91794,-0.55078 4.042969,-1.65235 1.124969,-1.12499 1.687468,-2.47265 1.6875,-4.04297"
         style="font-variant:normal;font-stretch:normal;font-size:72px;font-family:'Courier New';-inkscape-font-specification:'Courier New Bold'"
         id="path4408"
         inkscape:connector-curvature="0" />
      <path
         d="M 107.38672,88.985991 84.042969,76.048491 C 82.871089,75.392276 82.085934,74.806339 81.6875,74.290679 81.312497,73.77509 81.124997,73.11884 81.125,72.321929 c -3e-6,-1.007774 0.363278,-1.874961 1.089844,-2.601563 0.726557,-0.726522 1.582025,-1.089802 2.566406,-1.089843 0.609368,4.1e-5 1.546867,0.339884 2.8125,1.019531 l 34.76953,19.335937 -34.76953,19.335939 c -1.265633,0.70312 -2.203132,1.05469 -2.8125,1.05469 -0.984381,0 -1.839849,-0.36328 -2.566406,-1.08985 -0.726566,-0.72656 -1.089847,-1.60546 -1.089844,-2.63672 -3e-6,-0.79687 0.187497,-1.45312 0.5625,-1.96875 0.398434,-0.51561 1.183589,-1.10155 2.355469,-1.75781 L 107.38672,88.985991"
         style="font-variant:normal;font-stretch:normal;font-size:72px;font-family:'Courier New';-inkscape-font-specification:'Courier New Bold'"
         id="path4410"
         inkscape:connector-curvature="0" />
      <path
         d="m 148.48437,74.536773 c -2e-5,2.812532 -0.99611,5.214873 -2.98828,7.207031 -1.96877,1.968776 -4.35939,2.95315 -7.17187,2.953125 -2.81252,2.5e-5 -5.21486,-0.984349 -7.20703,-2.953125 -1.9922,-1.992158 -2.98829,-4.394499 -2.98828,-7.207031 -1e-5,-2.812463 0.99608,-5.214804 2.98828,-7.207032 1.99217,-1.992143 4.39451,-2.988236 7.20703,-2.988281 2.81248,4.5e-5 5.2031,0.996138 7.17187,2.988281 1.99217,1.968791 2.98826,4.371132 2.98828,7.207032 m -4.42968,0 c -3e-5,-1.593714 -0.56252,-2.941369 -1.6875,-4.042969 -1.12502,-1.12496 -2.47268,-1.687459 -4.04297,-1.6875 -1.59377,4.1e-5 -2.95314,0.56254 -4.07813,1.6875 -1.10157,1.1016 -1.65235,2.449255 -1.65234,4.042969 -1e-5,1.570346 0.56249,2.918 1.6875,4.042968 1.12499,1.12503 2.47264,1.68753 4.04297,1.6875 1.57029,3e-5 2.91795,-0.56247 4.04297,-1.6875 1.12498,-1.124968 1.68747,-2.472622 1.6875,-4.042968 m 12.9375,10.722656 -26.57813,8.613281 c -0.65626,0.210953 -1.13672,0.316422 -1.4414,0.316406 -0.53907,1.6e-5 -1.01954,-0.22264 -1.44141,-0.667968 -0.42188,-0.445296 -0.63282,-1.007796 -0.63281,-1.6875 -10e-6,-0.49217 0.16405,-0.937482 0.49219,-1.335938 0.23436,-0.304668 0.78514,-0.597637 1.65234,-0.878906 l 26.57812,-8.613281 c 0.65622,-0.210909 1.13669,-0.316378 1.44141,-0.316407 0.56246,2.9e-5 1.04293,0.234404 1.44141,0.703125 0.42183,0.445341 0.63277,0.984403 0.63281,1.617188 -4e-5,0.515651 -0.1641,0.972682 -0.49219,1.371094 -0.23441,0.304712 -0.78519,0.59768 -1.65234,0.878906 m 0.63281,15.152341 c -4e-5,2.81251 -0.99613,5.21485 -2.98828,7.20703 -1.99222,1.96875 -4.39456,2.95313 -7.20703,2.95313 -2.81253,0 -5.21487,-0.99609 -7.20703,-2.98828 -1.99221,-1.99219 -2.9883,-4.38281 -2.98829,-7.17188 -1e-5,-2.812485 0.99608,-5.214827 2.98829,-7.207029 1.99216,-1.992169 4.3945,-2.988262 7.20703,-2.988281 2.81247,1.9e-5 5.21481,0.996112 7.20703,2.988281 1.99215,1.968765 2.98824,4.371106 2.98828,7.207029 m -4.46484,0 c -4e-5,-1.593737 -0.56254,-2.941392 -1.6875,-4.042966 -1.12503,-1.124986 -2.47269,-1.687485 -4.04297,-1.6875 -1.57034,1.5e-5 -2.91799,0.562514 -4.04297,1.6875 -1.12502,1.101574 -1.68752,2.449229 -1.6875,4.042966 -2e-5,1.57032 0.56248,2.91798 1.6875,4.04297 1.12498,1.10157 2.47263,1.65235 4.04297,1.65235 1.57028,0 2.91794,-0.55078 4.04297,-1.65235 1.12496,-1.12499 1.68746,-2.47265 1.6875,-4.04297"
         style="font-variant:normal;font-stretch:normal;font-size:72px;font-family:'Courier New';-inkscape-font-specification:'Courier New Bold'"
         id="path4412"
         inkscape:connector-curvature="0" />
    </g>
  </g>
</svg>
