<?xml version="1.0" encoding="UTF-8" standalone="no"?>
<svg
   xmlns:dc="http://purl.org/dc/elements/1.1/"
   xmlns:cc="http://creativecommons.org/ns#"
   xmlns:rdf="http://www.w3.org/1999/02/22-rdf-syntax-ns#"
   xmlns:svg="http://www.w3.org/2000/svg"
   xmlns="http://www.w3.org/2000/svg"
   xmlns:sodipodi="http://sodipodi.sourceforge.net/DTD/sodipodi-0.dtd"
   xmlns:inkscape="http://www.inkscape.org/namespaces/inkscape"
   id="Layer_1"
   data-name="Layer 1"
   viewBox="0 0 735 852"
   version="1.1"
   sodipodi:docname="labelled.svg"
   inkscape:version="0.92.4 (5da689c313, 2019-01-14)"
   inkscape:export-filename="C:\Users\Larmarange\Documents\GitHub\labelled\icons\labelled.png"
   inkscape:export-xdpi="23.65"
   inkscape:export-ydpi="23.65">
  <metadata
     id="metadata261">
    <rdf:RDF>
      <cc:Work
         rdf:about="">
        <dc:format>image/svg+xml</dc:format>
        <dc:type
           rdf:resource="http://purl.org/dc/dcmitype/StillImage" />
        <dc:title>RStudio_Hex 2016 v7 outlines</dc:title>
      </cc:Work>
    </rdf:RDF>
  </metadata>
  <sodipodi:namedview
     pagecolor="#ffffff"
     bordercolor="#666666"
     borderopacity="1"
     objecttolerance="10"
     gridtolerance="10"
     guidetolerance="10"
     inkscape:pageopacity="0"
     inkscape:pageshadow="2"
     inkscape:window-width="2560"
     inkscape:window-height="1373"
     id="namedview259"
     showgrid="false"
     inkscape:zoom="0.39173052"
     inkscape:cx="-200.23577"
     inkscape:cy="706.0098"
     inkscape:window-x="-9"
     inkscape:window-y="-9"
     inkscape:window-maximized="1"
     inkscape:current-layer="text1070" />
  <defs
     id="defs13">
    <style
       id="style2">.cls-1,.cls-16{fill:none;}.cls-2{fill:#de5a27;}.cls-3{clip-path:url(#clip-path);}.cls-4{fill:#ed7d15;}.cls-5{clip-path:url(#clip-path-2);}.cls-6{clip-path:url(#clip-path-3);}.cls-7{fill:#144f85;}.cls-8{fill:#e6b35a;}.cls-9{fill:#fff;}.cls-10{fill:#173e6c;}.cls-11,.cls-12,.cls-13,.cls-14,.cls-15{fill:#fefefe;}.cls-11,.cls-12,.cls-15,.cls-16{stroke:#000;stroke-miterlimit:10;}.cls-11{stroke-width:5px;}.cls-11,.cls-12,.cls-14{fill-rule:evenodd;}.cls-12,.cls-15{stroke-width:3px;}.cls-16{stroke-width:0.75px;}</style>
    <clipPath
       id="clip-path">
      <polygon
         class="cls-1"
         points="-434.3 7.4 -75.6 214.5 -75.6 636.6 -434.3 845 -801 636.6 -801 214.5 -434.3 7.4"
         id="polygon4" />
    </clipPath>
    <clipPath
       id="clip-path-2">
      <polygon
         class="cls-1"
         points="817.6 227.3 1169.9 19.3 1525.6 227.3 1517.6 628.3 1169.9 832.3 817.6 633 817.6 227.3"
         id="polygon7" />
    </clipPath>
    <clipPath
       id="clip-path-3">
      <polygon
         class="cls-2"
         points="369.5 7.4 728.2 214.5 728.2 636.6 369.5 845 2.8 636.6 2.8 214.5 369.5 7.4"
         id="polygon10" />
    </clipPath>
  </defs>
  <title
     id="title15">RStudio_Hex 2016 v7 outlines</title>
  <polygon
     class="cls-2"
     points="369.5 7.4 728.2 214.5 728.2 636.6 369.5 845 2.8 636.6 2.8 214.5 369.5 7.4"
     id="polygon26" />
  <g
     class="cls-6"
     clip-path="url(#clip-path-3)"
     id="g32">
    <circle
       class="cls-7"
       cx="365.5"
       cy="437.4"
       r="442.1"
       id="circle28" />
    <ellipse
       class="cls-7"
       cx="366.9"
       cy="105.8"
       rx="315.2"
       ry="234.6"
       id="ellipse30" />
  </g>
  <path
     class="cls-10"
     d="M705.6,196.2L427.8,35.8,367.5,1,307.2,35.8,29.4,196.2,0.1,213.1V637.4l29.3,16.9L310.6,816.7l56.9,32.8,56.9-32.8L705.6,654.3l29.3-16.9V213.1Zm0,425.3L367.5,816.7,29.4,621.5V231L367.5,35.8h0L705.6,231V621.5Z"
     id="path76" />
  <g
     aria-label="labelled"
     style="font-style:normal;font-variant:normal;font-weight:normal;font-stretch:normal;font-size:40px;line-height:1.25;font-family:'Open Sans';-inkscape-font-specification:'Open Sans';letter-spacing:0px;word-spacing:0px;fill:#000000;fill-opacity:1;stroke:none"
     id="text1070">
    <path
       d="m 140.0051,620.18108 q -9.09333,0 -12.76,-5.42667 -3.66667,-5.42666 -3.66667,-14.81333 v -85.06667 h 16.86667 v 85.94667 q 0,3.08 1.17333,4.4 1.17334,1.17333 2.49334,1.17333 0.58666,0 1.02666,0 0.58667,0 1.61334,-0.29333 l 2.2,12.61333 q -3.37334,1.46667 -8.94667,1.46667 z"
       style="font-style:normal;font-variant:normal;font-weight:600;font-stretch:normal;font-size:146.66667175px;font-family:'Source Sans Pro';-inkscape-font-specification:'Source Sans Pro Semi-Bold';text-align:center;text-anchor:middle;fill:#ffffff;fill-opacity:1"
       id="path829" />
    <path
       d="m 180.84948,620.18108 q -9.53334,0 -15.4,-5.72 -5.86667,-5.86667 -5.86667,-15.4 0,-5.72 2.34667,-10.12 2.49333,-4.54667 7.62666,-7.77333 5.28,-3.22667 13.20001,-5.42667 8.06666,-2.2 19.21333,-3.37333 -0.14667,-2.78667 -0.88,-5.28 -0.58667,-2.64 -2.2,-4.54667 -1.46667,-2.05333 -3.96,-3.08 -2.49333,-1.17333 -6.16,-1.17333 -5.28,0 -10.41334,2.05333 -4.98666,2.05333 -9.82666,4.98667 l -6.16,-11.29334 q 6.01333,-3.81333 13.49333,-6.6 7.48,-2.78666 16.13334,-2.78666 13.49333,0 20.09333,8.06666 6.74667,7.92 6.74667,23.02667 v 42.68 h -13.93334 l -1.17333,-7.92 h -0.58667 q -4.84,4.10667 -10.41333,6.89333 -5.42667,2.78667 -11.88,2.78667 z m 5.42667,-13.2 q 4.4,0 7.92,-2.05333 3.66666,-2.05334 7.77333,-5.86667 v -16.13333 q -7.33333,0.88 -12.32,2.34666 -4.98667,1.46667 -8.06667,3.37334 -3.08,1.76 -4.4,4.10666 -1.32,2.34667 -1.32,4.98667 0,4.84 2.93333,7.04 2.93334,2.2 7.48001,2.2 z"
       style="font-style:normal;font-variant:normal;font-weight:600;font-stretch:normal;font-size:146.66667175px;font-family:'Source Sans Pro';-inkscape-font-specification:'Source Sans Pro Semi-Bold';text-align:center;text-anchor:middle;fill:#ffffff;fill-opacity:1"
       id="path831" />
    <path
       d="m 273.92781,620.18108 q -4.98666,0 -10.12,-2.34667 -4.98666,-2.49333 -9.53333,-7.04 h -0.44 l -1.46667,7.62667 H 239.02114 V 514.87441 h 16.86667 v 26.69334 l -0.44,12.02666 q 4.54667,-3.96 9.82667,-6.45333 5.42667,-2.49333 11,-2.49333 6.74667,0 12.02667,2.64 5.28,2.49333 8.94666,7.33333 3.66667,4.69333 5.57334,11.44 1.90666,6.74667 1.90666,15.10667 0,9.24 -2.64,16.57333 -2.49333,7.18667 -6.74666,12.17333 -4.25334,4.98667 -9.82667,7.62667 -5.57333,2.64 -11.58667,2.64 z m -3.52,-13.93333 q 7.18667,0 12.02667,-6.16 4.84,-6.30667 4.84,-18.62667 0,-10.85333 -3.66667,-16.86667 -3.66666,-6.01333 -11.88,-6.01333 -7.62666,0 -15.84,8.06667 v 33.58666 q 3.81334,3.37334 7.48,4.69334 3.81334,1.32 7.04,1.32 z"
       style="font-style:normal;font-variant:normal;font-weight:600;font-stretch:normal;font-size:146.66667175px;font-family:'Source Sans Pro';-inkscape-font-specification:'Source Sans Pro Semi-Bold';text-align:center;text-anchor:middle;fill:#ffffff;fill-opacity:1"
       id="path833" />
    <path
       d="m 352.32115,620.18108 q -7.48,0 -13.93333,-2.49333 -6.45333,-2.64 -11.29333,-7.48 -4.84,-4.84 -7.62667,-11.73334 -2.64,-7.04 -2.64,-15.98666 0,-8.8 2.78667,-15.84 2.78666,-7.04 7.33333,-11.88 4.69333,-4.84 10.70667,-7.48 6.01333,-2.64 12.32,-2.64 7.33333,0 12.90666,2.49333 5.57334,2.49333 9.24,7.04 3.81334,4.54667 5.72,10.85333 1.90667,6.30667 1.90667,13.78667 0,2.49333 -0.29333,4.69333 -0.14667,2.2 -0.44,3.52 h -45.76 q 1.17333,9.68 6.74666,14.96 5.72,5.13334 14.52,5.13334 4.69334,0 8.65334,-1.32 4.10666,-1.46667 8.06666,-3.96 l 5.72,10.56 q -5.13333,3.37333 -11.44,5.57333 -6.30666,2.2 -13.2,2.2 z m 12.76,-44.58667 q 0,-8.36 -3.66666,-13.05333 -3.52,-4.84 -11,-4.84 -6.45334,0 -11.29334,4.54667 -4.84,4.54666 -6.01333,13.34666 z"
       style="font-style:normal;font-variant:normal;font-weight:600;font-stretch:normal;font-size:146.66667175px;font-family:'Source Sans Pro';-inkscape-font-specification:'Source Sans Pro Semi-Bold';text-align:center;text-anchor:middle;fill:#ffffff;fill-opacity:1"
       id="path835" />
    <path
       d="m 412.42698,620.18108 q -9.09334,0 -12.76,-5.42667 -3.66667,-5.42666 -3.66667,-14.81333 v -85.06667 h 16.86667 v 85.94667 q 0,3.08 1.17333,4.4 1.17333,1.17333 2.49333,1.17333 0.58667,0 1.02667,0 0.58667,0 1.61333,-0.29333 l 2.2,12.61333 q -3.37333,1.46667 -8.94666,1.46667 z"
       style="font-style:normal;font-variant:normal;font-weight:600;font-stretch:normal;font-size:146.66667175px;font-family:'Source Sans Pro';-inkscape-font-specification:'Source Sans Pro Semi-Bold';text-align:center;text-anchor:middle;fill:#ffffff;fill-opacity:1"
       id="path837" />
    <path
       d="m 452.24469,620.18108 q -9.09333,0 -12.76,-5.42667 -3.66666,-5.42666 -3.66666,-14.81333 v -85.06667 h 16.86666 v 85.94667 q 0,3.08 1.17334,4.4 1.17333,1.17333 2.49333,1.17333 0.58667,0 1.02667,0 0.58666,0 1.61333,-0.29333 l 2.2,12.61333 q -3.37333,1.46667 -8.94667,1.46667 z"
       style="font-style:normal;font-variant:normal;font-weight:600;font-stretch:normal;font-size:146.66667175px;font-family:'Source Sans Pro';-inkscape-font-specification:'Source Sans Pro Semi-Bold';text-align:center;text-anchor:middle;fill:#ffffff;fill-opacity:1"
       id="path839" />
    <path
       d="m 506.43575,620.18108 q -7.48,0 -13.93334,-2.49333 -6.45333,-2.64 -11.29333,-7.48 -4.84,-4.84 -7.62667,-11.73334 -2.64,-7.04 -2.64,-15.98666 0,-8.8 2.78667,-15.84 2.78667,-7.04 7.33333,-11.88 4.69334,-4.84 10.70667,-7.48 6.01333,-2.64 12.32,-2.64 7.33333,0 12.90667,2.49333 5.57333,2.49333 9.24,7.04 3.81333,4.54667 5.72,10.85333 1.90666,6.30667 1.90666,13.78667 0,2.49333 -0.29333,4.69333 -0.14667,2.2 -0.44,3.52 h -45.76 q 1.17333,9.68 6.74667,14.96 5.72,5.13334 14.52,5.13334 4.69333,0 8.65333,-1.32 4.10667,-1.46667 8.06667,-3.96 l 5.72,10.56 q -5.13334,3.37333 -11.44,5.57333 -6.30667,2.2 -13.2,2.2 z m 12.76,-44.58667 q 0,-8.36 -3.66667,-13.05333 -3.52,-4.84 -11,-4.84 -6.45333,0 -11.29333,4.54667 -4.84,4.54666 -6.01334,13.34666 z"
       style="font-style:normal;font-variant:normal;font-weight:600;font-stretch:normal;font-size:146.66667175px;font-family:'Source Sans Pro';-inkscape-font-specification:'Source Sans Pro Semi-Bold';text-align:center;text-anchor:middle;fill:#ffffff;fill-opacity:1"
       id="path841" />
    <path
       d="m 575.34157,620.18108 q -13.64,0 -21.70667,-9.82667 -7.92,-9.97333 -7.92,-27.86666 0,-8.8 2.49334,-15.84 2.64,-7.04 6.89333,-11.88 4.25333,-4.84 9.68,-7.48 5.57333,-2.64 11.44,-2.64 6.16,0 10.41333,2.2 4.25334,2.05333 8.50667,5.72 l -0.58667,-11.58667 v -26.10667 h 16.86667 v 103.54667 h -13.93333 l -1.17334,-7.77333 h -0.58666 q -3.96,3.96 -9.24,6.74666 -5.28,2.78667 -11.14667,2.78667 z m 4.10667,-13.93333 q 8.06666,0 15.10666,-8.06667 v -33.58667 q -3.81333,-3.37333 -7.48,-4.69333 -3.52,-1.32 -7.18666,-1.32 -7.04,0 -11.88,6.16 -4.84,6.16 -4.84,17.6 0,11.73333 4.10666,17.89333 4.25334,6.01334 12.17334,6.01334 z"
       style="font-style:normal;font-variant:normal;font-weight:600;font-stretch:normal;font-size:146.66667175px;font-family:'Source Sans Pro';-inkscape-font-specification:'Source Sans Pro Semi-Bold';text-align:center;text-anchor:middle;fill:#ffffff;fill-opacity:1"
       id="path843" />
  </g>
  <g
     transform="matrix(0.93398026,0,0,0.93398026,216.2942,135.83102)"
     id="g6"
     style="fill:#ffffff;fill-opacity:1">
    <g
       id="g4"
       style="fill:#ffffff;fill-opacity:1">
      <path
         inkscape:connector-curvature="0"
         d="m 32.305,75.414 c 9.376,12.82 24.532,21.911 37.563,30.444 2.183,1.434 4.358,3.011 6.528,4.641 l -26.66,26.657 14.078,52.692 133.943,133.94 L 300.726,220.819 166.791,86.879 114.099,72.799 85.863,101.038 C 71.824,92.321 30.486,67.694 55.379,51.22 75.392,37.979 105.329,36.032 128.361,33.154 176.705,27.11 230.094,30.791 276.99,16.6 c 6.855,-2.078 3.934,-12.819 -2.959,-10.736 -26.341,7.973 -55.655,8.21 -83.051,10.262 3.971,-1.582 7.836,-3.386 11.501,-5.653 6.097,-3.76 0.512,-13.389 -5.616,-9.608 C 149.75,29.941 80.436,-7.115 34.341,26.672 17.692,38.875 21.624,60.812 32.305,75.414 Z M 223.95,179.317 c 2.109,2.109 2.109,5.521 0,7.636 l -58.019,58.028 c -1.055,1.05 -2.437,1.582 -3.821,1.582 -1.381,0 -2.763,-0.532 -3.817,-1.582 -2.112,-2.114 -2.112,-5.526 0,-7.636 l 58.021,-58.028 c 2.109,-2.104 5.521,-2.104 7.636,0 z m -40.036,-32.4 c 2.109,-2.115 5.521,-2.115 7.636,0 2.109,2.109 2.109,5.521 0,7.636 l -58.021,58.029 c -1.052,1.049 -2.436,1.582 -3.818,1.582 -1.382,0 -2.764,-0.533 -3.818,-1.582 -2.112,-2.115 -2.112,-5.526 0,-7.636 z M 94.869,120.033 c 0.195,0.306 0.411,0.601 0.675,0.886 1.044,1.112 2.152,2.125 3.296,3.074 -0.973,2.22 -1.523,4.667 -1.523,7.24 0,10.02 8.155,18.173 18.172,18.173 10.017,0 18.17,-8.153 18.17,-18.173 0,-10.014 -8.153,-18.172 -18.17,-18.172 -3.42,0 -6.584,1.007 -9.315,2.652 -0.938,-0.796 -1.859,-1.698 -2.755,-2.663 -0.454,-0.485 -0.933,-0.817 -1.424,-1.097 3.829,-2.685 8.466,-4.298 13.495,-4.298 12.997,0 23.57,10.573 23.57,23.572 0,12.999 -10.573,23.572 -23.57,23.572 -12.999,0 -23.572,-10.573 -23.572,-23.572 -0.002,-4.07 1.132,-7.845 2.951,-11.194 z m 8.965,11.196 c 0,-1.255 0.248,-2.441 0.617,-3.575 5.608,2.694 11.862,2.958 18.014,-0.992 1.084,-0.696 1.783,-1.587 2.181,-2.547 1.535,1.967 2.489,4.419 2.489,7.114 0,6.434 -5.215,11.649 -11.646,11.649 -6.431,-10e-4 -11.655,-5.216 -11.655,-11.649 z M 70.116,25.527 C 84.109,23.175 99.608,23.339 115.412,23.666 104.401,25.259 93.445,27.157 82.6,29.594 66.245,33.275 41.507,39.513 36.215,58.086 36.054,58.655 36.03,59.214 35.923,59.778 29.724,42.36 47.582,29.319 70.116,25.527 Z"
         id="path2"
         style="fill:#ffffff;fill-opacity:1" />
    </g>
  </g>
</svg>
