<?xml version="1.0" encoding="UTF-8" standalone="no"?>
<svg
   xmlns:dc="http://purl.org/dc/elements/1.1/"
   xmlns:cc="http://creativecommons.org/ns#"
   xmlns:rdf="http://www.w3.org/1999/02/22-rdf-syntax-ns#"
   xmlns:svg="http://www.w3.org/2000/svg"
   xmlns="http://www.w3.org/2000/svg"
   xmlns:sodipodi="http://sodipodi.sourceforge.net/DTD/sodipodi-0.dtd"
   xmlns:inkscape="http://www.inkscape.org/namespaces/inkscape"
   id="Layer_1"
   data-name="Layer 1"
   viewBox="0 0 735 852"
   version="1.1"
   sodipodi:docname="broom.helpers.svg"
   inkscape:version="1.0 (4035a4fb49, 2020-05-01)"
   inkscape:export-filename="C:\Users\josep\Documents\GitHub\broom.helpers\man\figures\broom.helpers.png"
   inkscape:export-xdpi="65.32"
   inkscape:export-ydpi="65.32">
  <metadata
     id="metadata261">
    <rdf:RDF>
      <cc:Work
         rdf:about="">
        <dc:format>image/svg+xml</dc:format>
        <dc:type
           rdf:resource="http://purl.org/dc/dcmitype/StillImage" />
        <dc:title>RStudio_Hex 2016 v7 outlines</dc:title>
      </cc:Work>
    </rdf:RDF>
  </metadata>
  <sodipodi:namedview
     pagecolor="#ffffff"
     bordercolor="#666666"
     borderopacity="1"
     objecttolerance="10"
     gridtolerance="10"
     guidetolerance="10"
     inkscape:pageopacity="0"
     inkscape:pageshadow="2"
     inkscape:window-width="3840"
     inkscape:window-height="2068"
     id="namedview259"
     showgrid="false"
     inkscape:zoom="1.1079812"
     inkscape:cx="207.53749"
     inkscape:cy="680.46566"
     inkscape:window-x="-12"
     inkscape:window-y="-12"
     inkscape:window-maximized="1"
     inkscape:current-layer="Layer_1"
     inkscape:document-rotation="0" />
  <defs
     id="defs13">
    <style
       id="style2">.cls-1,.cls-16{fill:none;}.cls-2{fill:#de5a27;}.cls-3{clip-path:url(#clip-path);}.cls-4{fill:#ed7d15;}.cls-5{clip-path:url(#clip-path-2);}.cls-6{clip-path:url(#clip-path-3);}.cls-7{fill:#144f85;}.cls-8{fill:#e6b35a;}.cls-9{fill:#fff;}.cls-10{fill:#173e6c;}.cls-11,.cls-12,.cls-13,.cls-14,.cls-15{fill:#fefefe;}.cls-11,.cls-12,.cls-15,.cls-16{stroke:#000;stroke-miterlimit:10;}.cls-11{stroke-width:5px;}.cls-11,.cls-12,.cls-14{fill-rule:evenodd;}.cls-12,.cls-15{stroke-width:3px;}.cls-16{stroke-width:0.75px;}</style>
    <clipPath
       id="clip-path">
      <polygon
         class="cls-1"
         points="-434.3 7.4 -75.6 214.5 -75.6 636.6 -434.3 845 -801 636.6 -801 214.5 -434.3 7.4"
         id="polygon4" />
    </clipPath>
    <clipPath
       id="clip-path-2">
      <polygon
         class="cls-1"
         points="817.6 227.3 1169.9 19.3 1525.6 227.3 1517.6 628.3 1169.9 832.3 817.6 633 817.6 227.3"
         id="polygon7" />
    </clipPath>
    <clipPath
       id="clip-path-3">
      <polygon
         class="cls-2"
         points="369.5 7.4 728.2 214.5 728.2 636.6 369.5 845 2.8 636.6 2.8 214.5 369.5 7.4"
         id="polygon10" />
    </clipPath>
  </defs>
  <title
     id="title15">RStudio_Hex 2016 v7 outlines</title>
  <polygon
     class="cls-2"
     points="369.5 7.4 728.2 214.5 728.2 636.6 369.5 845 2.8 636.6 2.8 214.5 369.5 7.4"
     id="polygon26" />
  <g
     class="cls-6"
     clip-path="url(#clip-path-3)"
     id="g32">
    <circle
       class="cls-7"
       cx="365.5"
       cy="437.39999"
       id="circle28"
       r="442.10001"
       style="fill:#edd4be;fill-opacity:1" />
    <ellipse
       class="cls-7"
       cx="366.9"
       cy="105.8"
       rx="315.2"
       ry="234.6"
       id="ellipse30"
       style="fill:#efcaa7;fill-opacity:1" />
  </g>
  <path
     class="cls-10"
     d="M705.6,196.2L427.8,35.8,367.5,1,307.2,35.8,29.4,196.2,0.1,213.1V637.4l29.3,16.9L310.6,816.7l56.9,32.8,56.9-32.8L705.6,654.3l29.3-16.9V213.1Zm0,425.3L367.5,816.7,29.4,621.5V231L367.5,35.8h0L705.6,231V621.5Z"
     id="path76"
     style="fill:#ac5d12;fill-opacity:1" />
  <g
     aria-label="broom.helpers"
     id="text856"
     style="font-style:normal;font-weight:normal;font-size:106.667px;line-height:1.25;font-family:sans-serif;letter-spacing:0px;word-spacing:0px;fill:#000000;fill-opacity:1;stroke:none"
     transform="matrix(0.95,0,0,1,18.375,18)">
    <path
       d="m 91.769961,557.66068 q 7.916691,0 12.447959,7.86461 4.53126,7.86461 4.53126,22.13549 0,14.42713 -4.58335,22.29173 -4.531261,7.86461 -12.604203,7.86461 -3.906262,0 -6.927105,-1.66667 -2.968759,-1.71876 -5.625018,-5.9896 h -0.885419 l -2.343757,6.6146 H 65.571962 v -81.04192 h 13.85421 v 18.95839 q 0,1.19792 -0.05208,2.50001 -0.05208,1.30209 -0.677086,9.11461 h 0.729169 q 2.552092,-4.79168 5.520851,-6.71877 2.968759,-1.92709 6.822938,-1.92709 z m -4.791682,11.77087 q -3.958346,0 -5.729184,3.69793 -1.718756,3.69793 -1.822923,13.02088 v 1.40625 q 0,10.1042 1.770839,14.21879 1.822922,4.1146 5.885435,4.1146 7.500024,0 7.500024,-18.43756 0,-18.02089 -7.604191,-18.02089 z"
       style="font-style:normal;font-variant:normal;font-weight:bold;font-stretch:normal;font-size:106.667px;font-family:'Open Sans Condensed';-inkscape-font-specification:'Open Sans Condensed, Bold';fill:#000000"
       id="path886" />
    <path
       d="m 143.22845,557.66068 q 2.5521,0 5.00002,0.78126 l -1.61459,13.43754 q -1.45834,-0.52084 -3.80209,-0.52084 -5.0521,0 -7.76044,4.01043 -2.70835,3.95835 -2.70835,11.56254 v 29.84384 h -13.85421 v -58.02101 h 11.40629 l 1.5625,9.06253 h 0.46876 q 2.29167,-5.46877 5.00001,-7.81253 2.70834,-2.34376 6.3021,-2.34376 z"
       style="font-style:normal;font-variant:normal;font-weight:bold;font-stretch:normal;font-size:106.667px;font-family:'Open Sans Condensed';-inkscape-font-specification:'Open Sans Condensed, Bold';fill:#000000"
       id="path888" />
    <path
       d="m 197.49946,587.66078 q 0,14.27088 -6.04169,22.23965 -6.04168,7.91669 -16.56255,7.91669 -6.66669,0 -11.77087,-3.64584 -5.10418,-3.64585 -7.86461,-10.46879 -2.76042,-6.87502 -2.76042,-16.04171 0,-14.11463 5.9896,-22.03132 5.9896,-7.96878 16.61463,-7.96878 10.26045,0 16.30214,8.12503 6.09377,8.07294 6.09377,21.87507 z m -30.83343,0 q 0,9.06253 1.97917,13.69796 1.97917,4.63543 6.35419,4.63543 8.33336,0 8.33336,-18.33339 0,-9.11461 -2.03126,-13.5938 -1.97917,-4.53126 -6.3021,-4.53126 -4.37502,0 -6.35419,4.53126 -1.97917,4.47919 -1.97917,13.5938 z"
       style="font-style:normal;font-variant:normal;font-weight:bold;font-stretch:normal;font-size:106.667px;font-family:'Open Sans Condensed';-inkscape-font-specification:'Open Sans Condensed, Bold';fill:#000000"
       id="path890" />
    <path
       d="m 250.20796,587.66078 q 0,14.27088 -6.04168,22.23965 -6.04169,7.91669 -16.56256,7.91669 -6.66668,0 -11.77087,-3.64584 -5.10418,-3.64585 -7.8646,-10.46879 -2.76043,-6.87502 -2.76043,-16.04171 0,-14.11463 5.9896,-22.03132 5.9896,-7.96878 16.61464,-7.96878 10.26045,0 16.30213,8.12503 6.09377,8.07294 6.09377,21.87507 z m -30.83343,0 q 0,9.06253 1.97917,13.69796 1.97918,4.63543 6.35419,4.63543 8.33336,0 8.33336,-18.33339 0,-9.11461 -2.03126,-13.5938 -1.97917,-4.53126 -6.3021,-4.53126 -4.37501,0 -6.35419,4.53126 -1.97917,4.47919 -1.97917,13.5938 z"
       style="font-style:normal;font-variant:normal;font-weight:bold;font-stretch:normal;font-size:106.667px;font-family:'Open Sans Condensed';-inkscape-font-specification:'Open Sans Condensed, Bold';fill:#000000"
       id="path892" />
    <path
       d="m 317.55192,616.77545 v -34.58344 q 0,-12.76046 -6.3021,-12.76046 -4.58335,0 -6.56252,4.58335 -1.97918,4.53127 -1.97918,14.58338 v 28.17717 h -13.95837 v -34.58344 q 0,-12.76046 -6.40627,-12.76046 -4.47918,0 -6.51044,4.53127 -2.03126,4.53126 -2.03126,14.94796 v 27.86467 h -13.85421 v -58.02101 h 10.98962 l 1.66667,7.44794 h 0.88542 q 2.08334,-4.4271 5.6771,-6.45836 3.64585,-2.08334 7.76044,-2.08334 10.62504,0 14.16671,10.05212 h 0.52084 q 4.4271,-10.05212 14.21879,-10.05212 7.70836,0 11.66671,5.41669 4.01043,5.41668 4.01043,15.83338 v 37.8647 z"
       style="font-style:normal;font-variant:normal;font-weight:bold;font-stretch:normal;font-size:106.667px;font-family:'Open Sans Condensed';-inkscape-font-specification:'Open Sans Condensed, Bold';fill:#000000"
       id="path894" />
    <path
       d="m 342.55199,609.64001 q 0,-4.06251 2.13543,-6.3021 2.1875,-2.23959 6.45835,-2.23959 4.27085,0 6.45835,2.23959 2.18751,2.18751 2.18751,6.3021 0,4.06252 -2.29167,6.30211 -2.23959,2.23959 -6.35419,2.23959 -4.21876,0 -6.40627,-2.23959 -2.18751,-2.29168 -2.18751,-6.30211 z"
       style="font-style:normal;font-variant:normal;font-weight:bold;font-stretch:normal;font-size:106.667px;font-family:'Open Sans Condensed';-inkscape-font-specification:'Open Sans Condensed, Bold';fill:#000000"
       id="path896" />
    <path
       d="m 400.31259,616.77545 v -34.58344 q 0,-12.76046 -6.40627,-12.76046 -4.79168,0 -6.71877,5.0521 -1.92709,5.00002 -1.92709,14.42713 v 27.86467 h -13.85421 v -81.04192 h 13.85421 v 18.02089 q 0,3.4896 -0.625,12.44796 h 0.72917 q 4.16668,-8.5417 12.81254,-8.5417 7.96877,0 12.03129,5.41669 4.06251,5.3646 4.06251,15.83338 v 37.8647 z"
       style="font-style:normal;font-variant:normal;font-weight:bold;font-stretch:normal;font-size:106.667px;font-family:'Open Sans Condensed';-inkscape-font-specification:'Open Sans Condensed, Bold';fill:#000000"
       id="path898" />
    <path
       d="m 446.97941,617.81712 q -10.88545,0 -17.18756,-7.70836 -6.25001,-7.76044 -6.25001,-21.92715 0,-14.37504 5.6771,-22.44798 5.6771,-8.07295 15.83338,-8.07295 9.4792,0 14.94796,6.92711 5.46877,6.87502 5.46877,19.32298 v 7.39585 h -27.86467 q 0.15625,7.76044 3.17709,11.56254 3.02085,3.75001 8.33336,3.75001 6.77086,0 13.85421,-4.21876 v 11.40628 q -6.66669,4.01043 -15.98963,4.01043 z m -2.03126,-49.47932 q -2.96876,0 -4.89585,3.17709 -1.92709,3.12501 -2.23959,9.73962 h 14.06255 q -0.10417,-6.35419 -1.92709,-9.63545 -1.82292,-3.28126 -5.00002,-3.28126 z"
       style="font-style:normal;font-variant:normal;font-weight:bold;font-stretch:normal;font-size:106.667px;font-family:'Open Sans Condensed';-inkscape-font-specification:'Open Sans Condensed, Bold';fill:#000000"
       id="path900" />
    <path
       d="M 488.59411,616.77545 H 474.7399 v -81.04192 h 13.85421 z"
       style="font-style:normal;font-variant:normal;font-weight:bold;font-stretch:normal;font-size:106.667px;font-family:'Open Sans Condensed';-inkscape-font-specification:'Open Sans Condensed, Bold';fill:#000000"
       id="path902" />
    <path
       d="m 526.04215,617.81712 q -3.75002,0 -6.66669,-1.66667 -2.86459,-1.71876 -5.3646,-5.9896 h -0.72917 q 0.83334,7.08335 0.83334,8.54169 v 23.69799 h -13.95838 v -83.64609 h 10.7292 l 2.39584,7.5521 h 0.625 q 4.32293,-8.64586 12.55212,-8.64586 7.9167,0 12.39588,7.86461 4.47918,7.81253 4.47918,22.13549 0,14.11462 -4.63543,22.13548 -4.63544,8.02086 -12.65629,8.02086 z m -4.27085,-48.38557 q -4.06251,0 -5.88544,3.8021 -1.77083,3.75001 -1.875,12.50004 v 1.82292 q 0,9.58336 1.82292,13.95838 1.82292,4.37501 6.04169,4.37501 7.29169,0 7.29169,-18.43756 0,-9.06252 -1.82293,-13.54171 -1.77084,-4.47918 -5.57293,-4.47918 z"
       style="font-style:normal;font-variant:normal;font-weight:bold;font-stretch:normal;font-size:106.667px;font-family:'Open Sans Condensed';-inkscape-font-specification:'Open Sans Condensed, Bold';fill:#000000"
       id="path904" />
    <path
       d="m 574.47981,617.81712 q -10.88546,0 -17.18756,-7.70836 -6.25002,-7.76044 -6.25002,-21.92715 0,-14.37504 5.6771,-22.44798 5.6771,-8.07295 15.83339,-8.07295 9.47919,0 14.94796,6.92711 5.46877,6.87502 5.46877,19.32298 v 7.39585 h -27.86467 q 0.15625,7.76044 3.17709,11.56254 3.02084,3.75001 8.33336,3.75001 6.77085,0 13.85421,-4.21876 v 11.40628 q -6.66669,4.01043 -15.98963,4.01043 z m -2.03126,-49.47932 q -2.96876,0 -4.89585,3.17709 -1.92709,3.12501 -2.23959,9.73962 h 14.06254 q -0.10416,-6.35419 -1.92709,-9.63545 -1.82292,-3.28126 -5.00001,-3.28126 z"
       style="font-style:normal;font-variant:normal;font-weight:bold;font-stretch:normal;font-size:106.667px;font-family:'Open Sans Condensed';-inkscape-font-specification:'Open Sans Condensed, Bold';fill:#000000"
       id="path906" />
    <path
       d="m 626.97996,557.66068 q 2.55209,0 5.00001,0.78126 l -1.61458,13.43754 q -1.45834,-0.52084 -3.8021,-0.52084 -5.0521,0 -7.76044,4.01043 -2.70834,3.95835 -2.70834,11.56254 v 29.84384 H 602.2403 v -58.02101 h 11.40628 l 1.56251,9.06253 h 0.46875 q 2.29167,-5.46877 5.00001,-7.81253 2.70835,-2.34376 6.30211,-2.34376 z"
       style="font-style:normal;font-variant:normal;font-weight:bold;font-stretch:normal;font-size:106.667px;font-family:'Open Sans Condensed';-inkscape-font-specification:'Open Sans Condensed, Bold';fill:#000000"
       id="path908" />
    <path
       d="m 669.42804,599.79623 q 0,8.48961 -5.00002,13.28129 -4.94793,4.7396 -14.63546,4.7396 -8.59378,0 -14.2188,-3.38543 v -12.03128 q 2.8646,1.97917 6.66669,3.28126 3.85418,1.30208 6.77086,1.30208 3.22917,0 4.89585,-1.5625 1.71875,-1.61459 1.71875,-4.21876 0,-2.65626 -1.77084,-4.63543 -1.77084,-1.97918 -6.51044,-4.84377 -6.3021,-3.75001 -9.06252,-7.96877 -2.70835,-4.27085 -2.70835,-10.05212 0,-7.39586 5.0521,-11.71879 5.10419,-4.32293 13.95838,-4.32293 7.70836,0 14.5313,4.06252 l -4.53127,9.94794 q -5.57293,-3.02084 -9.7917,-3.02084 -2.65625,0 -4.01042,1.40626 -1.30209,1.40625 -1.30209,3.43751 0,2.34375 1.61459,4.16668 1.66667,1.82292 6.14585,4.53126 5.41668,3.28126 7.60419,5.57293 2.18751,2.29168 3.38543,5.20835 1.19792,2.91668 1.19792,6.82294 z"
       style="font-style:normal;font-variant:normal;font-weight:bold;font-stretch:normal;font-size:106.667px;font-family:'Open Sans Condensed';-inkscape-font-specification:'Open Sans Condensed, Bold';fill:#000000"
       id="path910" />
  </g>
  <g
     id="g854"
     transform="matrix(0.69426692,0,0,0.69426692,189.76734,166.51572)">
    <path
       d="M 497.54297,47.210938 286.84766,257.90625 254.09375,225.15625 464.78906,14.460938 c 9.04297,-9.042969 23.70313,-9.039063 32.7461,0.0039 2.78906,2.789062 4.71875,6.105468 5.78125,9.632812 2.40625,7.917969 0.48047,16.859375 -5.77344,23.113282 z m 0,0"
       fill="#7c4242"
       id="path2" />
    <path
       d="M 497.54297,47.210938 286.84766,257.90625 269.50781,240.56641 480.20313,29.871094 c 6.2539,-6.253906 15.1914,-8.179688 23.11328,-5.773438 2.40625,7.917969 0.48047,16.859375 -5.77344,23.113282 z m 0,0"
       fill="#936a60"
       id="path4" />
    <path
       d="m 269.84766,264.02734 -26.69532,-26.6914 c -35.71875,-35.71875 -93.63281,-35.71875 -129.35156,0 L 7.695312,343.44531 l 24.703126,24.70313 61.8125,-34.8086 -34.8125,61.8125 14.863281,14.85938 41.867191,-23.57422 -23.578129,41.86719 71.187499,71.18359 106.10938,-106.10937 c 35.71875,-35.71875 35.71875,-93.62891 0,-129.35157 z m 0,0"
       fill="#ff9216"
       id="path6" />
    <path
       d="m 263.38281,257.5625 -20.22656,-20.22656 c -35.72266,-35.71875 -93.63281,-35.71875 -129.35547,0 L 7.695312,343.44531 27.921875,363.67187 134.03125,257.5625 c 35.71875,-35.71875 93.63281,-35.71875 129.35156,0 z m 0,0"
       fill="#e8590c"
       id="path8" />
    <path
       d="m 308.03906,274.28125 c -7.71484,7.71484 -20.22265,7.71484 -27.9375,0 l -47.19922,-47.19922 c -3.85937,-3.85937 -5.78906,-8.91016 -5.78906,-13.96875 0.008,-5.05469 1.93359,-10.11328 5.78906,-13.96875 7.71094,-7.71094 20.22266,-7.71094 27.9336,0 l 47.20312,47.20313 c 3.85938,3.85937 5.78516,8.90625 5.78516,13.96875 -0.004,5.05078 -1.9336,10.11328 -5.78516,13.96484 z m 0,0"
       fill="#ed2867"
       id="path10" />
    <path
       d="m 308.03906,274.28125 c -7.71484,7.71484 -20.22265,7.71484 -27.9375,0 l -22.95703,-22.95703 c -3.85547,-3.85156 -5.78515,-8.90625 -5.78515,-13.96875 0,-5.0586 1.92968,-10.11328 5.78515,-13.96875 7.71094,-7.71094 20.22266,-7.71094 27.93359,0 l 22.96094,22.96094 c 3.85938,3.85937 5.78516,8.90625 5.78516,13.96875 -0.004,5.05078 -1.9336,10.11328 -5.78516,13.96484 z m 0,0"
       fill="#ff694f"
       id="path12" />
    <path
       d="m 502.97656,9.019531 c -12.02734,-12.027343 -31.60156,-12.027343 -43.6289,0 L 348.92578,119.44141 c -3.0039,3.0039 -3.0039,7.8789 0,10.88281 3.00391,3.0039 7.875,3 10.87891,0 L 470.22656,19.902344 c 6.03125,-6.03125 15.84375,-6.027344 21.8711,0 6.03125,6.03125 6.03125,15.839844 0,21.871094 L 303.21875,230.65234 281.34766,208.78125 340.82812,149.30078 c 3.00391,-3.00391 3.00391,-7.875 0,-10.87891 -3.0039,-3.0039 -7.875,-3.0039 -10.88281,0 l -59.47656,59.47657 -4.19141,-4.19141 c -10.70312,-10.69922 -28.11328,-10.69922 -38.8164,0 -4.85547,4.85547 -7.66797,11.21094 -8.00391,18.02344 -36.53515,-16.53516 -81.10547,-9.82422 -111.09375,20.16406 L 2.253906,338.00391 c -3.003906,3.0039 -3.003906,7.875 0,10.8789 l 24.703125,24.70703 c 2.441407,2.4375 6.207031,2.95704 9.214844,1.26172 L 73.996094,353.55078 52.699219,391.375 c -1.695313,3.00781 -1.179688,6.77734 1.261719,9.21875 l 14.863281,14.85937 c 2.441406,2.44141 6.207031,2.95704 9.214843,1.26563 l 17.878907,-10.06641 -10.066407,17.875 c -1.695312,3.00782 -1.179687,6.77735 1.261719,9.21485 l 71.187499,71.1875 c 1.5,1.5039 3.46875,2.2539 5.4375,2.2539 1.96875,0 3.9375,-0.75 5.44141,-2.2539 l 49.75,-49.75 c 3.0039,-3.00391 3.0039,-7.875 0,-10.87891 -3.00391,-3.00781 -7.875,-3.00391 -10.87891,0 l -44.30859,44.30859 -61.61719,-61.61718 20.71094,-36.77735 c 1.6914,-3.00781 1.17578,-6.77343 -1.26563,-9.21484 -2.4414,-2.44141 -6.20703,-2.95703 -9.21484,-1.26563 l -36.777345,20.71094 -6.605469,-6.60547 31.941404,-56.72265 c 1.69532,-3.00782 1.17969,-6.77344 -1.261716,-9.21485 -2.441406,-2.4414 -6.207032,-2.95703 -9.214844,-1.26562 L 33.710938,358.58203 18.578125,343.44531 119.24609,242.77734 c 21.1836,-21.18359 50.98438,-28.61328 78.22657,-22.3164 -0.82422,0.125 -1.64063,0.23437 -2.47266,0.38281 -22.26953,3.96875 -44.65625,16.27344 -63.03516,34.65234 -3.00781,3.00391 -3.00781,7.87891 0,10.88282 3.00391,3.0039 7.875,3.0039 10.87891,0 32.66016,-32.66407 77.03125,-41.4375 98.90625,-19.56641 l 9.3125,9.3125 9.31641,9.3125 c 21.86718,21.87891 13.08984,66.24609 -19.57032,98.90625 -3.0039,3.00391 -3.0039,7.875 0,10.87891 1.50391,1.5039 3.47266,2.2539 5.44141,2.2539 1.96875,0 3.9375,-0.75 5.4375,-2.2539 18.37891,-18.37891 30.6875,-40.76563 34.65625,-63.03907 0.15625,-0.87109 0.26953,-1.73047 0.39844,-2.59765 1.4414,6.19922 2.20312,12.59765 2.20312,19.11718 0,22.37891 -8.71484,43.41407 -24.53906,59.23829 l -34.8125,34.8164 c -3.00781,3.00391 -3.00781,7.875 0,10.87891 3.00391,3.0039 7.875,3.0039 10.87891,0 l 34.8164,-34.81641 c 18.73047,-18.72656 29.04297,-43.6289 29.04297,-70.11719 0,-14.3789 -3.04687,-28.28515 -8.82031,-40.99609 6.53906,-0.34375 12.98047,-3.00391 17.96484,-7.98437 5.1836,-5.1836 8.03906,-12.07813 8.03906,-19.40625 0,-7.03907 -2.63671,-13.66407 -7.42968,-18.76954 L 502.97656,52.652344 c 12.03125,-12.027344 12.03125,-31.601563 0,-43.632813 z M 302.59375,268.83984 c -4.69922,4.70313 -12.35156,4.70313 -17.05078,0 l -47.19922,-47.19922 c -2.27734,-2.27734 -3.53516,-5.30468 -3.53516,-8.52343 0,-3.22266 1.25782,-6.25 3.53516,-8.52735 2.34766,-2.35156 5.4375,-3.52734 8.52344,-3.52734 3.08984,0 6.17968,1.17578 8.52734,3.52734 l 42.38281,42.38282 c 0.004,0 0.004,0.004 0.008,0.004 l 4.80859,4.8125 h 0.004 c 2.27734,2.27735 3.52734,5.30469 3.52734,8.52735 0,3.21875 -1.25391,6.24609 -3.53125,8.52343 z m 0,0"
       id="path14" />
  </g>
</svg>
