<?xml version="1.0" encoding="UTF-8" standalone="no"?>
<!DOCTYPE svg PUBLIC "-//W3C//DTD SVG 1.1//EN" "http://www.w3.org/Graphics/SVG/1.1/DTD/svg11.dtd">
<svg width="100%" height="100%" viewBox="0 0 650 750" version="1.1" xmlns="http://www.w3.org/2000/svg" xmlns:xlink="http://www.w3.org/1999/xlink" xml:space="preserve" xmlns:serif="http://www.serif.com/" style="fill-rule:evenodd;clip-rule:evenodd;stroke-linejoin:round;stroke-miterlimit:1.5;">
    <g transform="matrix(1,0,0,1,-175.24,-125)">
        <g transform="matrix(0.991322,0,0,0.991322,-106.997,-74.5951)">
            <path d="M612.311,201.342L939.913,390.484L939.913,768.766L612.311,957.907L284.708,768.766L284.708,390.484L612.311,201.342Z" style="fill:none;"/>
            <clipPath id="_clip1">
                <path d="M612.311,201.342L939.913,390.484L939.913,768.766L612.311,957.907L284.708,768.766L284.708,390.484L612.311,201.342Z"/>
            </clipPath>
            <g clip-path="url(#_clip1)">
                <g transform="matrix(1.00875,0,0,1.00875,107.934,75.248)">
                    <path d="M500,125L500,875" style="fill:none;stroke:black;stroke-width:120.83px;"/>
                </g>
                <g transform="matrix(1.00875,0,0,1.00875,107.934,75.248)">
                    <path d="M175.248,312.496L824.76,687.496" style="fill:none;stroke:black;stroke-width:120.83px;"/>
                </g>
                <g transform="matrix(1.00875,0,0,1.00875,107.934,75.248)">
                    <path d="M175.248,687.496L824.76,313.796" style="fill:none;stroke:black;stroke-width:120.83px;"/>
                </g>
                <g transform="matrix(2.13217,0,0,2.13217,-100.532,58.7476)">
                    <circle cx="487.974" cy="155.584" r="70.967" style="fill:rgb(255,177,59);"/>
                    <path d="M487.974,70.818C441.191,70.818 403.208,108.8 403.208,155.584C403.208,202.367 441.191,240.349 487.974,240.349C534.757,240.349 572.74,202.367 572.74,155.584C572.74,108.8 534.757,70.818 487.974,70.818ZM487.974,84.617C527.142,84.617 558.941,116.416 558.941,155.584C558.941,194.751 527.142,226.55 487.974,226.55C448.806,226.55 417.007,194.751 417.007,155.584C417.007,116.416 448.806,84.617 487.974,84.617Z"/>
                </g>
                <g transform="matrix(2.13217,0,0,2.13217,-755.737,437.03)">
                    <circle cx="487.974" cy="155.584" r="70.967" style="fill:rgb(255,177,59);"/>
                    <path d="M487.974,70.818C441.191,70.818 403.208,108.8 403.208,155.584C403.208,202.367 441.191,240.349 487.974,240.349C534.757,240.349 572.74,202.367 572.74,155.584C572.74,108.8 534.757,70.818 487.974,70.818ZM487.974,84.617C527.142,84.617 558.941,116.416 558.941,155.584C558.941,194.751 527.142,226.55 487.974,226.55C448.806,226.55 417.007,194.751 417.007,155.584C417.007,116.416 448.806,84.617 487.974,84.617Z"/>
                </g>
                <g transform="matrix(2.13217,0,0,2.13217,-755.737,58.7476)">
                    <circle cx="487.974" cy="155.584" r="70.967" style="fill:rgb(255,177,59);"/>
                    <path d="M487.974,70.818C441.191,70.818 403.208,108.8 403.208,155.584C403.208,202.367 441.191,240.349 487.974,240.349C534.757,240.349 572.74,202.367 572.74,155.584C572.74,108.8 534.757,70.818 487.974,70.818ZM487.974,84.617C527.142,84.617 558.941,116.416 558.941,155.584C558.941,194.751 527.142,226.55 487.974,226.55C448.806,226.55 417.007,194.751 417.007,155.584C417.007,116.416 448.806,84.617 487.974,84.617Z"/>
                </g>
                <g transform="matrix(2.13217,0,0,2.13217,-428.134,-130.389)">
                    <circle cx="487.974" cy="155.584" r="70.967" style="fill:rgb(255,177,59);"/>
                    <path d="M487.974,70.818C441.191,70.818 403.208,108.8 403.208,155.584C403.208,202.367 441.191,240.349 487.974,240.349C534.757,240.349 572.74,202.367 572.74,155.584C572.74,108.8 534.757,70.818 487.974,70.818ZM487.974,84.617C527.142,84.617 558.941,116.416 558.941,155.584C558.941,194.751 527.142,226.55 487.974,226.55C448.806,226.55 417.007,194.751 417.007,155.584C417.007,116.416 448.806,84.617 487.974,84.617Z"/>
                </g>
                <g transform="matrix(1.00875,0,0,1.00875,107.934,75.248)">
                    <path d="M500,125L500,875" style="fill:none;stroke:rgb(255,177,59);stroke-width:62.5px;"/>
                </g>
                <g transform="matrix(1.00875,0,0,1.00875,107.934,75.248)">
                    <path d="M175.248,312.496L824.76,687.496" style="fill:none;stroke:rgb(255,177,59);stroke-width:62.5px;"/>
                </g>
                <g transform="matrix(1.00875,0,0,1.00875,107.934,75.248)">
                    <path d="M175.248,687.496L824.76,313.796" style="fill:none;stroke:rgb(255,177,59);stroke-width:62.5px;"/>
                </g>
                <path d="M612.311,201.342L939.913,390.484L939.913,768.766L612.311,957.907L284.708,768.766L284.708,390.484L612.311,201.342ZM314.13,407.47L314.13,751.779L612.311,923.934L910.491,751.779L910.491,407.47L612.311,235.316L314.13,407.47Z"/>
                <g transform="matrix(0.870896,-0.502812,0.428851,0.742792,-69.857,604.764)">
                    <rect x="350" y="559.959" width="499.94" height="194.283"/>
                </g>
                <g transform="matrix(0.876407,-0.505994,0.542961,0.940436,-1.83304,726.721)">
                    <g transform="matrix(137.799,0,0,137.799,424.271,439.227)">
                        <path d="M0.378,-0.507L0.276,-0.507L0.276,-0.53C0.276,-0.553 0.271,-0.574 0.26,-0.591C0.249,-0.608 0.23,-0.616 0.204,-0.616C0.19,-0.616 0.179,-0.613 0.17,-0.608C0.161,-0.603 0.154,-0.596 0.149,-0.588C0.144,-0.579 0.14,-0.57 0.138,-0.559C0.136,-0.548 0.135,-0.536 0.135,-0.524C0.135,-0.51 0.136,-0.498 0.137,-0.489C0.138,-0.48 0.14,-0.471 0.144,-0.464C0.148,-0.457 0.154,-0.45 0.162,-0.445C0.169,-0.44 0.18,-0.434 0.193,-0.429L0.271,-0.398C0.294,-0.389 0.312,-0.379 0.326,-0.368C0.34,-0.356 0.351,-0.342 0.359,-0.327C0.366,-0.311 0.371,-0.293 0.374,-0.273C0.377,-0.252 0.378,-0.229 0.378,-0.203C0.378,-0.173 0.375,-0.145 0.369,-0.12C0.363,-0.094 0.353,-0.072 0.34,-0.054C0.326,-0.035 0.308,-0.021 0.285,-0.01C0.262,0.001 0.235,0.006 0.202,0.006C0.177,0.006 0.154,0.002 0.133,-0.007C0.112,-0.016 0.093,-0.028 0.078,-0.043C0.063,-0.058 0.05,-0.076 0.042,-0.097C0.033,-0.117 0.028,-0.139 0.028,-0.163L0.028,-0.201L0.13,-0.201L0.13,-0.169C0.13,-0.15 0.135,-0.134 0.147,-0.119C0.158,-0.103 0.176,-0.096 0.202,-0.096C0.219,-0.096 0.233,-0.098 0.243,-0.104C0.252,-0.109 0.26,-0.116 0.265,-0.125C0.27,-0.134 0.274,-0.146 0.275,-0.159C0.276,-0.171 0.276,-0.186 0.276,-0.202C0.276,-0.221 0.275,-0.236 0.274,-0.248C0.273,-0.26 0.27,-0.27 0.266,-0.277C0.261,-0.284 0.255,-0.29 0.248,-0.295C0.24,-0.3 0.23,-0.305 0.217,-0.31L0.144,-0.34C0.1,-0.358 0.07,-0.382 0.056,-0.412C0.041,-0.441 0.033,-0.478 0.033,-0.523C0.033,-0.55 0.037,-0.575 0.044,-0.599C0.051,-0.623 0.062,-0.644 0.077,-0.661C0.091,-0.678 0.109,-0.692 0.131,-0.703C0.152,-0.713 0.178,-0.718 0.208,-0.718C0.233,-0.718 0.257,-0.713 0.278,-0.704C0.299,-0.695 0.317,-0.682 0.332,-0.667C0.363,-0.635 0.378,-0.598 0.378,-0.557L0.378,-0.507Z" style="fill:rgb(255,177,59);fill-rule:nonzero;"/>
                    </g>
                    <g transform="matrix(137.799,0,0,137.799,480.218,439.227)">
                        <path d="M0.394,-0.712L0.248,0L0.158,0L0.013,-0.712L0.121,-0.712L0.202,-0.215L0.204,-0.215L0.286,-0.712L0.394,-0.712Z" style="fill:rgb(255,177,59);fill-rule:nonzero;"/>
                    </g>
                    <g transform="matrix(137.799,0,0,137.799,536.302,439.227)">
                        <path d="M0.042,-0.544C0.042,-0.573 0.047,-0.598 0.057,-0.62C0.067,-0.642 0.08,-0.66 0.097,-0.675C0.113,-0.689 0.131,-0.7 0.152,-0.707C0.172,-0.714 0.192,-0.718 0.213,-0.718C0.234,-0.718 0.254,-0.714 0.275,-0.707C0.295,-0.7 0.313,-0.689 0.33,-0.675C0.346,-0.66 0.359,-0.642 0.369,-0.62C0.379,-0.598 0.384,-0.573 0.384,-0.544L0.384,-0.508L0.282,-0.508L0.282,-0.544C0.282,-0.569 0.275,-0.587 0.262,-0.599C0.248,-0.61 0.232,-0.616 0.213,-0.616C0.194,-0.616 0.178,-0.61 0.165,-0.599C0.151,-0.587 0.144,-0.569 0.144,-0.544L0.144,-0.168C0.144,-0.143 0.151,-0.125 0.165,-0.114C0.178,-0.102 0.194,-0.096 0.213,-0.096C0.232,-0.096 0.248,-0.102 0.262,-0.114C0.275,-0.125 0.282,-0.143 0.282,-0.168L0.282,-0.302L0.201,-0.302L0.201,-0.392L0.384,-0.392L0.384,-0.168C0.384,-0.138 0.379,-0.112 0.369,-0.091C0.359,-0.07 0.346,-0.052 0.33,-0.038C0.313,-0.023 0.295,-0.012 0.275,-0.005C0.254,0.002 0.234,0.006 0.213,0.006C0.192,0.006 0.172,0.002 0.152,-0.005C0.131,-0.012 0.113,-0.023 0.097,-0.038C0.08,-0.052 0.067,-0.07 0.057,-0.091C0.047,-0.112 0.042,-0.138 0.042,-0.168L0.042,-0.544Z" style="fill:rgb(255,177,59);fill-rule:nonzero;"/>
                    </g>
                    <g transform="matrix(137.799,0,0,137.799,595.004,439.227)">
                        <path d="M0.048,0L0.048,-0.712L0.15,-0.712L0.15,-0.102L0.352,-0.102L0.352,0L0.048,0Z" style="fill:rgb(255,177,59);fill-rule:nonzero;"/>
                    </g>
                    <g transform="matrix(137.799,0,0,137.799,645.99,439.227)">
                        <rect x="0.051" y="-0.712" width="0.102" height="0.712" style="fill:rgb(255,177,59);fill-rule:nonzero;"/>
                    </g>
                    <g transform="matrix(137.799,0,0,137.799,674.101,439.227)">
                        <path d="M0.115,0L0.115,-0.616L-0.003,-0.616L-0.003,-0.712L0.335,-0.712L0.335,-0.616L0.217,-0.616L0.217,0L0.115,0Z" style="fill:rgb(255,177,59);fill-rule:nonzero;"/>
                    </g>
                    <g transform="matrix(137.799,0,0,137.799,719.85,439.227)">
                        <path d="M0.048,0L0.048,-0.712L0.352,-0.712L0.352,-0.616L0.15,-0.616L0.15,-0.407L0.326,-0.407L0.326,-0.311L0.15,-0.311L0.15,-0.102L0.352,-0.102L0.352,0L0.048,0Z" style="fill:rgb(255,177,59);fill-rule:nonzero;"/>
                    </g>
                </g>
            </g>
        </g>
    </g>
</svg>
