<?xml version="1.0" encoding="UTF-8" standalone="no"?>
<!-- Created with Inkscape (http://www.inkscape.org/) -->

<svg
   xmlns:dc="http://purl.org/dc/elements/1.1/"
   xmlns:cc="http://creativecommons.org/ns#"
   xmlns:rdf="http://www.w3.org/1999/02/22-rdf-syntax-ns#"
   xmlns:svg="http://www.w3.org/2000/svg"
   xmlns="http://www.w3.org/2000/svg"
   xmlns:sodipodi="http://sodipodi.sourceforge.net/DTD/sodipodi-0.dtd"
   xmlns:inkscape="http://www.inkscape.org/namespaces/inkscape"
   width="160.0009"
   height="101.98864"
   id="svg3105"
   version="1.1"
   inkscape:version="0.48.5 r10040"
   sodipodi:docname="logo.svg"
   inkscape:export-filename="/Users/gaborcsardi/works/magrittr/inst/logo.png"
   inkscape:export-xdpi="225"
   inkscape:export-ydpi="225">
  <defs
     id="defs3107" />
  <sodipodi:namedview
     id="base"
     pagecolor="#ffffff"
     bordercolor="#666666"
     borderopacity="1.0"
     inkscape:pageopacity="0.0"
     inkscape:pageshadow="2"
     inkscape:zoom="5.53962"
     inkscape:cx="84.404217"
     inkscape:cy="50.994321"
     inkscape:document-units="px"
     inkscape:current-layer="layer1"
     showgrid="false"
     inkscape:window-width="1676"
     inkscape:window-height="1005"
     inkscape:window-x="4"
     inkscape:window-y="0"
     inkscape:window-maximized="1"
     units="px"
     fit-margin-top="0"
     fit-margin-left="0"
     fit-margin-right="0"
     fit-margin-bottom="0" />
  <metadata
     id="metadata3110">
    <rdf:RDF>
      <cc:Work
         rdf:about="">
        <dc:format>image/svg+xml</dc:format>
        <dc:type
           rdf:resource="http://purl.org/dc/dcmitype/StillImage" />
        <dc:title />
      </cc:Work>
    </rdf:RDF>
  </metadata>
  <g
     inkscape:label="Layer 1"
     inkscape:groupmode="layer"
     id="layer1"
     transform="translate(0.07884927,-913.21539)">
    <flowRoot
       xml:space="preserve"
       id="flowRoot3906"
       style="font-size:40px;font-style:normal;font-weight:normal;line-height:125%;letter-spacing:0px;word-spacing:0px;fill:#000000;fill-opacity:1;stroke:none;font-family:Sans"
       transform="matrix(0.88506753,0,0,0.89589979,-5.3967371,109.46595)"><flowRegion
         id="flowRegion3908"><rect
           id="rect3910"
           width="129"
           height="117"
           x="96"
           y="151.36218" /></flowRegion><flowPara
         id="flowPara3912" /></flowRoot>    <rect
       style="fill:#3f3221;fill-opacity:0.98039216;stroke:#b4ac9f;stroke-width:0.10241286;stroke-miterlimit:4;stroke-opacity:1;stroke-dasharray:none;stroke-dashoffset:0"
       id="rect4412"
       width="159.875"
       height="29.874994"
       x="-0.015454349"
       y="985.26654" />
    <path
       inkscape:connector-curvature="0"
       id="path4083"
       d="m 117.06863,1008.3153 c 0,-0.2084 0.0943,-0.5034 0.20962,-0.6557 0.18239,-0.2406 0.8919,-2.3395 2.63388,-7.79091 l 0.44553,-1.3944 -0.48989,0.32512 c -0.71321,0.47348 -0.87409,0.059 -0.20042,-0.51649 0.31533,-0.26932 0.83757,-0.83461 1.16061,-1.25633 0.512,-0.66806 0.76747,-0.76347 1.98771,-0.74216 1.24554,0.0215 1.43746,0.10636 1.7366,0.76637 0.30683,0.67693 0.2699,0.96532 -0.42182,3.2946 -0.87346,2.9408 -0.84196,3.5611 0.15329,3.0205 1.50365,-0.8169 1.89789,-1.3984 2.91626,-4.30181 0.74024,-2.11033 1.13129,-2.90096 1.43467,-2.90096 0.57258,0 0.54765,0.16522 -0.53476,3.53456 -0.99803,3.10721 -0.9827,3.69261 0.0832,3.18981 0.76145,-0.3591 3.49202,-3.80471 4.34888,-5.48766 0.40884,-0.80316 0.75104,-1.18394 0.97058,-1.08029 0.18653,0.0876 0.83886,8.7e-4 1.44947,-0.19289 2.18157,-0.69349 2.95818,1.03899 1.7391,3.87944 -0.72703,1.6937 -0.85284,3.0985 -0.3162,3.5307 0.66285,0.5341 2.25279,-1.0469 2.54573,-2.5315 0.59308,-3.00529 1.94736,-4.84217 3.57013,-4.84217 1.37525,0 1.99567,1.69936 1.26242,3.45786 -0.39751,0.95351 -1.77818,2.16961 -3.01207,2.65331 -1.00467,0.3936 -1.0661,0.585 -0.42059,1.3095 0.59064,0.663 1.696,0.4326 3.57802,-0.7458 1.4097,-0.8825 1.76103,-0.7452 0.83696,0.3271 -1.51652,1.7599 -3.66954,2.5063 -4.73408,1.6412 -0.31671,-0.2574 -0.64434,-0.7359 -0.72814,-1.0633 l -0.15234,-0.5953 -0.67417,0.5954 c -0.3709,0.3274 -1.04259,0.7863 -1.49288,1.0196 -0.80118,0.4152 -0.8315,0.4052 -1.42338,-0.4673 -0.80719,-1.1898 -0.77949,-2.4744 0.0999,-4.63521 1.14764,-2.81976 0.91288,-3.32897 -1.01351,-2.19869 -1.20647,0.70783 -1.29022,0.83209 -1.9222,2.8536 -0.36345,1.1624 -1.17339,3.4577 -1.79977,5.1005 -0.88521,2.3213 -1.24375,2.9871 -1.60882,2.9871 -0.26958,0 -0.46969,-0.1944 -0.46969,-0.4562 0,-0.4841 0.43014,-1.6309 0.70318,-1.8751 0.24501,-0.2192 1.85292,-4.9553 1.67933,-4.9467 -0.0826,0 -0.65923,0.6513 -1.28114,1.438 -1.29227,1.6347 -2.24072,2.047 -3.10113,1.3478 -0.53007,-0.4308 -0.62577,-0.4224 -1.34149,0.1188 -1.42378,1.0767 -3.23776,0.5723 -3.23776,-0.9002 0,-0.3131 0.37004,-1.4807 0.8223,-2.5947 0.85235,-2.09907 1.03513,-3.33426 0.52872,-3.57318 -0.43717,-0.20635 -1.17044,0.21537 -1.7241,0.99149 -0.45042,0.63115 -1.92011,4.64359 -2.33334,6.37019 -0.44385,1.8544 -1.61289,4.3712 -2.03038,4.3712 -0.23788,0 -0.43244,-0.1704 -0.43244,-0.3788 z m 23.75516,-7.2435 c 0.4393,-0.1853 1.20089,-0.7264 1.6926,-1.20261 0.74442,-0.7211 0.8819,-1.01772 0.82227,-1.77583 -0.0594,-0.75543 -0.18382,-0.92629 -0.73268,-1.00421 -0.91094,-0.12954 -1.66126,0.55939 -2.2489,2.06514 -0.44003,1.12711 -0.64713,2.25441 -0.4144,2.25441 0.0452,0 0.44182,-0.1516 0.88111,-0.3369 z m -68.86868,6.3758 c 0,-0.2048 0.145059,-0.631 0.322363,-0.9471 0.177288,-0.3162 0.699038,-1.8207 1.159427,-3.3433 0.460388,-1.5226 1.002601,-3.25601 1.204917,-3.85201 0.463318,-1.36459 0.462859,-1.36978 -0.102087,-1.18657 -0.705303,0.22882 -0.570621,-0.0465 0.420336,-0.86016 0.713377,-0.58555 1.147688,-0.71959 2.185688,-0.67442 0.712455,0.0313 1.422058,0.15336 1.576861,0.27208 0.461909,0.35407 0.323708,1.47527 -0.423235,3.43368 -0.850605,2.23 -0.912849,3.1588 -0.211638,3.1588 0.646287,0 2.091164,-1.8052 2.091164,-2.6128 0,-1.70001 2.320861,-4.67267 3.648455,-4.67267 0.210139,0 0.712987,0.41051 1.117453,0.91212 0.404505,0.50161 0.770322,0.7825 0.812902,0.62418 0.04261,-0.15841 0.224931,-0.53602 0.405524,-0.83929 0.250038,-0.42007 0.394196,-0.47061 0.605481,-0.21234 0.212778,0.26002 0.142134,0.70556 -0.30393,1.9135 -0.833677,2.2586 -1.270873,4.5212 -0.950197,4.9188 0.705415,0.875 2.887716,-1.6168 4.812908,-5.49559 0.65634,-1.32228 1.284808,-2.40415 1.396457,-2.40415 0.268956,0 0.25638,0.20669 -0.0572,0.93299 -0.208827,0.48387 -0.15878,0.82718 0.25275,1.73544 1.150158,2.53811 1.0443,3.72841 -0.472055,5.31081 -0.834302,0.8707 -1.516742,0.983 -1.732717,0.2851 -0.369181,-1.1928 0.524158,-2.1217 1.011353,-1.0518 0.200569,0.4402 0.282393,0.3619 0.599127,-0.5735 0.201739,-0.5958 0.366918,-1.3303 0.366918,-1.6321 0,-0.72951 -0.472769,-2.3842 -0.681028,-2.3842 -0.09097,0 -0.390437,0.55735 -0.665596,1.23849 -1.682782,4.16491 -4.38843,6.35871 -5.390976,4.37131 -0.222221,-0.4408 -0.437267,-0.8574 -0.477744,-0.9258 -0.04027,-0.068 -0.373175,0.2315 -0.739314,0.6666 -0.366195,0.435 -1.025879,0.8625 -1.466098,0.9497 -0.673552,0.1336 -0.908106,0.019 -1.48014,-0.7262 l -0.679874,-0.885 -0.842244,0.8611 c -0.988484,1.0105 -1.50087,1.077 -2.144937,0.2782 -0.655152,-0.8126 -0.588589,-1.82 0.273608,-4.13991 0.839157,-2.25792 0.734183,-2.76393 -0.457613,-2.20596 -0.815251,0.38165 -1.029452,0.83839 -2.497355,5.32587 -1.374714,4.2025 -1.633564,4.8015 -2.076695,4.8051 -0.226155,8e-4 -0.4112,-0.1643 -0.4112,-0.369 z m 11.84842,-5.2185 c 0.914996,-1.3257 1.343627,-2.75771 1.137731,-3.80042 -0.454693,-2.3021 -2.289699,-1.69235 -3.443287,1.14411 -0.452779,1.11381 -0.50769,3.47161 -0.08547,3.68281 0.896961,0.4489 1.573128,0.1586 2.391038,-1.0265 z m -68.559227,3.8485 c -0.827788,-0.3255 -1.503172,-1.0627 -1.945581,-2.1238 l -0.336692,-0.8075 -0.935814,0.9327 c -1.370569,1.366 -1.630497,0.7289 -0.434784,-1.0656 1.018278,-1.5283 1.620716,-2.7935 1.624466,-3.41161 0.0046,-0.74244 1.128762,-3.31053 1.90774,-4.35767 0.968503,-1.30193 2.250575,-2.28399 2.983579,-2.28546 0.689243,-8.6e-4 1.920402,1.49664 1.920402,2.33661 0,0.61316 -1.234727,2.32494 -1.67699,2.32494 -0.484821,0 -0.470274,-0.93934 0.02468,-1.5928 0.346465,-0.45735 0.471893,-0.88407 0.373238,-1.26959 -0.326359,-1.2753 -1.491489,-1.00744 -2.633242,0.60537 -2.033251,2.87209 -2.675565,7.61581 -1.219319,9.00501 1.144317,1.0917 4.391447,0.2461 4.875009,-1.2694 0.117577,-0.3686 0.341103,-1.0937 0.49672,-1.6114 0.354153,-1.1781 1.547787,-2.76836 2.570161,-3.42407 0.625722,-0.40125 0.894595,-0.43467 1.363825,-0.16957 0.529538,0.2993 0.573028,0.456 0.462898,1.66783 -0.139365,1.53351 -0.757797,2.33421 -2.581028,3.34191 -1.136252,0.6281 -1.337959,1.0276 -0.834124,1.6525 0.468377,0.5809 1.446764,0.3966 2.550373,-0.4805 1.308085,-1.0396 1.734338,-1.6552 2.085509,-3.0124 0.340463,-1.31591 1.548848,-3.00208 2.45894,-3.43122 1.324459,-0.62454 2.397061,1.22989 1.415499,2.44732 -0.446294,0.5535 -0.887323,0.3018 -0.73522,-0.41961 0.05998,-0.2847 0.0239,-0.6887 -0.08014,-0.89771 -0.365195,-0.73286 -1.37768,0.20421 -1.993691,1.84522 -0.648865,1.7286 -0.693987,2.2095 -0.306278,3.2649 0.351604,0.9571 1.038794,0.9599 2.620202,0.01 1.723831,-1.0348 2.103778,-1.5103 3.00568,-3.761 0.74951,-1.87036 1.219933,-2.51207 1.545519,-2.1083 0.07689,0.0954 -0.297705,1.27409 -0.832518,2.6192 -0.534811,1.3451 -0.972375,2.8707 -0.972375,3.3902 0,0.9201 0.0228,0.9411 0.881119,0.8152 0.484615,-0.071 1.066165,-0.2299 1.292314,-0.3531 0.595718,-0.3246 0.517684,0.3299 -0.0872,0.7314 -0.903482,0.5997 -2.134419,0.4075 -2.710617,-0.4233 l -0.523067,-0.7543 -1.163905,0.7251 c -1.570672,0.9785 -2.837374,0.9624 -3.65054,-0.047 -0.595009,-0.7379 -0.641199,-0.7492 -1.073832,-0.2636 -1.155042,1.2964 -3.541569,1.6972 -4.368598,0.7335 l -0.508677,-0.5927 -1.237113,0.7707 c -1.385775,0.8633 -2.616226,1.1056 -3.616469,0.7124 z m 6.875828,-4.2771 c 0.464509,-0.4256 1.027241,-1.0486 1.250521,-1.3842 0.416311,-0.62591 0.560315,-1.63033 0.233732,-1.63033 -0.382386,0 -1.286729,0.98142 -1.948611,2.11463 -1.075834,1.8418 -0.911423,2.1605 0.464358,0.8999 z m 33.446103,3.1084 c -0.420007,-0.3176 -0.76365,-0.7168 -0.76365,-0.8871 0,-0.1702 -0.271577,-0.6217 -0.603506,-1.0033 -0.580641,-0.6674 -0.586282,-0.7051 -0.148523,-0.9957 0.250237,-0.1661 0.517716,-0.6673 0.59439,-1.1137 0.222007,-1.29281 1.002031,-2.61935 2.042144,-3.47308 0.791104,-0.64925 1.075822,-0.74144 1.595191,-0.5164 0.487994,0.21153 0.649361,0.49482 0.707397,1.24181 0.06364,0.81846 -0.07547,1.14036 -0.901893,2.08657 -0.537391,0.6153 -1.333324,1.3284 -1.768717,1.5846 -0.987834,0.5814 -1.134134,0.8686 -0.817068,1.6033 0.981779,2.2752 3.227002,0.6204 5.926088,-4.36771 1.309977,-2.42102 1.733593,-2.84448 1.5311,-1.53065 -0.07972,0.51731 0.0307,1.03225 0.318885,1.48665 0.242473,0.3823 0.508281,1.14081 0.590674,1.68551 0.08238,0.5448 0.217355,0.9813 0.299901,0.9702 0.23488,-0.031 2.382246,-3.41803 2.382246,-3.75686 0,-0.16654 0.10705,-0.30283 0.237922,-0.30283 0.130863,0 0.495109,-0.72119 0.809452,-1.60275 0.362406,-1.0163 0.714536,-1.60277 0.962369,-1.60277 0.388812,0 0.376703,0.53101 -0.04307,1.88767 -0.129062,0.41712 -0.03097,0.45701 0.703903,0.28606 1.20575,-0.28059 1.068082,0.22498 -0.273506,1.00431 -1.054269,0.61234 -1.168615,0.79046 -1.7633,2.74537 -0.893678,2.938 -1.033966,3.9848 -0.534033,3.9848 0.216416,0 0.70544,-0.2001 1.086718,-0.4446 0.842385,-0.5403 0.899878,-0.1892 0.118153,0.7216 -0.638828,0.7444 -1.717112,0.8872 -2.032677,0.2694 -0.341366,-0.6684 -0.237654,-2.1922 0.254677,-3.7413 0.256561,-0.8073 0.388734,-1.45981 0.293699,-1.45011 -0.192868,0.02 -1.368839,1.81571 -2.414489,3.68741 -1.264864,2.264 -2.252919,2.5756 -2.940224,0.9271 -0.321453,-0.7709 -0.310729,-0.8798 0.141893,-1.4412 0.405985,-0.5035 0.55128,-0.5438 0.85048,-0.2358 0.32011,0.3294 0.305068,0.4275 -0.133201,0.8676 -0.575965,0.5784 -0.626541,0.8399 -0.162491,0.8399 0.182347,0 0.605295,-0.4035 0.939866,-0.8966 0.750853,-1.1068 0.84771,-3.1157 0.186006,-3.85841 -0.397478,-0.4461 -0.494029,-0.355 -1.642985,1.54921 -1.456418,2.4138 -3.356679,4.3719 -4.241171,4.3704 -0.343778,-6e-4 -0.968697,-0.261 -1.388686,-0.5786 z m 2.114683,-5.48221 c 0.355385,-0.4124 0.646156,-0.91317 0.646156,-1.11277 0,-0.47869 -0.83622,-0.79456 -1.282853,-0.4846 -0.540569,0.37521 -1.536737,2.17037 -1.536737,2.76928 0,0.5058 0.03981,0.5087 0.763634,0.055 0.420006,-0.2629 1.054417,-0.81531 1.4098,-1.22771 z m -14.391662,5.28541 c 0,-0.2668 0.376031,-1.4677 0.835626,-2.6685 0.833001,-2.17661 1.243128,-3.8405 0.946621,-3.8405 -0.18531,0 -1.729801,1.02269 -2.299654,1.52269 -0.726363,0.63731 -0.789522,-0.1033 -0.06999,-0.8209 1.071898,-1.06912 2.550765,-1.69704 3.114827,-1.32267 0.329332,0.21861 0.66629,0.21369 1.15918,-0.017 1.871225,-0.87589 2.599566,0.70204 1.714855,3.71528 -0.279537,0.9521 -0.560389,1.9425 -0.62412,2.2009 -0.138781,0.5627 0.596005,0.9964 0.948144,0.5597 0.133473,-0.1655 0.406562,-0.2968 0.606875,-0.2917 0.250514,0.01 0.15373,0.2387 -0.310068,0.7445 -0.874808,0.954 -1.816332,0.8606 -2.118101,-0.2102 -0.167371,-0.5939 -0.07523,-1.2051 0.406861,-2.6987 0.991354,-3.07128 0.784252,-4.18515 -0.592283,-3.1854 -0.569118,0.41337 -0.929754,1.11759 -1.615531,3.1549 -0.485556,1.4425 -0.942636,2.8523 -1.015731,3.1328 -0.171584,0.6584 -1.087487,0.6794 -1.087487,0.025 z m 66.694885,-0.7246 c -0.59523,-0.7382 -0.54567,-1.8944 0.19844,-4.62841 0.50117,-1.84152 0.57267,-2.40011 0.34359,-2.6842 -0.22908,-0.2842 -0.47089,-0.23832 -1.16165,0.22037 -0.81006,0.53808 -0.93068,0.80159 -1.69457,3.70184 -0.84361,3.203 -1.23603,4.0624 -1.6285,3.5654 -0.13525,-0.1713 0.0427,-1.2753 0.46706,-2.8995 0.8024,-3.06976 0.76933,-3.892 -0.0645,-1.60281 -0.32105,0.88151 -1.02499,2.29131 -1.56405,3.13271 -0.8856,1.382 -1.07015,1.53 -1.90811,1.53 -0.843,0 -0.94524,-0.083 -1.11902,-0.9159 -0.16689,-0.7991 -0.23525,-0.8626 -0.53543,-0.4981 -1.27877,1.553 -2.357475,1.8075 -2.945272,0.695 -0.408244,-0.7728 -0.296974,-2.6557 0.221842,-3.75211 0.19927,-0.421 0.195382,-0.5904 -0.0166,-0.6857 -0.178642,-0.081 0.0148,-0.60471 0.528597,-1.44131 0.445044,-0.72316 0.809305,-1.43595 0.809305,-1.58395 0,-0.14801 0.170018,-0.26913 0.377878,-0.26913 0.4658,0 0.34768,0.6997 -0.630379,3.73759 -0.772005,2.39741 -0.860023,3.40341 -0.320063,3.66041 0.527488,0.251 1.630952,-0.5405 2.289182,-1.6421 0.31138,-0.5212 0.86074,-1.96781 1.22121,-3.21487 0.69827,-2.4183 0.80735,-2.62058 1.23572,-2.29233 0.19694,0.15086 0.0133,1.14221 -0.65258,3.51539 -0.50958,1.81801 -0.86962,3.41961 -0.8001,3.55911 0.24876,0.4991 0.9614,0.2398 1.59476,-0.5801 0.35426,-0.4586 1.19354,-2.1299 1.86495,-3.71405 1.19661,-2.82289 1.85041,-3.59597 2.29188,-2.71002 0.14879,0.29843 0.31514,0.30434 0.80297,0.0286 0.78694,-0.44473 1.59633,-0.44392 1.95593,0 0.42248,0.52411 0.34044,2.37243 -0.18798,4.23737 -0.61886,2.1833 -0.61452,2.9898 0.0163,2.9898 0.55275,0 1.42827,-0.5149 1.68439,-0.9907 0.1013,-0.1879 0.17416,-0.068 0.17624,0.2899 0.008,1.3739 -2.02911,2.2596 -2.85146,1.2396 z m 37.86497,0.1023 c 0,-0.6863 0.44241,-1.2188 0.85099,-1.0243 0.44242,0.2106 0.40943,1.1543 -0.0477,1.372 -0.60921,0.2899 -0.80317,0.206 -0.80317,-0.3477 z m -95.191445,-4.82671 c 0.286884,-0.37883 0.490351,-0.86279 0.452148,-1.07557 -0.03824,-0.21278 0.115567,-0.43709 0.341715,-0.49841 0.638849,-0.17324 0.499923,0.73653 -0.234962,1.53878 -0.832071,0.90831 -1.239709,0.93391 -0.558901,0.035 z m -18.532093,-3.83756 c 0,-0.51736 0.5642,-0.86166 0.940031,-0.57354 0.184767,0.14163 0.179804,0.31374 -0.01758,0.60866 -0.365269,0.54589 -0.922504,0.52466 -0.922504,-0.0348 z m 94.763258,-1.49005 c -0.13929,-0.45 0.44999,-1.26927 0.91276,-1.26927 0.35385,0 0.19288,1.39346 -0.18156,1.57165 -0.52528,0.25003 -0.56553,0.23335 -0.7312,-0.30238 z"
       style="fill:#f9ecc6;fill-opacity:1" />
    <rect
       style="fill:#f9ecc6;fill-opacity:0.98039216;stroke:#b4ac9f;stroke-width:0.10062315;stroke-miterlimit:4;stroke-opacity:1;stroke-dasharray:none;stroke-dashoffset:0"
       id="rect3067"
       width="159.87407"
       height="71.874992"
       x="-0.015433743"
       y="913.27789"
       ry="0" />
    <g
       transform="matrix(1.144004,0,0,1.2617702,-34.302283,838.34147)"
       style="font-size:40px;font-style:normal;font-weight:bold;line-height:125%;letter-spacing:0px;word-spacing:0px;fill:#3e3221;fill-opacity:1;stroke:none;font-family:Sans;-inkscape-font-specification:Courier New Bold"
       id="flowRoot3914">
      <path
         d="m 62.140625,74.536773 c -2.7e-5,2.812532 -0.99612,5.214873 -2.988281,7.207031 -1.968772,1.968776 -4.359395,2.95315 -7.171875,2.953125 -2.812514,2.5e-5 -5.214856,-0.984349 -7.207032,-2.953125 -1.992195,-1.992158 -2.988288,-4.394499 -2.988281,-7.207031 -7e-6,-2.812463 0.996086,-5.214804 2.988281,-7.207032 1.992176,-1.992143 4.394518,-2.988236 7.207032,-2.988281 2.81248,4.5e-5 5.203103,0.996138 7.171875,2.988281 1.992161,1.968791 2.988254,4.371132 2.988281,7.207032 m -4.429688,0 c -2.2e-5,-1.593714 -0.562522,-2.941369 -1.6875,-4.042969 -1.125019,-1.12496 -2.472674,-1.687459 -4.042968,-1.6875 -1.593766,4.1e-5 -2.953139,0.56254 -4.078125,1.6875 -1.101575,1.1016 -1.652355,2.449255 -1.652344,4.042969 -1.1e-5,1.570346 0.562488,2.918 1.6875,4.042968 1.124986,1.12503 2.472641,1.68753 4.042969,1.6875 1.570294,3e-5 2.917949,-0.56247 4.042968,-1.6875 1.124978,-1.124968 1.687478,-2.472622 1.6875,-4.042968 m 12.9375,10.722656 -26.578125,8.613281 c -0.656258,0.210953 -1.136726,0.316422 -1.441406,0.316406 -0.539069,1.6e-5 -1.019538,-0.22264 -1.441406,-0.667968 -0.421881,-0.445296 -0.632818,-1.007796 -0.632813,-1.6875 -5e-6,-0.49217 0.164057,-0.937482 0.492188,-1.335938 0.234369,-0.304668 0.785149,-0.597637 1.652344,-0.878906 l 26.578125,-8.613281 c 0.656215,-0.210909 1.136683,-0.316378 1.441406,-0.316407 0.562464,2.9e-5 1.042932,0.234404 1.441406,0.703125 0.421838,0.445341 0.632775,0.984403 0.632813,1.617188 -3.8e-5,0.515651 -0.1641,0.972682 -0.492188,1.371094 -0.234412,0.304712 -0.785193,0.59768 -1.652344,0.878906 m 0.632813,15.152341 c -3.6e-5,2.81251 -0.996129,5.21485 -2.988281,7.20703 -1.992219,1.96875 -4.39456,2.95313 -7.207032,2.95313 -2.812523,0 -5.214864,-0.99609 -7.207031,-2.98828 -1.992204,-1.99219 -2.988297,-4.38281 -2.988281,-7.17188 -1.6e-5,-2.812485 0.996077,-5.214827 2.988281,-7.207029 1.992167,-1.992169 4.394508,-2.988262 7.207031,-2.988281 2.812472,1.9e-5 5.214813,0.996112 7.207032,2.988281 1.992152,1.968765 2.988245,4.371106 2.988281,7.207029 m -4.464844,0 c -3.2e-5,-1.593737 -0.562531,-2.941392 -1.6875,-4.042966 -1.125029,-1.124986 -2.472684,-1.687485 -4.042969,-1.6875 -1.570337,1.5e-5 -2.917991,0.562514 -4.042968,1.6875 -1.125021,1.101574 -1.687521,2.449229 -1.6875,4.042966 -2.1e-5,1.57032 0.562479,2.91798 1.6875,4.04297 1.124977,1.10157 2.472631,1.65235 4.042968,1.65235 1.570285,0 2.91794,-0.55078 4.042969,-1.65235 1.124969,-1.12499 1.687468,-2.47265 1.6875,-4.04297"
         style="font-size:72px;font-variant:normal;font-stretch:normal;font-family:Courier New;-inkscape-font-specification:Courier New Bold"
         id="path4408"
         inkscape:connector-curvature="0" />
      <path
         d="M 107.38672,88.985991 84.042969,76.048491 C 82.871089,75.392276 82.085934,74.806339 81.6875,74.290679 81.312497,73.77509 81.124997,73.11884 81.125,72.321929 c -3e-6,-1.007774 0.363278,-1.874961 1.089844,-2.601563 0.726557,-0.726522 1.582025,-1.089802 2.566406,-1.089843 0.609368,4.1e-5 1.546867,0.339884 2.8125,1.019531 l 34.76953,19.335937 -34.76953,19.335939 c -1.265633,0.70312 -2.203132,1.05469 -2.8125,1.05469 -0.984381,0 -1.839849,-0.36328 -2.566406,-1.08985 -0.726566,-0.72656 -1.089847,-1.60546 -1.089844,-2.63672 -3e-6,-0.79687 0.187497,-1.45312 0.5625,-1.96875 0.398434,-0.51561 1.183589,-1.10155 2.355469,-1.75781 L 107.38672,88.985991"
         style="font-size:72px;font-variant:normal;font-stretch:normal;font-family:Courier New;-inkscape-font-specification:Courier New Bold"
         id="path4410"
         inkscape:connector-curvature="0" />
      <path
         d="m 148.48437,74.536773 c -2e-5,2.812532 -0.99611,5.214873 -2.98828,7.207031 -1.96877,1.968776 -4.35939,2.95315 -7.17187,2.953125 -2.81252,2.5e-5 -5.21486,-0.984349 -7.20703,-2.953125 -1.9922,-1.992158 -2.98829,-4.394499 -2.98828,-7.207031 -1e-5,-2.812463 0.99608,-5.214804 2.98828,-7.207032 1.99217,-1.992143 4.39451,-2.988236 7.20703,-2.988281 2.81248,4.5e-5 5.2031,0.996138 7.17187,2.988281 1.99217,1.968791 2.98826,4.371132 2.98828,7.207032 m -4.42968,0 c -3e-5,-1.593714 -0.56252,-2.941369 -1.6875,-4.042969 -1.12502,-1.12496 -2.47268,-1.687459 -4.04297,-1.6875 -1.59377,4.1e-5 -2.95314,0.56254 -4.07813,1.6875 -1.10157,1.1016 -1.65235,2.449255 -1.65234,4.042969 -1e-5,1.570346 0.56249,2.918 1.6875,4.042968 1.12499,1.12503 2.47264,1.68753 4.04297,1.6875 1.57029,3e-5 2.91795,-0.56247 4.04297,-1.6875 1.12498,-1.124968 1.68747,-2.472622 1.6875,-4.042968 m 12.9375,10.722656 -26.57813,8.613281 c -0.65626,0.210953 -1.13672,0.316422 -1.4414,0.316406 -0.53907,1.6e-5 -1.01954,-0.22264 -1.44141,-0.667968 -0.42188,-0.445296 -0.63282,-1.007796 -0.63281,-1.6875 -10e-6,-0.49217 0.16405,-0.937482 0.49219,-1.335938 0.23436,-0.304668 0.78514,-0.597637 1.65234,-0.878906 l 26.57812,-8.613281 c 0.65622,-0.210909 1.13669,-0.316378 1.44141,-0.316407 0.56246,2.9e-5 1.04293,0.234404 1.44141,0.703125 0.42183,0.445341 0.63277,0.984403 0.63281,1.617188 -4e-5,0.515651 -0.1641,0.972682 -0.49219,1.371094 -0.23441,0.304712 -0.78519,0.59768 -1.65234,0.878906 m 0.63281,15.152341 c -4e-5,2.81251 -0.99613,5.21485 -2.98828,7.20703 -1.99222,1.96875 -4.39456,2.95313 -7.20703,2.95313 -2.81253,0 -5.21487,-0.99609 -7.20703,-2.98828 -1.99221,-1.99219 -2.9883,-4.38281 -2.98829,-7.17188 -1e-5,-2.812485 0.99608,-5.214827 2.98829,-7.207029 1.99216,-1.992169 4.3945,-2.988262 7.20703,-2.988281 2.81247,1.9e-5 5.21481,0.996112 7.20703,2.988281 1.99215,1.968765 2.98824,4.371106 2.98828,7.207029 m -4.46484,0 c -4e-5,-1.593737 -0.56254,-2.941392 -1.6875,-4.042966 -1.12503,-1.124986 -2.47269,-1.687485 -4.04297,-1.6875 -1.57034,1.5e-5 -2.91799,0.562514 -4.04297,1.6875 -1.12502,1.101574 -1.68752,2.449229 -1.6875,4.042966 -2e-5,1.57032 0.56248,2.91798 1.6875,4.04297 1.12498,1.10157 2.47263,1.65235 4.04297,1.65235 1.57028,0 2.91794,-0.55078 4.04297,-1.65235 1.12496,-1.12499 1.68746,-2.47265 1.6875,-4.04297"
         style="font-size:72px;font-variant:normal;font-stretch:normal;font-family:Courier New;-inkscape-font-specification:Courier New Bold"
         id="path4412"
         inkscape:connector-curvature="0" />
    </g>
  </g>
</svg>
